<svg width="39" height="49" viewBox="0 0 39 49" fill="none" xmlns="http://www.w3.org/2000/svg">
<path d="M12.104 41.1633C9.69719 38.9804 8.99463 34.3937 9.99736 31.0708C11.736 33.1658 14.145 33.8295 16.6403 34.2041C20.4925 34.7822 24.2756 34.566 27.8541 32.8189C28.2635 32.619 28.6418 32.353 29.0891 32.0836C29.4249 33.0502 29.5123 34.026 29.395 35.0192C29.1098 37.438 27.8967 39.3064 25.9671 40.7228C25.1956 41.2893 24.3792 41.7957 23.5823 42.3299C21.1341 43.9717 20.4717 45.8968 21.3917 48.6971C21.4136 48.7653 21.4331 48.8335 21.4825 49C20.2326 48.4451 19.3196 47.6369 18.6239 46.5743C17.8891 45.4528 17.5395 44.2122 17.5211 42.8699C17.5119 42.2166 17.5119 41.5576 17.4234 40.9135C17.2072 39.3434 16.4644 38.6405 15.065 38.5999C13.6287 38.5584 12.4926 39.4394 12.1913 40.8268C12.1684 40.9332 12.135 41.0384 12.1017 41.1621L12.104 41.1633Z" fill="url(#paint0_linear_148_1062)"/>
<path d="M0 32.0881C0 32.0881 6.58089 28.8727 13.1802 28.8727L18.1558 13.4282C18.342 12.6812 18.886 12.1737 19.5 12.1737C20.1141 12.1737 20.658 12.6812 20.8443 13.4282L25.8198 28.8727C33.6358 28.8727 39 32.0881 39 32.0881C39 32.0881 27.8218 1.54584 27.8 1.48457C27.4792 0.58157 26.9376 0 26.2074 0H12.7938C12.0636 0 11.5439 0.58157 11.2012 1.48457C11.177 1.54469 0 32.0881 0 32.0881Z" fill="black"/>
<defs>
<linearGradient id="paint0_linear_148_1062" x1="-1.87477e-05" y1="49" x2="49.9146" y2="31.9467" gradientUnits="userSpaceOnUse">
<stop stop-color="#D83333"/>
<stop offset="1" stop-color="#F041FF"/>
</linearGradient>
</defs>
</svg>
