<svg width="61" height="10" viewBox="0 0 61 10" fill="none" xmlns="http://www.w3.org/2000/svg">
<path d="M30.5253 1.86547V9.06979L29.7623 9.70216V3.70916H28.3261L30.5253 1.86547ZM56.9875 0.765991C57.6264 0.765991 58.2197 0.865141 58.7673 1.06344C59.2941 1.25072 59.7486 1.46128 60.1306 1.6951L60.1973 1.73661L59.4063 3.28647C59.3341 3.22569 59.2322 3.15617 59.1005 3.07791L59.0258 3.03436L58.9451 2.98908L58.8586 2.94206C58.6152 2.80638 58.3262 2.69157 57.9915 2.59764C57.6568 2.49328 57.312 2.44109 56.957 2.44109C56.0037 2.44109 55.5271 2.71767 55.5271 3.27081C55.5271 3.59435 55.6995 3.82396 56.0443 3.95966L56.1228 3.98897L56.2064 4.01876L56.2948 4.04904L56.3883 4.07979L56.4867 4.11102L56.5901 4.14273C56.6077 4.14805 56.6256 4.1534 56.6436 4.15876L56.7545 4.19119L56.8703 4.2241L56.991 4.25748L57.1168 4.29135L57.2475 4.3257L57.4528 4.37811L57.596 4.41366C58.1943 4.57021 58.7116 4.74763 59.1476 4.94593C59.5753 5.13597 59.9051 5.38831 60.1372 5.70295L60.1669 5.74434C60.4103 6.06788 60.532 6.49576 60.532 7.02803C60.532 7.67511 60.3697 8.19698 60.0452 8.59358C59.7308 8.97974 59.315 9.26153 58.7978 9.43896C58.2805 9.60595 57.7227 9.68944 57.1244 9.68944C56.4347 9.68944 55.7502 9.59029 55.0707 9.39199C54.4236 9.20314 53.8454 8.94802 53.3363 8.62663L53.2604 8.57793L54.0819 6.93414C54.2137 7.06981 54.4318 7.22115 54.736 7.38813C55.0504 7.55512 55.4155 7.69602 55.8313 7.81082C56.2471 7.92563 56.6883 7.98303 57.1548 7.98303C58.0878 7.98303 58.5544 7.72733 58.5544 7.21593C58.5544 6.87151 58.3363 6.62625 57.9002 6.48014L57.7954 6.44226L57.6853 6.40379L57.5699 6.36471L57.4492 6.32504L57.3234 6.28476L57.1922 6.24388C57.1699 6.23702 57.1474 6.23013 57.1247 6.22322L56.9856 6.18144L56.8414 6.13905L56.6918 6.09607L56.537 6.05249L56.2949 5.98598L56.2116 5.96352C55.3394 5.73391 54.6904 5.44168 54.2644 5.08683C53.8486 4.72154 53.6407 4.1997 53.6407 3.5213C53.6407 2.91596 53.7878 2.40978 54.0819 2.00275C54.3861 1.59571 54.7918 1.28783 55.2989 1.07909C55.8161 0.870359 56.379 0.765991 56.9875 0.765991ZM42.8798 0.781645C43.5234 0.781645 44.111 0.902263 44.6421 1.1435L44.7056 1.17302C45.2532 1.42351 45.7197 1.7627 46.1051 2.19061C46.5007 2.60808 46.8046 3.08295 47.0176 3.61523C47.2305 4.14752 47.3373 4.6902 47.3373 5.24335C47.3373 5.81737 47.2258 6.37055 47.0027 6.90282C46.7795 7.42466 46.4648 7.89432 46.0592 8.31179C45.6636 8.71882 45.1924 9.04236 44.6447 9.28241C44.0971 9.52245 43.4987 9.64248 42.8496 9.64248C42.1803 9.64248 41.5718 9.52245 41.0241 9.28241C40.4765 9.03193 40.0046 8.69795 39.6091 8.28048C39.2135 7.85257 38.9093 7.37248 38.6963 6.8402C38.4837 6.30793 38.3768 5.76 38.3768 5.19641C38.3768 4.62239 38.4884 4.06924 38.7115 3.53695C38.9245 3.02887 39.2209 2.57785 39.6003 2.18388L39.655 2.12799C40.0607 1.71052 40.537 1.38176 41.0847 1.14171C41.6323 0.90167 42.2307 0.781645 42.8798 0.781645ZM6.17542 0.828612L9.87206 9.57986H7.92486L7.07295 7.52903H3.77184L2.91994 9.57986H0.95752L4.66938 0.828612H6.17542ZM17.0641 0.828612L19.4069 3.92833L21.7496 0.828612H23.7424L20.3805 5.25903L23.6359 9.57986H21.6431L19.4069 6.60538L17.1858 9.57986H15.1626L18.4333 5.25903L15.0561 0.828612H17.0641ZM31.9206 0.788528V6.64452H33.397L31.1591 8.53445V1.33408L31.9206 0.788528ZM42.8496 2.4724C42.2919 2.4724 41.8149 2.60808 41.4193 2.87944C41.034 3.15079 40.7399 3.49521 40.537 3.91268C40.3342 4.33016 40.2328 4.76329 40.2328 5.21207C40.2328 5.68172 40.3396 6.1305 40.5526 6.55841C40.7652 6.97588 41.0644 7.31508 41.4498 7.576C41.8453 7.83692 42.3169 7.96738 42.8645 7.96738C43.4223 7.96738 43.8939 7.8317 44.2793 7.56034C44.665 7.27855 44.9588 6.92892 45.1616 6.51141C45.3645 6.08351 45.4662 5.6452 45.4662 5.19641C45.4662 4.72676 45.3597 4.28316 45.1467 3.86571C44.9338 3.44824 44.6295 3.11426 44.2337 2.86378C43.8483 2.60286 43.3872 2.4724 42.8496 2.4724ZM5.43 3.12992L4.18257 5.88524H6.63179L5.43 3.12992Z" fill="#5A29E4"/>
</svg>
