<svg width="60" height="39" viewBox="0 0 60 39" fill="none" xmlns="http://www.w3.org/2000/svg">
<path d="M50.6495 36.715C50.2289 36.7152 49.8221 36.5663 49.5022 36.2951C49.1822 36.0239 48.9701 35.6483 48.904 35.2356C48.8379 34.823 48.9222 34.4004 49.1416 34.044C49.361 33.6875 49.7012 33.4205 50.101 33.291C53.4618 32.1981 55.6329 29.2715 55.6329 25.8346C55.6329 21.4819 52.0691 17.9406 47.6884 17.9406C47.384 17.9406 47.0565 17.9644 46.658 18.0158L44.9308 18.2383L44.6826 16.5245C43.621 9.17656 37.1786 3.63528 29.6966 3.63528C23.5113 3.63528 18.0047 7.31422 15.6695 13.0085L15.2298 14.0799L14.0663 14.1009C8.71852 14.1985 4.3679 18.599 4.3679 23.9095C4.3679 27.7864 6.63333 31.3218 10.139 32.916C10.5651 33.1098 10.8962 33.4637 11.0596 33.9001C11.223 34.3364 11.2053 34.8193 11.0103 35.2426C10.8153 35.6659 10.459 35.9949 10.0199 36.1573C9.58074 36.3196 9.09468 36.302 8.66862 36.1082C3.90876 33.9441 0.833496 29.1558 0.833496 23.9098C0.833496 17.0828 6.1277 11.364 12.8522 10.6615C15.9507 4.22436 22.4446 0.125 29.696 0.125C38.3753 0.125 45.9201 6.17092 47.8766 14.4321C54.1192 14.5326 59.1668 19.6091 59.1668 25.835C59.1668 30.7411 55.9649 35.0779 51.2 36.6274C51.0177 36.6865 50.832 36.715 50.6495 36.715Z" fill="#0071CE"/>
<path d="M23.6238 37.4743L23.6213 37.4734L23.6186 37.4716L23.6177 37.4707L23.6163 37.4698L23.615 37.4693L23.614 37.4684L23.6122 37.4675L23.6095 37.4657L23.6077 37.4653L23.6058 37.4648L23.6045 37.4644L23.6029 37.4639L23.6015 37.4635L23.6001 37.463C23.5723 37.4531 23.5422 37.4469 23.5126 37.4456H23.5085L23.5033 37.4451H23.5001C22.7365 37.4451 22.1117 36.8275 22.1072 36.0707V20.6463H23.2969C23.478 20.654 23.6015 20.5154 23.6015 20.3492C23.6015 20.2249 23.525 20.1188 23.4163 20.0744L17.7078 16.1598C17.6578 16.1256 17.5986 16.1073 17.5379 16.1073C17.4773 16.1073 17.418 16.1256 17.3681 16.1598L11.6149 20.105C11.5627 20.1411 11.5235 20.1928 11.5029 20.2526C11.4823 20.3124 11.4813 20.3771 11.5003 20.4375C11.5192 20.4978 11.5569 20.5506 11.6081 20.5882C11.6592 20.6258 11.7211 20.6462 11.7847 20.6465H12.9741L12.9753 36.0747C12.9812 37.1413 13.8434 38.0118 14.9406 38.0394C14.9531 38.0408 14.965 38.0417 14.9775 38.0417H23.5047C23.5831 38.0403 23.6542 38.0091 23.7068 37.959L23.7095 37.9563L23.7109 37.955L23.7136 37.9522L23.7145 37.9513L23.7154 37.9504C23.7672 37.8972 23.8 37.8248 23.8002 37.7451V37.7406C23.799 37.6842 23.7818 37.6293 23.7506 37.5822C23.7194 37.5351 23.6755 37.4977 23.6238 37.4743Z" fill="#DC8327"/>
<path d="M35.9533 37.4743L35.951 37.4734L35.9499 37.473L35.9485 37.4721L35.9471 37.4712L35.9458 37.4703L35.9439 37.4694L35.9426 37.4685L35.9412 37.4676L35.9398 37.4671L35.9389 37.4662L35.9362 37.4653L35.9344 37.4648L35.9325 37.4639L35.9305 37.463L35.9287 37.4621C35.9008 37.4522 35.8707 37.4461 35.8412 37.4447H35.8375L35.8277 37.4442C35.0644 37.4442 34.4398 36.8266 34.4352 36.0698V24.1002H35.6245C35.695 24.1035 35.7644 24.0818 35.8203 24.0391C35.8763 23.9964 35.9153 23.9354 35.9303 23.8669C35.9453 23.7983 35.9354 23.7268 35.9024 23.6648C35.8693 23.6028 35.8153 23.5545 35.7498 23.5283L30.0411 19.6139C29.9911 19.5797 29.9318 19.5613 29.8711 19.5613C29.8104 19.5613 29.7511 19.5797 29.7011 19.6139L23.9503 23.5587C23.8981 23.5948 23.8589 23.6465 23.8382 23.7063C23.8176 23.7661 23.8167 23.8308 23.8356 23.8912C23.8545 23.9515 23.8923 24.0043 23.9434 24.0419C23.9946 24.0795 24.0564 24.0999 24.12 24.1002H25.3043L25.3052 36.0743C25.3102 37.1413 26.174 38.0123 27.2716 38.0394C27.2835 38.0408 27.2953 38.0412 27.3074 38.0412H35.8348C35.9132 38.0399 35.984 38.0086 36.0367 37.9586L36.0394 37.9559L36.0408 37.9545L36.0417 37.9536L36.0426 37.9527L36.0435 37.9518L36.0444 37.9509L36.0453 37.95C36.0971 37.8968 36.1299 37.8244 36.1301 37.7447V37.7401C36.1287 37.6838 36.1113 37.6291 36.08 37.5821C36.0488 37.5351 36.0049 37.4977 35.9533 37.4743Z" fill="#F4B21B"/>
<path d="M48.3146 37.4743L48.3123 37.4734L48.311 37.4725L48.3096 37.4716L48.3087 37.4707L48.3069 37.4698L48.3041 37.468L48.3018 37.4671L48.3005 37.4662L48.2982 37.4653L48.2962 37.4648L48.2925 37.463L48.2911 37.4621L48.2898 37.4617C48.2619 37.4518 48.2327 37.4461 48.2032 37.4447H48.1989L48.1929 37.4442H48.1897H48.1916C47.4282 37.4442 46.8032 36.8266 46.7984 36.0698V27.5527H47.991C48.1592 27.5489 48.2957 27.4223 48.2957 27.2562C48.2957 27.1316 48.2191 27.0255 48.1104 26.9811L42.4015 23.0667C42.3516 23.0325 42.2923 23.0142 42.2317 23.0142C42.171 23.0142 42.1117 23.0325 42.0618 23.0667L36.3087 27.0114C36.2565 27.0476 36.2172 27.0993 36.1966 27.1591C36.176 27.2189 36.1751 27.2836 36.194 27.344C36.2129 27.4043 36.2507 27.4571 36.3018 27.4947C36.3529 27.5322 36.4148 27.5527 36.4784 27.553H37.6649L37.6658 36.0743C37.6717 37.1413 38.5349 38.0127 39.6321 38.0394C39.6439 38.0408 39.656 38.0412 39.6681 38.0412H48.1952C48.2736 38.0399 48.3447 38.0086 48.3973 37.9586L48.4001 37.9559L48.4014 37.9545L48.4042 37.9518L48.4051 37.9509L48.406 37.95C48.4577 37.8968 48.4903 37.8244 48.4907 37.7447V37.7401C48.4896 37.6838 48.4724 37.629 48.4412 37.582C48.4101 37.535 48.3662 37.4977 48.3146 37.4743Z" fill="#F2D864"/>
</svg>
