<svg width="84" height="70" viewBox="0 0 84 70" fill="none" xmlns="http://www.w3.org/2000/svg">
<path fill-rule="evenodd" clip-rule="evenodd" d="M12.6871 56.7752V51.4359C12.6871 50.7343 13.1286 50.1707 13.8599 50.1707H14.0623C14.7933 50.1707 15.2329 50.7349 15.2329 51.4359V62.6768C15.2329 65.4179 13.8695 67.599 11.4935 68.9885C10.4051 69.629 9.16273 69.9655 7.89767 69.9626H7.39271C4.63235 69.9626 2.43938 68.6074 1.03817 66.249C0.392435 65.1681 0.0536469 63.9336 0.0578223 62.6768V62.1758C0.0578223 59.4337 1.4219 57.2539 3.7959 55.8618C4.88409 55.22 6.12715 54.8834 7.39271 54.8877H7.89767C9.76572 54.8877 11.3506 55.6069 12.6871 56.7752ZM2.60332 62.4258C2.60332 64.4059 3.56954 65.8946 5.31636 66.8442C6.02272 67.228 6.78952 67.4342 7.59542 67.4342C9.55217 67.4342 11.0036 66.5173 12.0047 64.8703C12.4702 64.1041 12.6871 63.2658 12.6871 62.3746C12.6871 60.6581 11.869 59.3186 10.4763 58.3236C9.63201 57.7205 8.68155 57.418 7.64502 57.418C5.51217 57.418 3.97725 58.4884 3.05604 60.3895C2.74524 61.0324 2.60332 61.7147 2.60332 62.4258ZM24.0646 54.8877H24.4174C27.367 54.8877 29.6103 56.3089 31.0318 58.8663C31.6002 59.8893 31.9044 61.006 31.9044 62.1758V62.6768C31.9044 65.4179 30.5436 67.602 28.164 68.9888C27.0625 69.6307 25.8456 69.9626 24.5689 69.9626H24.0646C21.3042 69.9626 19.1106 68.6074 17.71 66.249C17.064 65.1682 16.7249 63.9337 16.7287 62.6768V62.1758C16.7287 59.4334 18.0984 57.2608 20.4665 55.8625C21.5674 55.2127 22.7853 54.8877 24.0646 54.8877ZM19.2745 62.4258C19.2745 64.3479 20.224 65.7618 21.8585 66.7561C22.6259 67.2228 23.4712 67.4342 24.3678 67.4342C26.2799 67.4342 27.6933 66.4713 28.6769 64.8683C29.146 64.1041 29.3583 63.2645 29.3583 62.3746C29.3583 60.5873 28.4916 59.222 27.0099 58.2325C26.1981 57.6899 25.2943 57.418 24.3166 57.418C22.1837 57.418 20.6488 58.4884 19.7279 60.3895C19.4165 61.0324 19.2745 61.7147 19.2745 62.4258ZM42.4875 57.62C42.1032 57.4412 41.3837 57.3818 40.9684 57.3662C38.8415 57.2865 37.3026 58.4763 36.3998 60.3399C36.088 60.9828 35.9457 61.6632 35.9457 62.3746C35.9457 64.5404 37.0907 66.0568 39.0369 66.9813C39.7479 67.3187 40.6658 67.3827 41.4428 67.3827C42.1262 67.3827 43.092 66.9669 43.6985 66.6807L43.8037 66.6311H44.2744L44.3264 66.6416C44.9052 66.7613 45.3422 67.1259 45.3422 67.7446V67.9949C45.3422 69.5345 42.5096 69.8869 41.4287 69.9619C37.6144 70.224 34.7617 68.1433 33.6742 64.5296C33.4853 63.9021 33.4002 63.2788 33.4002 62.6249V62.1246C33.4002 59.3825 34.7702 57.2105 37.138 55.8135C38.2389 55.1641 39.4565 54.8378 40.7355 54.8378H41.2401C42.5969 54.8378 43.8467 55.2206 44.967 55.9806L45.059 56.0439L45.1171 56.1392C45.238 56.3382 45.3422 56.5686 45.3422 56.8055V57.0558C45.3422 57.7013 44.856 58.0485 44.2692 58.1608L44.2206 58.1692H44.0701C43.6903 58.1692 42.8266 57.7786 42.4875 57.62ZM50.745 59.3323C51.7338 58.3487 52.726 57.3671 53.7297 56.3999C54.0093 56.13 55.0682 54.9879 55.4851 54.9879H55.9411L55.993 54.9987C56.5738 55.1184 57.0088 55.4836 57.0088 56.1036V56.3536C57.0088 56.7765 56.5101 57.2679 56.2351 57.5574C55.6503 58.1732 55.0346 58.7687 54.4361 59.3717L51.3603 62.4731C52.6846 63.7915 54.0076 65.1108 55.3211 66.4393C55.6854 66.8059 56.0469 67.1754 56.4056 67.5475C56.5321 67.6796 56.7187 67.8441 56.8248 68.0272C56.9388 68.1988 57.0088 68.3923 57.0088 68.5989V68.8599L56.994 68.9203C56.8511 69.4973 56.4825 69.9626 55.8389 69.9626H55.6362C55.215 69.9626 54.7393 69.4894 54.4508 69.2189C53.8562 68.6622 53.2822 68.0768 52.6994 67.508L50.745 65.6022V68.6482C50.745 69.3498 50.3028 69.9136 49.5724 69.9136H49.372C48.6407 69.9136 48.1991 69.3498 48.1991 68.6482V51.4848C48.1991 50.7832 48.641 50.2219 49.372 50.2219H49.5724C50.3028 50.2219 50.745 50.7832 50.745 51.4848V59.3323ZM82.4739 54.9879H82.7269C83.4904 54.9879 84 55.4989 84 56.2531C84 57.2999 82.9924 57.5678 82.1208 57.5678C80.9775 57.5678 79.8857 58.2554 79.0976 59.0265C78.1149 59.9888 77.6849 61.2214 77.6849 62.5762V68.6978C77.6849 69.3994 77.2437 69.9626 76.512 69.9626H76.3109C75.5793 69.9626 75.1384 69.3997 75.1384 68.6978V62.2248C75.1384 59.7392 76.3566 57.7101 78.3876 56.287C79.6002 55.4369 80.9893 54.9879 82.4739 54.9879ZM64.3802 67.1193C65.3066 67.4408 66.3629 67.3947 67.3133 67.2303C67.7996 67.025 69.0428 66.4863 69.5001 66.5652L69.5714 66.5773L69.6371 66.6093C69.9163 66.7437 70.1828 66.934 70.3254 67.2162C70.6585 67.8777 70.4985 68.5428 69.844 68.9184L69.6262 69.0433C67.2115 70.4276 64.643 70.2357 62.2358 68.9428C61.085 68.3248 60.2045 67.4075 59.555 66.2892L59.4032 66.0278C57.8528 63.3611 58.0621 60.556 59.8106 58.0201C60.4141 57.1436 61.2029 56.4665 62.1251 55.9369L62.474 55.7368C64.7481 54.4328 67.1855 54.5222 69.5211 55.6667C70.7771 56.2821 71.7946 57.1994 72.4957 58.4058L72.6218 58.6232C73.131 59.4997 72.4714 60.2633 71.7903 60.7854C70.9998 61.391 70.2018 62.12 69.4442 62.7694C67.7549 64.218 66.0682 65.6698 64.3802 67.1193ZM62.1938 65.5941C64.0828 63.9853 65.9726 62.3749 67.8567 60.7593C68.5007 60.2078 69.2067 59.6354 69.8454 59.0555C69.3328 58.414 68.4767 57.9516 67.7493 57.6758C66.2808 57.1201 64.8329 57.3068 63.4862 58.0788C61.7236 59.0898 60.9729 60.6996 61.0386 62.7029C61.0649 63.4919 61.2785 64.2522 61.7 64.9235C61.8485 65.1601 62.0144 65.3823 62.1938 65.5941ZM48.4551 14.9235H55.9674V22.5513H59.7656C61.5199 22.5513 63.3239 22.241 64.985 21.682C65.8014 21.4069 66.7174 21.0244 67.5226 20.5431C66.4621 19.168 65.9207 17.4316 65.7617 15.72C65.5448 13.3917 66.0179 10.3614 67.6041 8.53925L68.3939 7.63207L69.3348 8.38359C71.7039 10.274 73.6965 12.9159 74.0477 15.9276C76.9003 15.0941 80.2498 15.2912 82.764 16.7326L83.7956 17.3239L83.2529 18.3766C81.1263 22.4987 76.6802 23.776 72.3337 23.5498C65.8297 39.6406 51.6695 47.2583 34.5005 47.2583C25.6301 47.2583 17.4922 43.9647 12.8579 36.1479L12.782 36.0206L12.1069 34.6559C10.5404 31.2152 10.02 27.4458 10.3729 23.6794L10.479 22.5513H16.9032V14.9235H24.4151V7.46173H39.44V0H48.4551V14.9235Z" fill="#364548"/>
<path fill-rule="evenodd" clip-rule="evenodd" d="M72.7936 17.7455C73.2973 13.857 70.3677 10.803 68.5509 9.35278C66.4572 11.7571 66.1319 18.0585 69.4166 20.7115C67.5834 22.3287 63.7208 23.7946 59.7656 23.7946H11.6203C11.2359 27.8955 11.9607 31.672 13.6162 34.9043L14.1638 35.8996C14.5106 36.4838 14.8895 37.0485 15.2989 37.5912C17.2783 37.7175 19.1034 37.7609 20.773 37.7244C24.0541 37.6526 26.732 37.2675 28.761 36.5692C28.9044 36.5249 29.0596 36.5377 29.1937 36.605C29.3278 36.6723 29.4303 36.7887 29.4795 36.9297C29.5287 37.0707 29.5207 37.2251 29.4574 37.3604C29.394 37.4957 29.2801 37.6012 29.1398 37.6545C28.8697 37.7479 28.5885 37.8347 28.2981 37.9172C26.7004 38.3705 24.9861 38.6753 22.7757 38.8107C22.9071 38.813 22.6384 38.8303 22.6384 38.8303C22.5632 38.8352 22.4686 38.846 22.393 38.8499C21.523 38.8985 20.5841 38.9086 19.6241 38.9086C18.5741 38.9086 17.5402 38.889 16.3841 38.8303L16.3545 38.8499C20.3659 43.3283 26.6383 46.0143 34.5008 46.0143C51.1405 46.0143 65.2544 38.6877 71.5045 22.2393C75.9384 22.6913 80.1998 21.5681 82.1382 17.8095C79.0506 16.0398 75.0799 16.604 72.7936 17.7455Z" fill="#22A0C8"/>
<path fill-rule="evenodd" clip-rule="evenodd" d="M72.7936 17.7455C73.2973 13.857 70.3677 10.803 68.5509 9.35278C66.4572 11.7571 66.1319 18.0585 69.4166 20.7115C67.5834 22.3287 63.7208 23.7946 59.7656 23.7946H14.4713C14.2749 30.075 16.6216 34.8423 20.773 37.7244C24.0541 37.6526 26.732 37.2675 28.761 36.5692C28.9044 36.5249 29.0596 36.5377 29.1937 36.605C29.3278 36.6723 29.4303 36.7887 29.4795 36.9297C29.5287 37.0707 29.5207 37.2251 29.4574 37.3604C29.394 37.4957 29.2801 37.6012 29.1398 37.6545C28.8697 37.7479 28.5885 37.8347 28.2981 37.9172C26.7004 38.3705 24.8389 38.7144 22.6285 38.8499L22.5743 38.7993C28.2373 41.6846 36.4484 41.6742 45.8626 38.0824C56.4184 34.0542 66.2413 26.3804 73.0949 17.6032C72.9917 17.6496 72.8912 17.6969 72.7936 17.7455Z" fill="#37B1D9"/>
<path fill-rule="evenodd" clip-rule="evenodd" d="M11.7107 28.7772C12.0096 30.974 12.6568 33.0309 13.6162 34.9043L14.1638 35.8996C14.5106 36.4838 14.8895 37.0485 15.2989 37.5912C17.2783 37.7175 19.1034 37.7609 20.773 37.7244C24.0541 37.6526 26.732 37.2675 28.761 36.5692C28.9044 36.5249 29.0596 36.5377 29.1937 36.605C29.3278 36.6723 29.4303 36.7887 29.4795 36.9297C29.5287 37.0707 29.5207 37.2251 29.4574 37.3604C29.394 37.4957 29.2801 37.6012 29.1398 37.6545C28.8697 37.7479 28.5885 37.8347 28.2981 37.9172C26.7004 38.3705 24.8488 38.6945 22.6384 38.8303C22.5625 38.8349 22.4301 38.8362 22.3536 38.8404C21.4843 38.8887 20.5548 38.9184 19.5945 38.9184C18.5449 38.9184 17.4712 38.8985 16.3157 38.8401C20.3272 43.3186 26.6383 46.0143 34.5008 46.0143C48.7461 46.0143 61.1398 40.6437 68.3331 28.7772H11.7107Z" fill="#1B81A5"/>
<path fill-rule="evenodd" clip-rule="evenodd" d="M14.9047 28.7772C15.7562 32.6344 17.802 35.6623 20.773 37.7244C24.0541 37.6526 26.732 37.2675 28.761 36.5692C28.9044 36.5249 29.0596 36.5377 29.1937 36.605C29.3278 36.6723 29.4303 36.7887 29.4795 36.9297C29.5287 37.0707 29.5207 37.2251 29.4574 37.3604C29.394 37.4957 29.2801 37.6012 29.1398 37.6545C28.8697 37.7479 28.5885 37.8347 28.2981 37.9172C26.7004 38.3705 24.8097 38.6949 22.599 38.8306C28.2616 41.7153 36.4491 41.6739 45.8626 38.0824C51.5574 35.909 57.0384 32.6739 61.9556 28.7772H14.9047Z" fill="#1D91B4"/>
<path fill-rule="evenodd" clip-rule="evenodd" d="M18.1549 16.1671H24.6658V22.6342H18.1549V16.1671ZM18.6973 16.7062H19.2111V22.0954H18.6973V16.7062ZM19.6632 16.7062H20.1977V22.0954H19.6635L19.6632 16.7062ZM20.6495 16.7062H21.184V22.0954H20.6495V16.7062ZM21.6364 16.7062H22.1706V22.0954H21.6364V16.7062ZM22.623 16.7062H23.1572V22.0954H22.623V16.7062ZM23.6092 16.7062H24.1234V22.0954H23.6092V16.7062ZM25.6672 8.70535H32.1784V15.1721H25.6668L25.6672 8.70535ZM26.2099 9.24444H26.7234V14.6334H26.2099V9.24444ZM27.1758 9.24444H27.71V14.6334H27.1761L27.1758 9.24444ZM28.1621 9.24444H28.6963V14.6334H28.1621V9.24444ZM29.1487 9.24444H29.6829V14.6334H29.1487V9.24444ZM30.1353 9.24444H30.6698V14.6334H30.1353V9.24444ZM31.1215 9.24444H31.636V14.6334H31.1215V9.24444Z" fill="#23A3C2"/>
<path fill-rule="evenodd" clip-rule="evenodd" d="M25.6672 16.1671H32.1784V22.6342H25.6668L25.6672 16.1671ZM26.2099 16.7062H26.7234V22.0954H26.2099V16.7062ZM27.1758 16.7062H27.71V22.0954H27.1761L27.1758 16.7062ZM28.1621 16.7062H28.6963V22.0954H28.1621V16.7062ZM29.1487 16.7062H29.6829V22.0954H29.1487V16.7062ZM30.1353 16.7062H30.6698V22.0954H30.1353V16.7062ZM31.1215 16.7062H31.636V22.0954H31.1215V16.7062Z" fill="#34BBDE"/>
<path fill-rule="evenodd" clip-rule="evenodd" d="M33.1798 16.1671H39.6907V22.6342H33.1798V16.1671ZM33.7222 16.7062H34.2357V22.0954H33.7222V16.7062ZM34.6881 16.7062H35.2223V22.0954H34.6881V16.7062ZM35.6747 16.7062H36.2089V22.0954H35.6747V16.7062ZM36.6613 16.7062H37.1955V22.0954H36.6613V16.7062ZM37.6476 16.7062H38.1824V22.0954H37.6476V16.7062ZM38.6342 16.7062H39.148V22.0954H38.6342V16.7062Z" fill="#23A3C2"/>
<path fill-rule="evenodd" clip-rule="evenodd" d="M33.1798 8.70535H39.6907V15.1721H33.1798V8.70535ZM33.7222 9.24444H34.2357V14.6334H33.7222V9.24444ZM34.6881 9.24444H35.2223V14.6334H34.6881V9.24444ZM35.6747 9.24444H36.2089V14.6334H35.6747V9.24444ZM36.6613 9.24444H37.1955V14.6334H36.6613V9.24444ZM37.6476 9.24444H38.1824V14.6334H37.6476V9.24444ZM38.6342 9.24444H39.148V14.6334H38.6342V9.24444ZM40.6921 16.1671H47.203V22.6342H40.6921V16.1671ZM41.2348 16.7062H41.7483V22.0954H41.2348V16.7062ZM42.2007 16.7062H42.7349V22.0954H42.2007V16.7062ZM43.187 16.7062H43.7212V22.0954H43.187V16.7062ZM44.1736 16.7062H44.7081V22.0954H44.1736V16.7062ZM45.1602 16.7062H45.6947V22.0954H45.1602V16.7062ZM46.1468 16.7062H46.6606V22.0954H46.1468V16.7062Z" fill="#34BBDE"/>
<path fill-rule="evenodd" clip-rule="evenodd" d="M40.6921 8.70535H47.203V15.1721H40.6921V8.70535ZM41.2348 9.24444H41.7483V14.6334H41.2348V9.24444ZM42.2007 9.24444H42.7349V14.6334H42.2007V9.24444ZM43.187 9.24444H43.7212V14.6334H43.187V9.24444ZM44.1736 9.24444H44.7081V14.6334H44.1736V9.24444ZM45.1602 9.24444H45.6947V14.6334H45.1602V9.24444ZM46.1468 9.24444H46.6606V14.6334H46.1468V9.24444Z" fill="#23A3C2"/>
<path fill-rule="evenodd" clip-rule="evenodd" d="M40.6921 1.24329H47.203V7.71104H40.6921V1.24329ZM41.2348 1.78206H41.7483V7.17163H41.2348V1.78206ZM42.2007 1.78206H42.7349V7.17163H42.2007V1.78206ZM43.187 1.78206H43.7212V7.17163H43.187V1.78206ZM44.1736 1.78206H44.7081V7.17163H44.1736V1.78206ZM45.1602 1.78206H45.6947V7.17163H45.1602V1.78206ZM46.1468 1.78206H46.6606V7.17163H46.1468V1.78206Z" fill="#34BBDE"/>
<path fill-rule="evenodd" clip-rule="evenodd" d="M48.2044 16.1671H54.7153V22.6342H48.2044V16.1671ZM48.7465 16.7062H49.2606V22.0954H48.7468L48.7465 16.7062ZM49.7124 16.7062H50.2469V22.0954H49.7127L49.7124 16.7062ZM50.6993 16.7062H51.2338V22.0954H50.6993V16.7062ZM51.6856 16.7062H52.2201V22.0954H51.6856V16.7062ZM52.6725 16.7062H53.2067V22.0954H52.6725V16.7062ZM53.6587 16.7062H54.1726V22.0954H53.6587V16.7062Z" fill="#23A3C2"/>
<path fill-rule="evenodd" clip-rule="evenodd" d="M31.7707 33.1193C32.0086 33.1161 32.2448 33.16 32.4656 33.2482C32.6863 33.3365 32.8872 33.4675 33.0566 33.6335C33.2259 33.7995 33.3604 33.9973 33.4522 34.2154C33.5439 34.4334 33.5911 34.6674 33.5911 34.9038C33.5911 35.1401 33.5437 35.3741 33.4519 35.5922C33.3601 35.8102 33.2255 36.008 33.0561 36.1739C32.8867 36.3399 32.6857 36.4708 32.465 36.5589C32.2442 36.6471 32.008 36.6909 31.7701 36.6876C31.2979 36.6812 30.8472 36.4904 30.5156 36.1564C30.184 35.8224 29.9982 35.3722 29.9982 34.9031C29.9983 34.4341 30.1844 33.9839 30.5161 33.6501C30.8478 33.3162 31.2985 33.1255 31.7707 33.1193Z" fill="#D3ECEC"/>
<path fill-rule="evenodd" clip-rule="evenodd" d="M31.7707 33.6254C31.935 33.6254 32.0917 33.6561 32.2362 33.7119C32.1365 33.7694 32.0586 33.858 32.0146 33.9639C31.9705 34.0698 31.9629 34.1871 31.9927 34.2978C32.0225 34.4084 32.0882 34.5063 32.1796 34.5761C32.271 34.646 32.3831 34.684 32.4984 34.6843C32.6972 34.6843 32.8697 34.575 32.959 34.4132C33.0648 34.6663 33.0858 34.9466 33.019 35.2125C32.9521 35.4785 32.8009 35.716 32.5877 35.89C32.3745 36.064 32.1106 36.1654 31.835 36.179C31.5593 36.1926 31.2866 36.1178 31.0571 35.9656C30.8275 35.8134 30.6534 35.592 30.5603 35.3339C30.4672 35.0759 30.4601 34.795 30.5401 34.5326C30.6201 34.2703 30.7829 34.0405 31.0045 33.8771C31.2261 33.7137 31.4947 33.6255 31.7707 33.6254ZM0 29.422H83.5555C81.7364 28.9639 77.7995 28.3445 78.4487 25.9761C75.1404 29.7784 67.1625 28.6438 65.1489 26.769C62.907 29.999 49.8543 28.771 48.9439 26.2547C46.133 29.5314 37.4232 29.5314 34.6122 26.2547C33.7012 28.771 20.6488 29.999 18.4065 26.7687C16.3933 28.6438 8.41577 29.7784 5.10742 25.9764C5.7566 28.3445 1.81976 28.9636 0 29.422Z" fill="#364548"/>
<path fill-rule="evenodd" clip-rule="evenodd" d="M36.5453 45.9758C32.0969 43.8792 29.6556 41.0287 28.2971 37.9176C26.6446 38.3858 24.6586 38.6854 22.3506 38.814C21.4813 38.8623 20.5667 38.8871 19.6073 38.8871C18.5008 38.8871 17.3349 38.8544 16.1107 38.7902C20.1902 42.8398 25.2085 45.9575 34.5008 46.0143C35.1868 46.0143 35.8675 46.0013 36.5453 45.9758Z" fill="#BDD9D7"/>
<path fill-rule="evenodd" clip-rule="evenodd" d="M29.9493 40.7886C29.334 39.9587 28.737 38.9161 28.2981 37.9172C26.6456 38.3862 24.6589 38.6851 22.3506 38.814C23.9361 39.6686 26.203 40.4609 29.9493 40.7886Z" fill="#D3ECEC"/>
</svg>
