<svg width="47" height="48" viewBox="0 0 47 48" fill="none" xmlns="http://www.w3.org/2000/svg">
<path fill-rule="evenodd" clip-rule="evenodd" d="M0 0H47V48H0V0Z" fill="white"/>
<path fill-rule="evenodd" clip-rule="evenodd" d="M36.377 13.3738C36.1188 13.3738 35.9042 13.5496 35.9042 13.8129C35.9042 14.1202 36.119 14.296 36.377 14.296C36.635 14.296 36.8498 14.1202 36.8498 13.8129C36.85 13.5496 36.6352 13.3738 36.377 13.3738ZM36.377 13.4177C36.4278 13.4175 36.4782 13.4276 36.5253 13.4474C36.5723 13.4671 36.615 13.4963 36.651 13.533C36.6869 13.5697 36.7154 13.6134 36.7347 13.6614C36.7541 13.7094 36.7639 13.7609 36.7637 13.8129C36.7637 14.0763 36.5918 14.2521 36.377 14.2521C36.1188 14.2521 35.9469 14.0763 35.9469 13.8129C35.9471 13.5935 36.119 13.4177 36.377 13.4177ZM36.5918 14.1204L36.4628 13.8569C36.5491 13.8131 36.5918 13.769 36.5918 13.7252C36.5918 13.6373 36.506 13.5496 36.377 13.5496H36.1617V14.1204H36.248V13.901H36.377L36.506 14.1204H36.5918ZM36.248 13.8129V13.6373H36.377C36.4628 13.6373 36.506 13.6811 36.506 13.6811C36.506 13.769 36.4626 13.8129 36.377 13.8129H36.248Z" fill="#0C0E0F"/>
<path fill-rule="evenodd" clip-rule="evenodd" d="M16.8573 34.4508H23.9516V34.3189H16.8573V34.4508Z" fill="#A1C677"/>
<path fill-rule="evenodd" clip-rule="evenodd" d="M16.8573 34.3189H23.9516V34.1871H16.8573V34.3189Z" fill="#A4C67F"/>
<path fill-rule="evenodd" clip-rule="evenodd" d="M16.8573 34.1871H23.9516V34.0116H16.8573V34.1871Z" fill="#A9C983"/>
<path fill-rule="evenodd" clip-rule="evenodd" d="M16.8573 34.0116H23.9516V33.8798H16.8573V34.0116Z" fill="#AECC8B"/>
<path fill-rule="evenodd" clip-rule="evenodd" d="M16.8573 33.8798H23.9516V33.7479H16.8573V33.8798Z" fill="#B1CF92"/>
<path fill-rule="evenodd" clip-rule="evenodd" d="M16.8573 33.7479H23.9516V33.6161H16.8573V33.7479Z" fill="#B6D296"/>
<path fill-rule="evenodd" clip-rule="evenodd" d="M16.8573 33.6161H23.9516V33.4406H16.8573V33.6161Z" fill="#B9D29B"/>
<path fill-rule="evenodd" clip-rule="evenodd" d="M16.8573 33.4406H23.9516V33.3088H16.8573V33.4406Z" fill="#BDD4A0"/>
<path fill-rule="evenodd" clip-rule="evenodd" d="M16.8573 33.3088H23.9516V33.1769H16.8573V33.3088Z" fill="#C4D9A8"/>
<path fill-rule="evenodd" clip-rule="evenodd" d="M16.8573 33.1769H23.9516V33.0456H16.8573V33.1769Z" fill="#C5DAAD"/>
<path fill-rule="evenodd" clip-rule="evenodd" d="M16.8573 33.0456H23.9516V32.8696H16.8573V33.0456Z" fill="#C8DAB2"/>
<path fill-rule="evenodd" clip-rule="evenodd" d="M16.8573 32.8696H23.9516V32.7383H16.8573V32.8696Z" fill="#CEDEB9"/>
<path fill-rule="evenodd" clip-rule="evenodd" d="M16.8573 32.7383H23.9516V32.6064H16.8573V32.7383Z" fill="#D2E0BE"/>
<path fill-rule="evenodd" clip-rule="evenodd" d="M16.8573 32.6064H23.9516V32.4746H16.8573V32.6064Z" fill="#D6E2C4"/>
<path fill-rule="evenodd" clip-rule="evenodd" d="M16.8573 32.4746H23.9516V32.3429H16.8573V32.4746Z" fill="#DAE7CB"/>
<path fill-rule="evenodd" clip-rule="evenodd" d="M16.8573 32.3429H23.9516V32.1673H16.8573V32.3429Z" fill="#DCE8D0"/>
<path fill-rule="evenodd" clip-rule="evenodd" d="M16.8573 32.1673H23.9516V32.0354H16.8573V32.1673Z" fill="#E2EBD6"/>
<path fill-rule="evenodd" clip-rule="evenodd" d="M16.8573 32.0354H23.9516V31.9036H16.8573V32.0354Z" fill="#E5EBDC"/>
<path fill-rule="evenodd" clip-rule="evenodd" d="M16.8573 31.9036H23.9516V31.7719H16.8573V31.9036Z" fill="#ECEEE0"/>
<path fill-rule="evenodd" clip-rule="evenodd" d="M16.8573 31.7719H23.9516V31.5963H16.8573V31.7719Z" fill="#F0F1E8"/>
<path fill-rule="evenodd" clip-rule="evenodd" d="M16.8573 31.5963H23.9516V31.4646H16.8573V31.5963Z" fill="#F2F2EE"/>
<path fill-rule="evenodd" clip-rule="evenodd" d="M16.8573 31.4646H23.9516V31.3331H16.8573V31.4646Z" fill="#F7F8F6"/>
<path fill-rule="evenodd" clip-rule="evenodd" d="M16.8573 31.3331H23.9516V31.2014H16.8573V31.3331Z" fill="white"/>
<path fill-rule="evenodd" clip-rule="evenodd" d="M23.9945 34.2748H24.1237V27.6446H23.9945V34.2748ZM24.1237 34.2748H24.2527V27.6446H24.1237V34.2748Z" fill="#F3D23D"/>
<path fill-rule="evenodd" clip-rule="evenodd" d="M24.2527 34.2748H24.3812V27.6446H24.2527V34.2748Z" fill="#F3D43F"/>
<path fill-rule="evenodd" clip-rule="evenodd" d="M24.3812 34.2748H24.5531V27.6446H24.3812V34.2748Z" fill="#F3D244"/>
<path fill-rule="evenodd" clip-rule="evenodd" d="M24.5531 34.2748H24.6823V27.6446H24.5531V34.2748Z" fill="#F3D44A"/>
<path fill-rule="evenodd" clip-rule="evenodd" d="M24.6823 34.2748H24.8113V27.6446H24.6823V34.2748Z" fill="#F3D44E"/>
<path fill-rule="evenodd" clip-rule="evenodd" d="M24.8113 34.2748H24.9403V27.6446H24.8113V34.2748Z" fill="#F3D552"/>
<path fill-rule="evenodd" clip-rule="evenodd" d="M24.9403 34.2748H25.1122V27.6446H24.9403V34.2748Z" fill="#F2D359"/>
<path fill-rule="evenodd" clip-rule="evenodd" d="M25.1122 34.2748H25.2414V27.6446H25.1122V34.2748Z" fill="#F1D65C"/>
<path fill-rule="evenodd" clip-rule="evenodd" d="M25.2414 34.2748H25.3704V27.6446H25.2414V34.2748Z" fill="#F4D760"/>
<path fill-rule="evenodd" clip-rule="evenodd" d="M25.3704 34.2748H25.4994V27.6446H25.3704V34.2748Z" fill="#F2DA67"/>
<path fill-rule="evenodd" clip-rule="evenodd" d="M25.4994 34.2748H25.6284V27.6446H25.4994V34.2748Z" fill="#F2DA6B"/>
<path fill-rule="evenodd" clip-rule="evenodd" d="M25.6284 34.2748H25.8003V27.6446H25.6284V34.2748Z" fill="#F5DB6F"/>
<path fill-rule="evenodd" clip-rule="evenodd" d="M25.8003 34.2748H25.9291V27.6446H25.8003V34.2748Z" fill="#F6DD72"/>
<path fill-rule="evenodd" clip-rule="evenodd" d="M25.9291 34.2748H26.058V27.6446H25.9291V34.2748Z" fill="#F5DC77"/>
<path fill-rule="evenodd" clip-rule="evenodd" d="M26.058 34.2748H26.187V27.6446H26.058V34.2748Z" fill="#F5DC7B"/>
<path fill-rule="evenodd" clip-rule="evenodd" d="M26.187 34.2748H26.3592V27.6446H26.187V34.2748Z" fill="#F5DC7F"/>
<path fill-rule="evenodd" clip-rule="evenodd" d="M26.3592 34.2748H26.4882V27.6446H26.3592V34.2748Z" fill="#F5DC80"/>
<path fill-rule="evenodd" clip-rule="evenodd" d="M26.4882 34.2748H26.6171V27.6446H26.4882V34.2748Z" fill="#F5DD84"/>
<path fill-rule="evenodd" clip-rule="evenodd" d="M26.6171 34.2748H26.7461V27.6446H26.6171V34.2748Z" fill="#F5DF88"/>
<path fill-rule="evenodd" clip-rule="evenodd" d="M26.7461 34.2748H26.918V27.6446H26.7461V34.2748Z" fill="#F5DF8B"/>
<path fill-rule="evenodd" clip-rule="evenodd" d="M26.918 34.2748H27.0473V27.6446H26.918V34.2748Z" fill="#F5DF8D"/>
<path fill-rule="evenodd" clip-rule="evenodd" d="M27.0473 34.2748H27.1762V27.6446H27.0473V34.2748Z" fill="#F4E08E"/>
<path fill-rule="evenodd" clip-rule="evenodd" d="M27.1762 34.2748H27.3052V27.6446H27.1762V34.2748Z" fill="#F6E193"/>
<path fill-rule="evenodd" clip-rule="evenodd" d="M27.3052 34.2748H27.434V27.6446H27.3052V34.2748Z" fill="#F4E297"/>
<path fill-rule="evenodd" clip-rule="evenodd" d="M27.434 34.2748H27.6059V27.6446H27.434V34.2748Z" fill="#F7E69B"/>
<path fill-rule="evenodd" clip-rule="evenodd" d="M27.6059 34.2748H27.7349V27.6446H27.6059V34.2748Z" fill="#F7E69D"/>
<path fill-rule="evenodd" clip-rule="evenodd" d="M27.7349 34.2748H27.8639V27.6446H27.7349V34.2748Z" fill="#F7E6A0"/>
<path fill-rule="evenodd" clip-rule="evenodd" d="M27.8639 34.2748H27.9931V27.6446H27.8639V34.2748Z" fill="#F7E6A4"/>
<path fill-rule="evenodd" clip-rule="evenodd" d="M27.9931 34.2748H28.165V27.6446H27.9931V34.2748Z" fill="#F7E7A8"/>
<path fill-rule="evenodd" clip-rule="evenodd" d="M28.165 34.2748H28.294V27.6446H28.165V34.2748Z" fill="#F7E7AB"/>
<path fill-rule="evenodd" clip-rule="evenodd" d="M28.294 34.2748H28.423V27.6446H28.294V34.2748Z" fill="#F7E7AD"/>
<path fill-rule="evenodd" clip-rule="evenodd" d="M28.423 34.2748H28.5522V27.6446H28.423V34.2748Z" fill="#FAE9B1"/>
<path fill-rule="evenodd" clip-rule="evenodd" d="M28.5522 34.2748H28.6812V27.6446H28.5522V34.2748Z" fill="#F7E7B4"/>
<path fill-rule="evenodd" clip-rule="evenodd" d="M28.6812 34.2748H28.8531V27.6446H28.6812V34.2748Z" fill="#F7E8B6"/>
<path fill-rule="evenodd" clip-rule="evenodd" d="M28.8531 34.2748H28.9816V27.6446H28.8531V34.2748Z" fill="#F7E8B8"/>
<path fill-rule="evenodd" clip-rule="evenodd" d="M28.9816 34.2748H29.1108V27.6446H28.9816V34.2748Z" fill="#F7E8BC"/>
<path fill-rule="evenodd" clip-rule="evenodd" d="M29.1108 34.2748H29.2398V27.6446H29.1108V34.2748Z" fill="#F7E8BF"/>
<path fill-rule="evenodd" clip-rule="evenodd" d="M29.2398 34.2748H29.4117V27.6446H29.2398V34.2748Z" fill="#F7EAC4"/>
<path fill-rule="evenodd" clip-rule="evenodd" d="M29.4117 34.2748H29.5407V27.6446H29.4117V34.2748Z" fill="#F7EBC5"/>
<path fill-rule="evenodd" clip-rule="evenodd" d="M29.5407 34.2748H29.6699V27.6446H29.5407V34.2748Z" fill="#F7EBC7"/>
<path fill-rule="evenodd" clip-rule="evenodd" d="M29.6699 34.2748H29.7989V27.6446H29.6699V34.2748Z" fill="#F8EDCC"/>
<path fill-rule="evenodd" clip-rule="evenodd" d="M29.7989 34.2748H29.9279V27.6446H29.7989V34.2748Z" fill="#FBEFD0"/>
<path fill-rule="evenodd" clip-rule="evenodd" d="M29.9279 34.2748H30.0998V27.6446H29.9279V34.2748Z" fill="#F8EFD2"/>
<path fill-rule="evenodd" clip-rule="evenodd" d="M30.0998 34.2748H30.229V27.6446H30.0998V34.2748Z" fill="#F8F0D6"/>
<path fill-rule="evenodd" clip-rule="evenodd" d="M30.229 34.2748H30.3575V27.6446H30.229V34.2748Z" fill="#F8F0D9"/>
<path fill-rule="evenodd" clip-rule="evenodd" d="M30.3575 34.2748H30.4865V27.6446H30.3575V34.2748Z" fill="#F8F0DB"/>
<path fill-rule="evenodd" clip-rule="evenodd" d="M30.4865 34.2748H30.6584V27.6446H30.4865V34.2748Z" fill="#F8F0DF"/>
<path fill-rule="evenodd" clip-rule="evenodd" d="M30.6584 34.2748H30.7876V27.6446H30.6584V34.2748Z" fill="#F9F3E4"/>
<path fill-rule="evenodd" clip-rule="evenodd" d="M30.7876 34.2748H30.9166V27.6446H30.7876V34.2748Z" fill="#F9F3E6"/>
<path fill-rule="evenodd" clip-rule="evenodd" d="M30.9166 34.2748H31.0456V27.6446H30.9166V34.2748Z" fill="#F9F3E9"/>
<path fill-rule="evenodd" clip-rule="evenodd" d="M31.0456 34.2748H31.2175V27.6446H31.0456V34.2748Z" fill="#F9F6EB"/>
<path fill-rule="evenodd" clip-rule="evenodd" d="M31.2175 34.2748H31.3467V27.6446H31.2175V34.2748Z" fill="#F9F6EE"/>
<path fill-rule="evenodd" clip-rule="evenodd" d="M31.3467 34.2748H31.4757V27.6446H31.3467V34.2748Z" fill="#F9F6F0"/>
<path fill-rule="evenodd" clip-rule="evenodd" d="M31.4757 34.2748H31.6047V27.6446H31.4757V34.2748Z" fill="#FAF9F4"/>
<path fill-rule="evenodd" clip-rule="evenodd" d="M31.6047 34.2748H31.7335V27.6446H31.6047V34.2748Z" fill="#FFFFFB"/>
<path fill-rule="evenodd" clip-rule="evenodd" d="M31.7335 34.2748H31.9059V27.6446H31.7335V34.2748Z" fill="white"/>
<path fill-rule="evenodd" clip-rule="evenodd" d="M11.0531 22.551H17.2443V22.3754H11.1819L11.0531 22.551Z" fill="#769FD2"/>
<path fill-rule="evenodd" clip-rule="evenodd" d="M10.9239 22.6827H17.2443V22.551H11.0531L10.9239 22.6827Z" fill="#76A1D3"/>
<path fill-rule="evenodd" clip-rule="evenodd" d="M10.7949 22.8144H17.2443L17.2443 22.6827H10.9239L10.7949 22.8144Z" fill="#7AA2D3"/>
<path fill-rule="evenodd" clip-rule="evenodd" d="M10.6662 22.9461H17.2443L17.2443 22.8144H10.7949L10.6662 22.9461Z" fill="#7CA3D3"/>
<path fill-rule="evenodd" clip-rule="evenodd" d="M10.5369 23.122H17.2443L17.2443 22.9461H10.6662L10.5369 23.122Z" fill="#80A4D1"/>
<path fill-rule="evenodd" clip-rule="evenodd" d="M10.408 23.2534H17.2443L17.2443 23.122H10.5369L10.408 23.2534Z" fill="#80A4D1"/>
<path fill-rule="evenodd" clip-rule="evenodd" d="M10.279 23.3854H17.2443V23.2534H10.408L10.279 23.3854Z" fill="#80A3D0"/>
<path fill-rule="evenodd" clip-rule="evenodd" d="M10.15 23.5169H17.2443L17.2443 23.3854H10.279L10.15 23.5169ZM10.0212 23.6927H17.2443V23.5169H10.15L10.0212 23.6927Z" fill="#84A6D1"/>
<path fill-rule="evenodd" clip-rule="evenodd" d="M9.89225 23.8244H17.2443L17.2443 23.6927H10.0212L9.89225 23.8244Z" fill="#88A9D2"/>
<path fill-rule="evenodd" clip-rule="evenodd" d="M9.76326 23.9559H17.2443L17.2443 23.8244H9.89225L9.76326 23.9559Z" fill="#8AABD5"/>
<path fill-rule="evenodd" clip-rule="evenodd" d="M9.63403 24.0877H17.2443V23.9559H9.76326L9.63403 24.0877Z" fill="#8CACD5"/>
<path fill-rule="evenodd" clip-rule="evenodd" d="M9.5482 24.2196H17.2443L17.2443 24.0877H9.63403L9.5482 24.2196Z" fill="#8DAED9"/>
<path fill-rule="evenodd" clip-rule="evenodd" d="M9.41921 24.3952H17.2443V24.2196H9.5482L9.41921 24.3952Z" fill="#8FAFD9"/>
<path fill-rule="evenodd" clip-rule="evenodd" d="M9.29023 24.5269H17.2443V24.3952H9.41921L9.29023 24.5269Z" fill="#91AFD7"/>
<path fill-rule="evenodd" clip-rule="evenodd" d="M9.16124 24.6587H17.2443V24.5269H9.29023L9.16124 24.6587Z" fill="#93B0D9"/>
<path fill-rule="evenodd" clip-rule="evenodd" d="M9.03225 24.7906H17.2443L17.2443 24.6587H9.16124L9.03225 24.7906Z" fill="#96B4D9"/>
<path fill-rule="evenodd" clip-rule="evenodd" d="M8.90327 24.9662H17.2443L17.2443 24.7906H9.03225L8.90327 24.9662Z" fill="#9AB5DA"/>
<path fill-rule="evenodd" clip-rule="evenodd" d="M8.77428 25.0979H17.2443V24.9662H8.90327L8.77428 25.0979Z" fill="#9BB6DA"/>
<path fill-rule="evenodd" clip-rule="evenodd" d="M8.64529 25.2297H17.2443V25.0979H8.77428L8.64529 25.2297Z" fill="#9DB6DA"/>
<path fill-rule="evenodd" clip-rule="evenodd" d="M8.51631 25.3611H17.2443L17.2443 25.2297H8.64529L8.51631 25.3611Z" fill="#9FB7DA"/>
<path fill-rule="evenodd" clip-rule="evenodd" d="M8.43023 25.5367H17.2443V25.3611H8.51631L8.43023 25.4929V25.5367Z" fill="#A2BBDD"/>
<path fill-rule="evenodd" clip-rule="evenodd" d="M8.43023 25.6684H17.2443V25.5367H8.43023V25.6684Z" fill="#A3BADC"/>
<path fill-rule="evenodd" clip-rule="evenodd" d="M8.43023 25.8002H17.2443V25.6684H8.43023V25.8002Z" fill="#A4BDDE"/>
<path fill-rule="evenodd" clip-rule="evenodd" d="M8.43023 25.9321H17.2443V25.8002H8.43023V25.9321Z" fill="#A8BDDD"/>
<path fill-rule="evenodd" clip-rule="evenodd" d="M8.43023 26.0639H17.2443V25.9321H8.43023V26.0639Z" fill="#A8BFDE"/>
<path fill-rule="evenodd" clip-rule="evenodd" d="M8.43023 26.2394H17.2443V26.0639H8.43023V26.2394Z" fill="#AAC0DE"/>
<path fill-rule="evenodd" clip-rule="evenodd" d="M8.43023 26.3712H17.2443V26.2394H8.43023V26.3712ZM8.43023 26.5031H17.2443V26.3712H8.43023V26.5031Z" fill="#AEC3E2"/>
<path fill-rule="evenodd" clip-rule="evenodd" d="M8.43023 26.6344H17.2443V26.5031H8.43023V26.6344Z" fill="#B1C5E3"/>
<path fill-rule="evenodd" clip-rule="evenodd" d="M8.43023 26.8104H17.2443V26.6344H8.43023V26.8104Z" fill="#B3C6E4"/>
<path fill-rule="evenodd" clip-rule="evenodd" d="M8.43023 26.9422H17.2443V26.8104H8.43023V26.9422Z" fill="#B5C9E5"/>
<path fill-rule="evenodd" clip-rule="evenodd" d="M8.43023 27.0737H17.2443V26.9422H8.43023V27.0737Z" fill="#B7C9E5"/>
<path fill-rule="evenodd" clip-rule="evenodd" d="M8.43023 27.2054H17.2443V27.0737H8.43023V27.2054Z" fill="#B9C9E4"/>
<path fill-rule="evenodd" clip-rule="evenodd" d="M8.43023 27.3809H17.2443V27.2054H8.43023V27.3809Z" fill="#BBCBE3"/>
<path fill-rule="evenodd" clip-rule="evenodd" d="M8.43023 27.5127H17.2443V27.3371H8.43023V27.5127Z" fill="#BDCCE3"/>
<path fill-rule="evenodd" clip-rule="evenodd" d="M8.43023 27.6446H17.2443V27.5127H8.43023V27.6446Z" fill="#C0CEE5"/>
<path fill-rule="evenodd" clip-rule="evenodd" d="M8.43023 27.7764H17.2443V27.6446H8.43023V27.7764ZM8.43023 27.9081H17.2443V27.7764H8.43023V27.9081Z" fill="#C4D0E5"/>
<path fill-rule="evenodd" clip-rule="evenodd" d="M8.43023 28.0837H17.2443V27.9081H8.43023V28.0837Z" fill="#C6D3E6"/>
<path fill-rule="evenodd" clip-rule="evenodd" d="M8.43023 28.2156H17.2443V28.0837H8.43023V28.2156ZM8.43023 28.3469H17.2443V28.2156H8.43023V28.3469Z" fill="#C9D5E8"/>
<path fill-rule="evenodd" clip-rule="evenodd" d="M8.43023 28.4786H17.2443V28.3469H8.43023V28.4786Z" fill="#CCD8E9"/>
<path fill-rule="evenodd" clip-rule="evenodd" d="M8.43023 28.6542H17.2443V28.4786H8.43023V28.6542Z" fill="#CDD7EB"/>
<path fill-rule="evenodd" clip-rule="evenodd" d="M8.43023 28.7862H17.2443V28.6542H8.43023V28.7862Z" fill="#D0DCED"/>
<path fill-rule="evenodd" clip-rule="evenodd" d="M8.43023 28.9179H17.2443V28.7862H8.43023V28.9179Z" fill="#D2DDED"/>
<path fill-rule="evenodd" clip-rule="evenodd" d="M8.43023 29.0496H17.2443V28.9179H8.43023V29.0496Z" fill="#D4DEEE"/>
<path fill-rule="evenodd" clip-rule="evenodd" d="M8.43023 29.1816H17.2443V29.0496H8.43023V29.1816Z" fill="#D6DFF1"/>
<path fill-rule="evenodd" clip-rule="evenodd" d="M8.43023 29.3572H17.2443V29.1816H8.43023V29.3572Z" fill="#D7E0EF"/>
<path fill-rule="evenodd" clip-rule="evenodd" d="M8.43023 29.4889H17.2443V29.3572H8.43023V29.4889Z" fill="#DBE2ED"/>
<path fill-rule="evenodd" clip-rule="evenodd" d="M8.43023 29.6206H17.2443V29.4889H8.43023V29.6206Z" fill="#DEE3ED"/>
<path fill-rule="evenodd" clip-rule="evenodd" d="M8.43023 29.7521H17.2443V29.6206H8.43023V29.7521Z" fill="#E0E6EF"/>
<path fill-rule="evenodd" clip-rule="evenodd" d="M8.43023 29.9282H17.2443V29.7521H8.43023V29.9282ZM8.43023 30.0594H17.2443V29.9282H8.43023V30.0594Z" fill="#E2E7EF"/>
<path fill-rule="evenodd" clip-rule="evenodd" d="M8.43023 30.1911H17.2443V30.0594H8.43023V30.1911Z" fill="#E5E8EF"/>
<path fill-rule="evenodd" clip-rule="evenodd" d="M8.43023 30.3231H17.2443V30.1911H8.43023V30.3231Z" fill="#E7EBF0"/>
<path fill-rule="evenodd" clip-rule="evenodd" d="M8.43023 30.4987H17.2443V30.3231H8.43023V30.4987Z" fill="#EAECF1"/>
<path fill-rule="evenodd" clip-rule="evenodd" d="M8.43023 30.6304H17.2443V30.4987H8.43023V30.6304ZM8.43023 30.7621H17.2443V30.6304H8.43023V30.7621Z" fill="#ECEFF2"/>
<path fill-rule="evenodd" clip-rule="evenodd" d="M8.43023 30.8939H17.2443V30.7621H8.43023V30.8939ZM8.43023 31.0258H17.2443V30.8939H8.43023V31.0258Z" fill="#F2F3F4"/>
<path fill-rule="evenodd" clip-rule="evenodd" d="M8.43023 31.2014H17.2443V31.0258H8.43023V31.2014Z" fill="#F4F4F7"/>
<path fill-rule="evenodd" clip-rule="evenodd" d="M8.43023 31.3331H17.2443V31.2014H8.43023V31.3331Z" fill="#F7F8F8"/>
<path fill-rule="evenodd" clip-rule="evenodd" d="M8.43023 31.4646H17.2443V31.3331H8.43023V31.4646Z" fill="#FBFDFF"/>
<path fill-rule="evenodd" clip-rule="evenodd" d="M8.43023 31.5963H17.2443V31.4646H8.43023V31.5963Z" fill="white"/>
<path fill-rule="evenodd" clip-rule="evenodd" d="M32.2067 22.551H38.6988V22.3754H32.2067V22.551Z" fill="#DA884E"/>
<path fill-rule="evenodd" clip-rule="evenodd" d="M32.2067 22.6827H38.6988V22.551H32.2067V22.6827Z" fill="#DB8A51"/>
<path fill-rule="evenodd" clip-rule="evenodd" d="M32.2067 22.8144H38.6988V22.6827H32.2067V22.8144Z" fill="#DA8F56"/>
<path fill-rule="evenodd" clip-rule="evenodd" d="M32.2067 22.9461H38.6988V22.8144H32.2067V22.9461Z" fill="#DB925D"/>
<path fill-rule="evenodd" clip-rule="evenodd" d="M32.2067 23.122H38.6988V22.9461H32.2067V23.122Z" fill="#DB9461"/>
<path fill-rule="evenodd" clip-rule="evenodd" d="M32.2067 23.2534H38.6988V23.122H32.2067V23.2534Z" fill="#DC9865"/>
<path fill-rule="evenodd" clip-rule="evenodd" d="M32.2067 23.3854H38.6988V23.2534H32.2067V23.3854Z" fill="#DF9B68"/>
<path fill-rule="evenodd" clip-rule="evenodd" d="M32.2067 23.5169H38.6988V23.3854H32.2067V23.5169Z" fill="#E39D6D"/>
<path fill-rule="evenodd" clip-rule="evenodd" d="M32.2067 23.6927H38.6988V23.5169H32.2067V23.6927Z" fill="#E09F73"/>
<path fill-rule="evenodd" clip-rule="evenodd" d="M32.2067 23.8244H38.6988V23.6927H32.2067V23.8244Z" fill="#E2A475"/>
<path fill-rule="evenodd" clip-rule="evenodd" d="M32.2067 23.9559H38.6988V23.8244H32.2067V23.9559Z" fill="#E0A779"/>
<path fill-rule="evenodd" clip-rule="evenodd" d="M32.2067 24.0877H38.6988V23.9559H32.2067V24.0877Z" fill="#E1A97B"/>
<path fill-rule="evenodd" clip-rule="evenodd" d="M32.2067 24.2196H38.6988V24.0877H32.2067V24.2196Z" fill="#E1AB80"/>
<path fill-rule="evenodd" clip-rule="evenodd" d="M32.2067 24.3952H38.6988V24.2196H32.2067V24.3952Z" fill="#E3AF86"/>
<path fill-rule="evenodd" clip-rule="evenodd" d="M32.2067 24.5269H38.6988V24.3952H32.2067V24.5269Z" fill="#E3B188"/>
<path fill-rule="evenodd" clip-rule="evenodd" d="M32.2067 24.6587H38.6988V24.5269H32.2067V24.6587Z" fill="#E6B48D"/>
<path fill-rule="evenodd" clip-rule="evenodd" d="M32.2067 24.7906H38.6988V24.6587H32.2067V24.7906Z" fill="#E7B892"/>
<path fill-rule="evenodd" clip-rule="evenodd" d="M32.2067 24.9662H38.6988V24.7906H32.2067V24.9662Z" fill="#E9BE96"/>
<path fill-rule="evenodd" clip-rule="evenodd" d="M32.2067 25.0979H38.6988V24.9662H32.2067V25.0979Z" fill="#E7C09B"/>
<path fill-rule="evenodd" clip-rule="evenodd" d="M32.2067 25.2297H38.6988V25.0979H32.2067V25.2297Z" fill="#E8C29E"/>
<path fill-rule="evenodd" clip-rule="evenodd" d="M32.2067 25.3611H38.6988V25.2297H32.2067V25.3611Z" fill="#E8C4A2"/>
<path fill-rule="evenodd" clip-rule="evenodd" d="M32.2067 25.5367H38.6988V25.3611H32.2067V25.5367Z" fill="#EAC8A8"/>
<path fill-rule="evenodd" clip-rule="evenodd" d="M32.2067 25.6684H38.6988V25.5367H32.2067V25.6684Z" fill="#EBCCAD"/>
<path fill-rule="evenodd" clip-rule="evenodd" d="M32.2067 25.8002H38.6988V25.6684H32.2067V25.8002Z" fill="#EBCEB0"/>
<path fill-rule="evenodd" clip-rule="evenodd" d="M32.2067 25.9321H38.6988V25.8002H32.2067V25.9321Z" fill="#ECD0B4"/>
<path fill-rule="evenodd" clip-rule="evenodd" d="M32.2067 26.0639H38.6988V25.9321H32.2067V26.0639Z" fill="#EFD3B7"/>
<path fill-rule="evenodd" clip-rule="evenodd" d="M32.2067 26.2394H38.6988V26.0639H32.2067V26.2394Z" fill="#F3D7BD"/>
<path fill-rule="evenodd" clip-rule="evenodd" d="M32.2067 26.3712H38.6988V26.2394H32.2067V26.3712Z" fill="#F4D9C1"/>
<path fill-rule="evenodd" clip-rule="evenodd" d="M32.2067 26.5031H38.6988V26.3712H32.2067V26.5031Z" fill="#F2DCC6"/>
<path fill-rule="evenodd" clip-rule="evenodd" d="M32.2067 26.6344H38.6988V26.5031H32.2067V26.6344Z" fill="#F0DFCB"/>
<path fill-rule="evenodd" clip-rule="evenodd" d="M32.2067 26.8104H38.6988V26.6344H32.2067V26.8104Z" fill="#F1E1CE"/>
<path fill-rule="evenodd" clip-rule="evenodd" d="M32.2067 26.9422H38.6988V26.8104H32.2067V26.9422Z" fill="#F2E5D6"/>
<path fill-rule="evenodd" clip-rule="evenodd" d="M32.2067 27.0737H38.6988V26.9422H32.2067V27.0737Z" fill="#F3E7DA"/>
<path fill-rule="evenodd" clip-rule="evenodd" d="M32.2067 27.2054H38.6988V27.0737H32.2067V27.2054Z" fill="#F3E9DF"/>
<path fill-rule="evenodd" clip-rule="evenodd" d="M32.2067 27.3809H38.6988V27.2054H32.2067V27.3809Z" fill="#F4EEE3"/>
<path fill-rule="evenodd" clip-rule="evenodd" d="M32.2067 27.5127H38.6988V27.3371H32.2067V27.5127Z" fill="#F4EEE7"/>
<path fill-rule="evenodd" clip-rule="evenodd" d="M32.2067 27.6446H38.6988V27.5127H32.2067V27.6446Z" fill="#F5F0EA"/>
<path fill-rule="evenodd" clip-rule="evenodd" d="M32.2067 27.7764H38.6988V27.6446H32.2067V27.7764Z" fill="#F9F6F0"/>
<path fill-rule="evenodd" clip-rule="evenodd" d="M32.2067 27.9081H38.6988V27.7764H32.2067V27.9081Z" fill="#F9F6F4"/>
<path fill-rule="evenodd" clip-rule="evenodd" d="M32.2067 28.0837H38.6988V27.9081H32.2067V28.0837Z" fill="white"/>
<path fill-rule="evenodd" clip-rule="evenodd" d="M32.2067 31.4208C31.3467 33.397 30.1856 34.2748 28.3369 34.2748C26.832 34.2748 25.3704 33.397 24.7255 32.0794C24.2954 31.1573 24.1235 30.3669 24.1235 28.6987H34.4849C34.4849 26.7664 34.27 25.581 33.7109 24.3516C32.7222 22.1122 30.7445 20.8387 28.2937 20.8387C24.381 20.8387 21.6725 23.9562 21.6725 28.567C21.6725 33.0897 24.2951 36.1193 28.2074 36.1193C31.088 36.1193 33.324 34.5385 34.2271 31.8601L32.2067 31.4208ZM24.2527 26.986C24.3812 25.5808 24.6394 24.878 25.2414 24.0877C26.0583 23.1217 27.0902 22.551 28.3369 22.551C30.6157 22.551 31.9914 24.2196 32.0778 26.986H24.2527ZM44.7611 34.1871C43.9872 34.3189 43.5571 34.3627 43.0409 34.3627C41.5365 34.3627 40.7621 33.6161 40.7621 32.0792V17.3696L38.5695 17.4575V31.7281C38.5695 34.67 39.9455 36.1629 42.6542 36.1629C43.2991 36.1629 43.7719 36.119 44.7611 35.9873V34.1871ZM0.691019 33.7479C0.691019 32.4746 1.68 31.4644 2.92671 31.4644C4.17342 31.4644 5.1624 32.4746 5.1624 33.7479C5.1624 35.0211 4.17342 36.0314 2.92671 36.0314C1.68 36.0314 0.691019 35.0214 0.691019 33.7479ZM18.3191 36.119V27.118C18.3191 25.0539 18.1469 23.9562 17.8463 23.2537C17.0724 21.6291 15.5245 20.6191 13.6758 20.6191C11.741 20.6191 10.5803 21.3656 9.11833 23.6927V21.0143H7.09745V36.119H9.29023V27.5565C9.29023 24.7025 10.9668 22.551 13.2886 22.551C15.1802 22.551 16.2121 23.8244 16.2121 26.1956V36.119H18.3191Z" fill="#0C0E0F"/>
<path fill-rule="evenodd" clip-rule="evenodd" d="M28.2511 20.8384H44.2879V22.551H28.2511V20.8384ZM18.1043 34.4065H28.3369V36.0752H18.1043V34.4065ZM6.62442 18.0723V11.9686H5.50645L3.74379 16.8427L1.93797 11.9686H0.863164V18.0723H1.46518V12.7152L3.4429 18.0723H3.95885L5.89365 12.7152V18.0723H6.62442ZM8.08643 18.0723H8.77428V13.5496H8.08643V18.0723ZM8.08643 12.7152H8.81744V11.9686H8.08643V12.7152ZM12.7726 16.4916C12.6436 17.2381 12.2567 17.6331 11.6978 17.6331C10.9668 17.6331 10.5369 16.9306 10.5369 15.7888C10.5369 14.6912 11.0097 13.9887 11.741 13.9887C12.2998 13.9887 12.6868 14.3839 12.7726 15.1302L13.4176 14.9984C13.2457 13.9884 12.6436 13.4177 11.741 13.4177C10.5801 13.4177 9.80617 14.3836 9.80617 15.7888C9.80617 17.2379 10.5372 18.16 11.6978 18.16C12.1709 18.16 12.5578 18.0283 12.9019 17.6769C13.1598 17.4134 13.2888 17.15 13.4178 16.5792L12.7726 16.4916ZM15.0515 18.0723V15.6573C15.0944 14.7352 15.7393 14.0327 16.5564 14.1204V13.4179H16.2984C15.9973 13.4179 15.6535 13.5937 15.4384 13.8131C15.3095 14.0327 15.2234 14.1645 15.0086 14.6035V13.5499H14.4065V18.0726L15.0515 18.0723ZM18.8779 13.4177C18.233 13.4177 17.717 13.6811 17.3301 14.2081C17.0292 14.6032 16.8573 15.1302 16.8573 15.7888C16.8573 16.4475 16.9863 16.9744 17.2872 17.4134C17.6312 17.9404 18.1043 18.16 18.7921 18.16C19.9961 18.16 20.813 17.194 20.813 15.8327C20.8127 14.4277 20.0391 13.4177 18.8779 13.4177ZM18.835 13.9887C19.1791 13.9887 19.5229 14.2081 19.7379 14.4715C19.953 14.7791 20.082 15.2181 20.082 15.7888C20.082 16.9303 19.6092 17.6331 18.835 17.6331C18.0611 17.6331 17.5881 16.9306 17.5881 15.7888C17.5881 15.2619 17.717 14.7791 17.8889 14.5153C18.1043 14.2081 18.491 13.9887 18.835 13.9887ZM21.2858 16.8865C21.3718 17.2817 21.5006 17.5013 21.7588 17.6769C22.1026 18.0283 22.6185 18.16 23.2635 18.16C24.3383 18.16 25.0693 17.6331 25.0693 16.7989C25.0693 16.0523 24.6392 15.6133 23.7363 15.4815L22.8765 15.3057C22.3606 15.2178 22.1455 14.9984 22.1455 14.6912C22.1455 14.2521 22.5325 13.9887 23.1345 13.9887C23.6504 13.9887 24.0374 14.2081 24.2525 14.7352L24.8974 14.5597C24.6392 13.8131 24.0374 13.4179 23.1345 13.4179C22.1026 13.4179 21.4577 13.9448 21.4577 14.7352C21.4577 15.3939 21.8875 15.877 22.6615 16.0085L23.6073 16.1843C24.0801 16.2722 24.3383 16.5356 24.3383 16.8868C24.3383 17.3258 23.9082 17.6333 23.3064 17.6333C22.8765 17.6333 22.4896 17.5016 22.2316 17.2822C22.1026 17.1505 22.0165 17.0185 21.9307 16.7553L21.2858 16.8865ZM27.7783 13.4177C27.1331 13.4177 26.6171 13.6811 26.1873 14.2081C25.8864 14.6032 25.7145 15.1302 25.7145 15.7888C25.7145 16.4475 25.8864 16.9744 26.1446 17.4134C26.5313 17.9404 27.0041 18.16 27.6495 18.16C28.8536 18.16 29.6702 17.194 29.6702 15.8327C29.6699 14.4277 28.9389 13.4177 27.7783 13.4177ZM27.692 13.9887C28.0792 13.9887 28.423 14.2081 28.6378 14.4715C28.8531 14.7791 28.9387 15.2181 28.9387 15.7888C28.9387 16.9303 28.4659 17.6331 27.692 17.6331C26.918 17.6331 26.4879 16.9306 26.4879 15.7888C26.4879 15.2619 26.5742 14.7791 26.7888 14.5153C26.9609 14.2081 27.3482 13.9887 27.692 13.9887ZM31.5187 13.5496C31.5187 13.0668 31.5186 13.0227 31.605 12.8472C31.6908 12.5399 31.9917 12.4081 32.4218 12.4081C32.5937 12.4081 32.68 12.4081 32.8519 12.452V11.8812C32.551 11.8374 32.3791 11.8374 32.207 11.8374C31.6479 11.8374 31.1751 12.1009 31.0029 12.5399C30.9166 12.8033 30.9166 12.9789 30.874 13.5499H30.1V14.1207H30.874V18.0726H31.5189V14.1207H32.5937V13.5496H31.5187ZM35.7323 17.5892C35.517 17.6331 35.3451 17.6331 35.2161 17.6331C34.7433 17.6331 34.4851 17.4137 34.4851 16.9306V14.1204H35.4743V13.5496H34.4851V12.3641L33.8402 12.4079L33.7973 13.5494H33.0233V14.1202H33.7973V16.8427C33.7973 17.7207 34.2274 18.2038 35.0869 18.2038C35.2588 18.2038 35.4312 18.16 35.7321 18.16L35.7323 17.5892ZM45.0623 21.7606V20.9264H45.3198V20.8384H44.6751V20.9264H44.933V21.7606H45.0623ZM46.309 21.7606V20.8384H46.0937L45.8359 21.585L45.578 20.8384H45.4061V21.7606H45.5351V20.9702L45.8359 21.7606H45.8789L46.18 20.9702V21.7606H46.309Z" fill="#0C0E0F"/>
</svg>
