<svg width="60" height="34" viewBox="0 0 60 34" fill="none" xmlns="http://www.w3.org/2000/svg">
<path d="M0.95752 20.3296V13.3258L25.7973 0.340454V6.7745L7.4502 16.6999L25.8015 26.8264V33.3191L0.95752 20.3296ZM59.2116 1.73114L37.5365 31.9682H30.095L51.812 1.72905L59.2116 1.73114ZM53.2069 28.347C53.4526 28.3517 53.6963 28.302 53.9204 28.2013C54.1446 28.1006 54.3437 27.9515 54.5033 27.7647C54.8631 27.3372 55.0485 26.7898 55.0227 26.2316C55.0437 25.6607 54.8594 25.1012 54.5033 24.6545C54.3531 24.4594 54.16 24.3014 53.9391 24.1927C53.7181 24.0839 53.4751 24.0274 53.2289 24.0274C52.9826 24.0274 52.7396 24.0839 52.5187 24.1927C52.2977 24.3014 52.1047 24.4594 51.9544 24.6545C51.5984 25.1012 51.4141 25.6607 51.435 26.2316C51.4086 26.786 51.5851 27.331 51.9314 27.7647C52.0857 27.9524 52.2808 28.1023 52.5019 28.2032C52.7229 28.3041 52.964 28.3533 53.2069 28.347ZM57.7853 30.5294C56.5351 31.6593 54.9089 32.2831 53.2238 32.2792C51.5387 32.2754 49.9154 31.6441 48.6704 30.5084C48.0976 29.9496 47.6425 29.2819 47.3317 28.5445C47.0209 27.8071 46.8608 27.015 46.8608 26.2149C46.8608 25.4147 47.0209 24.6226 47.3317 23.8852C47.6425 23.1478 48.0976 22.4801 48.6704 21.9213C49.9149 20.7823 51.5408 20.1506 53.2278 20.1506C54.9149 20.1506 56.5408 20.7823 57.7853 21.9213C58.3692 22.4737 58.832 23.1412 59.1446 23.8817C59.4571 24.6222 59.6126 25.4196 59.6011 26.2232C59.6166 27.0267 59.4631 27.8244 59.1506 28.5647C58.8382 29.3051 58.3737 29.9715 57.7874 30.521L57.7853 30.5294ZM36.1877 10.6722C36.4334 10.677 36.6771 10.6272 36.9012 10.5265C37.1254 10.4259 37.3245 10.2768 37.4841 10.09C37.8438 9.6624 38.0293 9.11501 38.0035 8.55684C38.0245 7.98596 37.8402 7.42647 37.4841 6.97975C37.3336 6.78499 37.1405 6.62732 36.9196 6.51883C36.6986 6.41035 36.4558 6.35394 36.2097 6.35394C35.9635 6.35394 35.7207 6.41035 35.4998 6.51883C35.2788 6.62732 35.0857 6.78499 34.9352 6.97975C34.5791 7.42647 34.3949 7.98596 34.4158 8.55684C34.3894 9.11123 34.5658 9.65625 34.9122 10.09C35.0665 10.2776 35.2616 10.4275 35.4827 10.5284C35.7037 10.6293 35.9448 10.6785 36.1877 10.6722ZM40.7661 12.8483C39.5159 13.9782 37.8897 14.6021 36.2046 14.5982C34.5194 14.5943 32.8961 13.963 31.6512 12.8274C31.0784 12.2686 30.6232 11.6008 30.3125 10.8635C30.0017 10.1261 29.8416 9.33399 29.8416 8.5338C29.8416 7.73362 30.0017 6.94152 30.3125 6.20415C30.6232 5.46678 31.0784 4.79904 31.6512 4.24025C32.8957 3.10125 34.5216 2.46954 36.2086 2.46954C37.8957 2.46954 39.5216 3.10125 40.7661 4.24025C41.3519 4.79497 41.8158 5.46567 42.1281 6.2096C42.4403 6.95352 42.5942 7.75435 42.5798 8.56103C42.5938 9.36271 42.4396 10.1584 42.1272 10.8968C41.8148 11.6353 41.3511 12.3 40.7661 12.8483Z" fill="#90A93A"/>
</svg>
