<svg width="62" height="19" viewBox="0 0 62 19" fill="none" xmlns="http://www.w3.org/2000/svg">
<path d="M0.865654 14.2343V7.36652H9.35066V6.9648H0.865654V0.699447H9.88712V0.297852H0.468262V14.6359H9.96655V14.2343H0.865654ZM17.6171 4.31405L14.0999 8.99303L10.6621 4.31417H10.1454L13.8614 9.29434L9.78765 14.6357H10.2646L14.0997 9.5953L17.9547 14.6357H18.4514L14.358 9.2941L18.0938 4.31393H17.6169L17.6171 4.31405ZM19.6439 18.1702V11.7443H19.6836C19.9221 12.6814 20.3924 13.4344 21.0945 14.0035C21.7966 14.5723 22.6907 14.8569 23.777 14.8569C24.4791 14.8569 25.1018 14.713 25.6449 14.4252C26.1881 14.1374 26.6417 13.7458 27.0061 13.2504C27.3703 12.755 27.6486 12.1794 27.8407 11.5234C28.0327 10.8675 28.1289 10.1779 28.1289 9.45513C28.1289 8.67857 28.0294 7.96228 27.8307 7.30637C27.632 6.65035 27.3439 6.08134 26.9664 5.59947C26.5888 5.11748 26.1318 4.74252 25.5952 4.47495C25.0587 4.20714 24.4526 4.07324 23.777 4.07324C23.2603 4.07324 22.7802 4.15025 22.3364 4.30417C21.8926 4.4582 21.4986 4.67563 21.1541 4.95682C20.8077 5.24017 20.5061 5.57537 20.2599 5.95081C20.0082 6.3324 19.8161 6.75074 19.6836 7.20598H19.6439V4.31405H19.2465V18.1702H19.6439ZM23.777 14.4752C22.5319 14.4752 21.5316 14.0435 20.7765 13.18C20.0215 12.3166 19.6439 11.0748 19.6439 9.45489C19.6439 8.78548 19.7366 8.14958 19.9221 7.54719C20.1076 6.94479 20.3758 6.41592 20.7268 5.96081C21.0779 5.50558 21.5118 5.14412 22.0283 4.87643C22.545 4.60862 23.128 4.47471 23.777 4.47471C24.4394 4.47471 25.019 4.60862 25.5158 4.87643C26.0125 5.14412 26.4233 5.50896 26.7478 5.97081C27.0723 6.43267 27.3174 6.96155 27.483 7.55719C27.6486 8.15296 27.7314 8.78548 27.7314 9.45489C27.7314 10.0574 27.6553 10.6565 27.5028 11.2522C27.3505 11.8479 27.1153 12.3835 26.7974 12.8588C26.4795 13.3339 26.0723 13.7221 25.5754 14.0235C25.0785 14.3247 24.4791 14.4752 23.777 14.4752ZM30.3146 14.6359V8.79223C30.3146 8.22997 30.3941 7.68097 30.5532 7.14559C30.712 6.61009 30.9571 6.13811 31.2883 5.72988C31.6195 5.32154 32.0401 5.00021 32.5501 4.76591C33.0601 4.5316 33.6662 4.43458 34.3683 4.47471V4.07312C33.7589 4.05986 33.2258 4.12663 32.7688 4.27392C32.3116 4.4212 31.9176 4.622 31.5864 4.87643C31.2552 5.13074 30.9903 5.42856 30.7916 5.77002C30.593 6.11093 30.4457 6.47974 30.3544 6.8644H30.3146V4.31405H29.9172V14.636L30.3146 14.6359ZM34.8651 9.55529H43.4096C43.4362 8.84574 43.3667 8.16308 43.201 7.50705C43.0355 6.85102 42.7705 6.26864 42.4062 5.76001C42.0419 5.25127 41.5716 4.84292 40.9953 4.53498C40.419 4.22703 39.7335 4.07312 38.9387 4.07312C38.369 4.07312 37.8126 4.19364 37.2695 4.4347C36.7263 4.67563 36.2494 5.02697 35.8388 5.48883C35.4281 5.95069 35.0969 6.51632 34.8453 7.18585C34.5936 7.85513 34.4677 8.61819 34.4677 9.47502C34.4677 10.2381 34.5538 10.951 34.726 11.6136C34.8982 12.2763 35.1631 12.8521 35.5208 13.3407C35.8786 13.8293 36.339 14.2075 36.9019 14.4752C37.4648 14.743 38.1438 14.8702 38.9387 14.8568C40.1044 14.8568 41.0848 14.5253 41.8796 13.8628C42.6745 13.2 43.1447 12.2663 43.2905 11.0614H42.8931C42.7209 12.1994 42.2803 13.0529 41.5716 13.6217C40.8628 14.1908 39.972 14.4752 38.8989 14.4752C38.1703 14.4752 37.5543 14.348 37.0509 14.0937C36.5476 13.8394 36.1368 13.4912 35.8189 13.0495C35.501 12.6076 35.2658 12.0889 35.1135 11.4931C34.9611 10.8975 34.8783 10.2514 34.8651 9.55529ZM43.0122 9.15369H34.8652C34.9048 8.43077 35.0373 7.78149 35.2625 7.20585C35.4878 6.6301 35.7825 6.13811 36.1468 5.72988C36.5111 5.32154 36.9351 5.01033 37.4186 4.79604C37.9021 4.58186 38.4221 4.47471 38.9784 4.47471C39.6408 4.47471 40.2236 4.59862 40.7271 4.8463C41.2304 5.09398 41.651 5.43206 41.9889 5.86041C42.3267 6.28876 42.5817 6.78751 42.7539 7.35639C42.9261 7.9254 43.0122 8.52454 43.0122 9.15369ZM51.6562 7.36652H52.0536C52.0536 6.21512 51.7224 5.37842 51.0601 4.8563C50.3976 4.33418 49.4968 4.07312 48.3576 4.07312C47.7216 4.07312 47.1852 4.15351 46.748 4.31417C46.3109 4.47471 45.9532 4.68226 45.6749 4.93657C45.3968 5.19088 45.1981 5.47207 45.0788 5.78002C44.9596 6.08797 44.9 6.38253 44.9 6.6636C44.9 7.22586 44.9993 7.67434 45.1981 8.00905C45.3968 8.34375 45.7081 8.60481 46.132 8.79223C46.4234 8.92601 46.7545 9.04654 47.1256 9.15381C47.4965 9.26084 47.927 9.37462 48.4172 9.49502C48.8543 9.60229 49.2849 9.70932 49.7088 9.81635C50.1327 9.9235 50.507 10.0674 50.8315 10.2481C51.1561 10.4289 51.421 10.6598 51.6264 10.941C51.8316 11.2221 51.9343 11.5903 51.9343 12.0454C51.9343 12.4872 51.8318 12.8621 51.6264 13.1699C51.4228 13.4762 51.1548 13.7334 50.8415 13.9231C50.5235 14.1171 50.1691 14.2576 49.7784 14.3447C49.3875 14.4317 49.0067 14.4752 48.6358 14.4752C47.4303 14.4752 46.5062 14.2041 45.8637 13.662C45.2213 13.1198 44.9001 12.2663 44.9001 11.1015H44.5026C44.5026 12.4002 44.8503 13.3507 45.5458 13.9532C46.2413 14.5556 47.2713 14.8568 48.6358 14.8568C49.0729 14.8568 49.5134 14.8065 49.9573 14.7061C50.4009 14.6057 50.7985 14.4418 51.1495 14.2141C51.4975 13.9897 51.7898 13.6874 52.0039 13.3307C52.2225 12.9691 52.3318 12.5274 52.3318 12.0052C52.3318 11.5099 52.2357 11.1083 52.0437 10.8003C51.8516 10.4925 51.5999 10.2381 51.2885 10.0373C50.9772 9.83648 50.6262 9.67919 50.2354 9.56541C49.8424 9.45096 49.4482 9.34047 49.053 9.23396C48.5666 9.105 48.0798 8.97785 47.5925 8.85249C47.1753 8.74535 46.7878 8.61819 46.4301 8.47091C46.0857 8.32362 45.8108 8.11282 45.6054 7.83838C45.4 7.56394 45.2975 7.17235 45.2975 6.6636C45.2975 6.56995 45.3239 6.40254 45.3769 6.16161C45.4298 5.92056 45.5558 5.67625 45.7545 5.42856C45.9532 5.181 46.2578 4.96008 46.6685 4.76591C47.0792 4.57186 47.6422 4.47471 48.3576 4.47471C48.8478 4.47471 49.2948 4.52835 49.6988 4.63538C50.1029 4.74252 50.4507 4.91319 50.742 5.14749C51.0335 5.3818 51.2587 5.67962 51.4177 6.04108C51.5767 6.40266 51.6562 6.84439 51.6562 7.36652ZM60.8565 7.36652H61.2538C61.2538 6.21512 60.9228 5.37842 60.2604 4.8563C59.598 4.33418 58.6972 4.07312 57.5578 4.07312C56.922 4.07312 56.3854 4.15351 55.9483 4.31417C55.5111 4.47471 55.1534 4.68226 54.8753 4.93657C54.5971 5.19088 54.3984 5.47207 54.2791 5.78002C54.1598 6.08797 54.1003 6.38253 54.1003 6.6636C54.1003 7.22586 54.1997 7.67434 54.3985 8.00905C54.5971 8.34375 54.9085 8.60481 55.3323 8.79223C55.6238 8.92601 55.9549 9.04654 56.3258 9.15381C56.6967 9.26084 57.1273 9.37462 57.6174 9.49502C58.0547 9.60229 58.4852 9.70932 58.9091 9.81635C59.3331 9.9235 59.7072 10.0674 60.0319 10.2481C60.3564 10.4289 60.6214 10.6598 60.8266 10.941C61.032 11.2221 61.1347 11.5903 61.1347 12.0454C61.1347 12.4872 61.032 12.8621 60.8266 13.1699C60.623 13.4762 60.3551 13.7334 60.0419 13.9231C59.7238 14.1171 59.3695 14.2576 58.9786 14.3447C58.5879 14.4317 58.207 14.4752 57.8361 14.4752C56.6305 14.4752 55.7066 14.2041 55.0641 13.662C54.4215 13.1198 54.1003 12.2663 54.1003 11.1015H53.7029C53.7029 12.4002 54.0506 13.3507 54.7461 13.9532C55.4416 14.5556 56.4715 14.8568 57.8361 14.8568C58.2733 14.8568 58.7137 14.8065 59.1575 14.7061C59.6012 14.6057 59.9987 14.4418 60.3498 14.2141C60.6978 13.9897 60.9902 13.6874 61.2042 13.3307C61.4228 12.9691 61.5321 12.5274 61.5321 12.0052C61.5321 11.5099 61.4361 11.1083 61.2439 10.8003C61.0519 10.4925 60.8003 10.2381 60.4889 10.0373C60.1776 9.83648 59.8265 9.67919 59.4358 9.56541C59.0427 9.45096 58.6486 9.34047 58.2534 9.23396C57.767 9.105 57.2801 8.97785 56.7928 8.85249C56.3755 8.74535 55.988 8.61819 55.6304 8.47091C55.2859 8.32362 55.011 8.11282 54.8058 7.83838C54.6004 7.56394 54.4977 7.17235 54.4977 6.6636C54.4977 6.56995 54.5242 6.40254 54.5773 6.16161C54.6302 5.92056 54.7562 5.67625 54.9547 5.42856C55.1534 5.181 55.4582 4.96008 55.8688 4.76591C56.2795 4.57186 56.8425 4.47471 57.5579 4.47471C58.0481 4.47471 58.4951 4.52835 58.8992 4.63538C59.3033 4.74252 59.6509 4.91319 59.9424 5.14749C60.2339 5.3818 60.4591 5.67962 60.618 6.04108C60.777 6.40266 60.8566 6.84439 60.8566 7.36652H60.8565Z" fill="#222222"/>
</svg>
