<svg width="39" height="23" viewBox="0 0 39 23" fill="none" xmlns="http://www.w3.org/2000/svg">
<path d="M39 22.0395C37.5814 22.4003 36.7039 22.0554 35.9166 20.8732L30.3176 13.1268L29.5084 12.0543L22.9698 20.8988C22.2227 21.9627 21.439 22.4259 20.0448 22.0493L28.4176 10.81L20.6225 0.657765C21.9631 0.396953 22.8893 0.529796 23.712 1.73026L29.5193 9.57292L35.3693 1.77292C36.1189 0.708953 36.9245 0.304328 38.27 0.696765L35.2475 4.70402L31.1525 10.036C30.665 10.6454 30.732 11.0622 31.1805 11.6509L39 22.0395ZM0.00975 10.6223L0.694687 7.25364C2.55937 0.587078 10.2009 -2.18314 15.4708 1.93623C18.5506 4.35911 19.316 7.78623 19.1636 11.6253H1.80375C1.54294 18.5356 6.51666 22.7062 12.8578 20.5782C15.082 19.8311 16.3922 18.0895 17.0479 15.9104C17.3806 14.8184 17.9315 14.6478 18.9577 14.9598C18.4336 17.6849 17.2514 19.9615 14.753 21.3863C11.0199 23.5191 5.69156 22.8293 2.88844 19.8653C1.21875 18.1456 0.528938 15.9665 0.219375 13.6362C0.170625 13.2511 0.073125 12.8843 0 12.515C0.0065 11.8845 0.00975 11.254 0.00975 10.6235V10.6223ZM1.83544 10.1591H17.5232C17.4208 5.16227 14.3093 1.61327 10.0571 1.5828C5.38931 1.54623 2.03775 5.01114 1.83544 10.1591Z" fill="black"/>
</svg>
