<svg width="36" height="54" viewBox="0 0 36 54" fill="none" xmlns="http://www.w3.org/2000/svg">
<path fill-rule="evenodd" clip-rule="evenodd" d="M18.0002 27C18.0002 22.2019 21.8345 18.312 26.564 18.312C31.2936 18.312 35.1279 22.2019 35.1279 27C35.1279 31.7981 31.2936 35.6879 26.564 35.6879C21.8345 35.6879 18.0002 31.7981 18.0002 27Z" fill="#1ABCFE"/>
<path fill-rule="evenodd" clip-rule="evenodd" d="M0.872559 44.3759C0.872559 39.5777 4.70671 35.6879 9.43639 35.6879H18.0002V44.3759C18.0002 49.174 14.166 53.0638 9.43639 53.0638C4.70671 53.0638 0.872559 49.174 0.872559 44.3759Z" fill="#0ACF83"/>
<path fill-rule="evenodd" clip-rule="evenodd" d="M18.0002 0.936157V18.312H26.564C31.2936 18.312 35.1279 14.4222 35.1279 9.6241C35.1279 4.82588 31.2936 0.936157 26.564 0.936157H18.0002Z" fill="#FF7262"/>
<path fill-rule="evenodd" clip-rule="evenodd" d="M0.872559 9.6241C0.872559 14.4222 4.70671 18.312 9.43639 18.312H18.0002V0.936157H9.43639C4.70671 0.936157 0.872559 4.82588 0.872559 9.6241Z" fill="#F24E1E"/>
<path fill-rule="evenodd" clip-rule="evenodd" d="M0.872559 27C0.872559 31.7981 4.70671 35.6879 9.43639 35.6879H18.0002V18.312H9.43639C4.70671 18.312 0.872559 22.2019 0.872559 27Z" fill="#A259FF"/>
</svg>
