<svg width="52" height="33" viewBox="0 0 52 33" fill="none" xmlns="http://www.w3.org/2000/svg">
<path fill-rule="evenodd" clip-rule="evenodd" d="M28.9381 0.0496935C30.7767 -0.0844019 32.5941 0.0528897 34.3903 0.461572C30.3625 11.2301 26.588 22.0762 23.0666 33C21.2493 33 19.4319 33 17.6145 33C21.3891 22.0166 25.1636 11.0331 28.9381 0.0496935Z" fill="#4066A3"/>
<path fill-rule="evenodd" clip-rule="evenodd" d="M14.6788 8.28727C15.5093 8.84227 15.9986 9.66603 16.1467 10.7585C16.4487 11.4227 16.3788 12.0405 15.937 12.612C12.5311 13.8043 9.176 15.1086 5.87151 16.5248C9.18858 17.9771 12.5437 19.3501 15.937 20.6436C16.0767 20.8496 16.2166 21.0555 16.3564 21.2615C15.8586 22.3832 15.579 23.5502 15.5176 24.7624C10.4161 22.9771 5.38338 20.9863 0.419393 18.7902C-0.139798 17.2799 -0.139798 15.7697 0.419393 14.2595C5.25861 12.361 10.0117 10.3702 14.6788 8.28727Z" fill="#373737"/>
<path fill-rule="evenodd" clip-rule="evenodd" d="M36.9067 8.28727C41.7888 10.2717 46.6819 12.2625 51.5854 14.2595C52.056 15.6634 52.126 17.105 51.7951 18.5842C46.8639 20.7693 41.9008 22.7601 36.9067 24.5565C36.521 23.3888 36.1016 22.2219 35.6485 21.0555C35.7363 20.8142 35.876 20.6082 36.0679 20.4377C39.4738 19.2453 42.8289 17.941 46.1333 16.5248C42.7987 15.1813 39.4436 13.877 36.0679 12.612C35.8417 11.1289 36.1213 9.68737 36.9067 8.28727Z" fill="#363636"/>
</svg>
