<svg width="39" height="44" viewBox="0 0 39 44" fill="none" xmlns="http://www.w3.org/2000/svg">
<path d="M36.459 21.6659C36.459 19.4179 34.6751 17.5953 32.4746 17.5953C32.333 17.5953 32.1934 17.6031 32.0557 17.618L37.5283 1.12821H14.2718L19.7367 17.6036C19.6561 17.5984 19.5753 17.5957 19.4945 17.5955C17.2941 17.5955 15.5101 19.4177 15.5101 21.666C15.5101 23.4831 16.6759 25.0216 18.2847 25.545C17.435 27.0487 16.3657 28.4031 15.1517 29.5733C13.501 31.1642 11.6118 32.3706 9.56845 33.1139C7.13565 31.8371 5.9869 28.9976 7.02342 26.5081C7.14051 26.2268 7.26002 25.9419 7.37423 25.6582C9.13664 25.2379 10.4501 23.6238 10.4501 21.6952C10.4501 19.447 8.66616 17.6246 6.46557 17.6246C4.26498 17.6246 2.48119 19.447 2.48119 21.6952C2.48119 23.0738 3.15248 24.2915 4.17884 25.0278C3.19267 27.3217 1.74301 29.7225 1.29133 32.5049C0.75002 35.8395 1.28951 39.3791 4.11256 41.3781C10.6872 46.0334 17.8239 38.4922 25.3486 36.5964C28.0756 35.9095 31.0691 36.0201 33.4717 34.5986C35.276 33.531 36.4655 31.7616 36.803 29.7753C37.1367 27.813 36.6504 25.8593 35.5323 24.2751C36.1322 23.5439 36.4603 22.6199 36.459 21.6659Z" fill="#99425B"/>
<path d="M35.9397 29.6517C35.6449 31.3868 34.5958 32.9023 33.0618 33.8101C31.6317 34.6562 29.918 34.9087 28.1035 35.176C27.1315 35.3191 26.1264 35.4673 25.1445 35.7146C22.5483 36.3686 20.0336 37.6446 17.6019 38.8786C12.7352 41.348 8.53232 43.4804 4.56934 40.6745C1.66639 38.6193 1.80038 34.8166 2.13856 32.7329C2.45203 30.8022 3.29947 29.0242 4.11883 27.3048C4.25843 27.0126 4.3969 26.7198 4.53424 26.4264C4.94727 26.5951 5.38066 26.7062 5.82272 26.7566C4.98856 29.5689 6.30039 32.6267 9.05363 34.0716L9.43058 34.2694L9.8295 34.1243C12.0062 33.3323 14.0119 32.0617 15.7909 30.347C16.9408 29.2387 17.9296 28.0126 18.7422 26.7024C18.9893 26.7405 19.2388 26.7596 19.4887 26.7596C22.0157 26.7596 24.1083 24.8297 24.4321 22.3372C25.4665 22.2985 26.5652 22.2982 27.6055 22.3369C27.9291 24.8297 30.022 26.7598 32.549 26.7598C33.6057 26.7598 34.5858 26.4215 35.3932 25.8468C35.9538 27.019 36.163 28.3379 35.9397 29.6517ZM6.37914 18.598C8.04992 18.598 9.40906 19.9866 9.40906 21.6933C9.40906 22.3063 9.23295 22.878 8.93063 23.3594C8.42702 24.1619 7.57087 24.7119 6.5873 24.7805C6.51847 24.7851 6.44904 24.7886 6.37914 24.7886C6.00677 24.7886 5.65012 24.7192 5.32033 24.5932C4.65615 24.3381 4.09995 23.8542 3.74769 23.2249C3.48611 22.7587 3.34867 22.2307 3.34907 21.6933C3.34907 19.9866 4.70837 18.598 6.37914 18.598ZM16.4589 21.6639C16.4589 20.1132 17.581 18.8256 19.0391 18.603C19.1859 18.5804 19.336 18.5687 19.4888 18.5687C20.4602 18.5687 21.325 19.0387 21.8796 19.7671C22.0185 19.9487 22.1372 20.1455 22.2333 20.354C22.4217 20.7639 22.5191 21.2111 22.5187 21.6639C22.5187 21.9113 22.4894 22.1518 22.4356 22.3826C22.1403 23.6454 21.0862 24.6107 19.7945 24.7435C19.6941 24.7538 19.5921 24.7591 19.4888 24.7591C18.906 24.7596 18.3356 24.5873 17.8467 24.2632C17.0126 23.7111 16.4589 22.7525 16.4589 21.6639ZM29.1049 17.9831C28.4456 18.626 27.971 19.441 27.7328 20.3398C26.5907 20.2968 25.4475 20.2968 24.3055 20.3398C24.0491 19.3683 23.5177 18.5111 22.8027 17.8601L25.9381 11.3837L29.1049 17.9831ZM15.5992 2.00081H36.2683L31.3864 16.7091C31.1764 16.7605 30.9699 16.8258 30.7682 16.9048L25.9457 6.85503L21.1095 16.8447C20.8987 16.7708 20.6832 16.7115 20.4646 16.6672L15.5992 2.00081ZM35.5789 21.664C35.5789 21.9743 35.5336 22.2739 35.4501 22.5569C35.2521 23.223 34.8408 23.802 34.2822 24.2008C33.7745 24.5648 33.1693 24.7598 32.549 24.7593C31.15 24.7593 29.9699 23.7854 29.6229 22.4664C29.554 22.2048 29.5191 21.935 29.5191 21.664C29.5191 21.2409 29.6027 20.8375 29.7538 20.4699C29.8318 20.2818 29.9278 20.102 30.0404 19.9332C30.5857 19.111 31.5058 18.5688 32.549 18.5688C32.6447 18.5688 32.739 18.5738 32.8326 18.5828C34.3709 18.7292 35.5789 20.0548 35.5789 21.664ZM37.5374 21.664C37.5374 19.1762 35.7827 17.1004 33.4715 16.657L39 0H12.8678L18.4048 16.6907C16.174 17.1978 14.5006 19.2344 14.5006 21.6639C14.5006 23.4882 15.4443 25.0905 16.8587 25.991C16.1784 27.0265 15.3717 28.0009 14.4472 28.892C12.9809 30.3049 11.3475 31.3765 9.58655 32.0817C7.81276 30.9435 7.06299 28.7969 7.8416 26.927L8.01711 26.5055C9.96533 25.8113 11.3674 23.9171 11.3674 21.6933C11.3674 18.8834 9.12963 16.5975 6.37914 16.5975C3.62865 16.5975 1.39062 18.8834 1.39062 21.6933C1.39062 23.1116 1.96138 24.3959 2.87979 25.3207C2.7085 25.6914 2.53462 26.0609 2.35817 26.4291C1.51836 28.1909 0.566681 30.1878 0.206674 32.4055C-0.508152 36.8096 0.64497 40.3303 3.45376 42.3188C5.15811 43.5254 6.88901 44 8.63075 44C11.9103 44 15.2281 42.3168 18.473 40.6702C20.8099 39.4845 23.2265 38.2584 25.6135 37.6569C26.5017 37.4332 27.4155 37.2985 28.3831 37.156C30.3018 36.8732 32.2858 36.5809 34.0432 35.5412C36.0804 34.3358 37.4748 32.3138 37.8692 29.994C38.2077 28.0024 37.8003 26.0077 36.8068 24.3159C37.2856 23.5178 37.5384 22.6 37.5374 21.664Z" fill="white"/>
</svg>
