<svg width="44" height="51" viewBox="0 0 44 51" fill="none" xmlns="http://www.w3.org/2000/svg">
<path fill-rule="evenodd" clip-rule="evenodd" d="M41.4332 1.27323C41.6887 0.95376 42.0492 0.835972 42.5145 0.919834C42.4122 2.10457 41.9919 3.16477 41.253 4.10044C41.3027 3.39731 41.4829 2.69051 41.7936 1.98003C41.7781 1.65618 41.6581 1.42057 41.4332 1.27323Z" fill="#47490E"/>
<path fill-rule="evenodd" clip-rule="evenodd" d="M38.9101 11.8753C38.9101 11.993 38.9101 12.1109 38.9101 12.2287C37.6478 12.3784 36.8068 11.9071 36.3869 10.8151C37.1475 9.34926 37.8082 7.81787 38.3694 6.22085C39.011 5.81818 39.6721 5.46478 40.3519 5.16065C40.663 4.82032 40.9034 4.82032 41.0728 5.16065C40.2319 7.28105 39.3906 9.40145 38.5496 11.5219C38.5943 11.7363 38.7144 11.8541 38.9101 11.8753Z" fill="#F1F52C"/>
<path fill-rule="evenodd" clip-rule="evenodd" d="M42.5145 0.919834C42.8653 1.09183 43.2256 1.26853 43.5958 1.44993C41.9752 4.9199 40.4135 8.39504 38.9101 11.8753C38.7144 11.8541 38.5943 11.7363 38.5496 11.5219C39.3906 9.40145 40.2319 7.28105 41.0728 5.16065C40.9034 4.82032 40.663 4.82032 40.3519 5.16065C40.3119 4.94246 40.1917 4.76575 39.9913 4.63054C40.7176 3.61794 41.1982 2.49886 41.4332 1.27323C41.6581 1.42057 41.7781 1.65618 41.7936 1.98003C41.4829 2.69051 41.3027 3.39731 41.253 4.10044C41.9919 3.16477 42.4122 2.10457 42.5145 0.919834Z" fill="#AFB31E"/>
<path fill-rule="evenodd" clip-rule="evenodd" d="M36.3869 10.8151C36.8068 11.9071 37.6478 12.3784 38.9101 12.2287C38.7544 12.6561 38.5139 13.0095 38.1891 13.2888C37.7003 12.6634 37.0396 12.1922 36.2066 11.8752C36.0685 12.0717 35.8883 12.1895 35.6659 12.2286C35.7236 11.6445 35.9637 11.1733 36.3869 10.8151Z" fill="#3B3C0B"/>
<path fill-rule="evenodd" clip-rule="evenodd" d="M38.1891 13.2888C38.0842 13.6949 37.7839 13.9306 37.288 13.9957C36.7354 13.8993 36.1947 13.7814 35.6659 13.6423C35.6659 13.1711 35.6659 12.6998 35.6659 12.2286C35.8883 12.1895 36.0685 12.0717 36.2066 11.8752C37.0396 12.1922 37.7003 12.6634 38.1891 13.2888Z" fill="#E5E92A"/>
<path fill-rule="evenodd" clip-rule="evenodd" d="M35.6659 13.6423C36.0703 14.1537 36.6112 14.5071 37.2881 14.7024C37.3584 15.1687 37.2982 15.6399 37.1079 16.116C36.5178 16.8141 35.9169 17.5209 35.3056 18.2364C34.8251 18.4721 34.3443 18.7076 33.8638 18.9432C33.548 18.9895 33.3076 18.8717 33.1429 18.5898C33.7243 16.7283 34.5651 15.0791 35.6659 13.6423Z" fill="#2E74E1"/>
<path fill-rule="evenodd" clip-rule="evenodd" d="M35.3056 18.2364C35.6314 18.487 35.7513 18.8404 35.6659 19.2967C35.1854 19.5323 34.825 19.8857 34.5845 20.3569C34.1484 20.5096 33.7879 20.7451 33.5032 21.0637C32.7196 21.1519 32.1187 21.5053 31.7009 22.1239C31.3315 21.9837 31.2713 21.7481 31.5207 21.4171C32.3076 20.5664 33.0888 19.7418 33.8638 18.9432C34.3443 18.7076 34.8251 18.4721 35.3056 18.2364Z" fill="#D7D927"/>
<path fill-rule="evenodd" clip-rule="evenodd" d="M37.1079 16.116C37.3036 16.1372 37.4234 16.2551 37.4681 16.4695C37.1279 17.6131 36.5274 18.5555 35.6659 19.2967C35.7513 18.8404 35.6314 18.487 35.3056 18.2364C35.9169 17.5209 36.5178 16.8141 37.1079 16.116Z" fill="#8F921B"/>
<path fill-rule="evenodd" clip-rule="evenodd" d="M33.5032 21.0637C34.125 21.1847 34.3052 21.5381 34.0439 22.1239C33.3442 23.3776 32.7437 24.6734 32.2416 26.0113C31.7723 26.2179 31.3517 26.4535 30.98 26.7181C30.7396 26.7181 30.6196 26.8359 30.6196 27.0715C29.9765 27.2102 29.376 27.4458 28.8173 27.7783C28.6216 27.7571 28.5016 27.6393 28.4569 27.4249C29.2758 25.4595 30.3572 23.6925 31.7009 22.1239C32.1187 21.5053 32.7196 21.1519 33.5032 21.0637Z" fill="#3277E7"/>
<path fill-rule="evenodd" clip-rule="evenodd" d="M33.8635 25.3045C33.3365 25.6429 32.8561 26.0553 32.4217 26.5414C31.9556 26.7146 31.4749 26.7734 30.98 26.7181C31.3517 26.4535 31.7723 26.2179 32.2416 26.0113C32.7437 24.6734 33.3442 23.3776 34.0439 22.1239C34.3052 21.5381 34.125 21.1847 33.5032 21.0637C33.7879 20.7451 34.1484 20.5096 34.5845 20.3569C35.1313 20.3531 35.5519 20.1176 35.846 19.6501C35.5129 21.6306 34.8522 23.5154 33.8635 25.3045Z" fill="#2653A7"/>
<path fill-rule="evenodd" clip-rule="evenodd" d="M33.8635 25.3045C34.0214 25.2814 34.1422 25.3402 34.2244 25.4812C33.8567 26.7673 33.1358 27.7686 32.0617 28.4851C31.6619 28.5052 31.3015 28.623 30.9803 28.8385C30.9071 28.1704 31.1472 27.6403 31.7012 27.2482C31.3595 27.0776 30.9988 27.0186 30.6196 27.0715C30.6196 26.8359 30.7396 26.7181 30.98 26.7181C31.4749 26.7734 31.9556 26.7146 32.4217 26.5414C32.8561 26.0553 33.3365 25.6429 33.8635 25.3045Z" fill="#A4A81C"/>
<path fill-rule="evenodd" clip-rule="evenodd" d="M30.6196 27.0715C30.9988 27.0186 31.3595 27.0776 31.7012 27.2482C31.1472 27.6403 30.9071 28.1704 30.9803 28.8385C30.4544 28.8147 29.9735 28.9324 29.5381 29.1919C28.5241 29.0239 27.8032 29.3773 27.3753 30.2521C27.0059 30.1119 26.9458 29.8763 27.1951 29.5453C27.5768 28.7822 28.1177 28.1932 28.8173 27.7783C29.376 27.4458 29.9765 27.2102 30.6196 27.0715Z" fill="#E4E729"/>
<path fill-rule="evenodd" clip-rule="evenodd" d="M29.5381 29.1919C29.5381 29.3097 29.5381 29.4275 29.5381 29.5453C28.7505 29.6173 28.0296 29.8528 27.3753 30.2521C27.8032 29.3773 28.5241 29.0239 29.5381 29.1919Z" fill="#312D3B"/>
<path fill-rule="evenodd" clip-rule="evenodd" d="M32.0617 28.4851C32.3774 28.4388 32.6176 28.5567 32.7823 28.8385C32.3721 30.0446 31.8917 31.2227 31.3405 32.3725C30.532 32.7167 29.6911 32.8347 28.8174 32.7259C29.2932 31.7929 29.7736 30.8505 30.2592 29.8987C30.0944 29.6169 29.8538 29.499 29.5381 29.5453C29.5381 29.4275 29.5381 29.3097 29.5381 29.1919C29.9735 28.9324 30.4544 28.8147 30.9803 28.8385C31.3015 28.623 31.6619 28.5052 32.0617 28.4851Z" fill="#2553A9"/>
<path fill-rule="evenodd" clip-rule="evenodd" d="M29.5381 29.5453C29.8538 29.499 30.0944 29.6169 30.2592 29.8987C29.7736 30.8505 29.2932 31.7929 28.8174 32.7259C28.5769 32.7259 28.3371 32.7259 28.0966 32.7259C27.822 32.103 27.3413 31.7496 26.6548 31.6657C26.6548 31.5479 26.6548 31.43 26.6548 31.3123C26.8951 30.9589 27.135 30.6055 27.3753 30.2521C28.0296 29.8528 28.7505 29.6173 29.5381 29.5453Z" fill="#317CF1"/>
<path fill-rule="evenodd" clip-rule="evenodd" d="M7.55052 31.3123C8.15128 30.8411 8.75201 30.8411 9.35278 31.3123C8.34766 32.1549 7.2663 32.8029 6.10871 33.256C6.72436 32.534 7.44526 31.9448 8.27142 31.489C8.05717 31.3249 7.81685 31.266 7.55052 31.3123Z" fill="#123566"/>
<path fill-rule="evenodd" clip-rule="evenodd" d="M7.55052 31.3123C7.81685 31.266 8.05717 31.3249 8.27142 31.489C7.44526 31.9448 6.72436 32.534 6.10871 33.256C7.2663 32.8029 8.34766 32.1549 9.35278 31.3123C16.1985 30.6603 19.1423 33.6052 18.1839 40.1473C17.1462 42.1564 15.5242 43.4523 13.3178 44.0347C12.4062 43.8492 11.5652 43.4958 10.7947 42.9745C9.62067 41.5708 9.44044 40.0395 10.254 38.3803C11.1095 37.3901 12.1308 37.1544 13.3178 37.6735C14.3722 38.9521 14.0118 39.5999 12.2365 39.6172C11.3234 40.3537 11.3234 41.0605 12.2365 41.7376C14.5232 42.46 16.1453 41.6945 17.1026 39.4405C17.4451 34.0059 14.982 32.1799 9.7133 33.9628C8.64359 34.5965 7.92268 35.48 7.55059 36.6133C7.24846 36.7342 7.12828 36.9695 7.19014 37.3201C5.49525 41.3952 6.45643 44.8705 10.0738 47.7454C10.8223 48.348 11.6633 48.7604 12.5969 48.9823C13.3823 49.4863 14.2834 49.7216 15.3003 49.6891C16.3268 49.5838 17.3481 49.4661 18.3642 49.3357C18.0893 49.6071 17.7289 49.7838 17.2828 49.8658C14.8798 50.1015 12.4768 50.1015 10.0738 49.8658C9.12245 49.6351 8.28137 49.2226 7.55059 48.6289C6.82968 47.6864 5.98864 46.8619 5.02742 46.1551C5.03124 46.6912 5.27152 47.1036 5.74833 47.392C5.62819 47.451 5.50801 47.5097 5.38787 47.5687C4.65486 47.1945 3.93395 46.8411 3.22516 46.5085C-0.0535847 42.8045 -0.474125 38.7994 1.96358 34.4929C3.39695 32.6436 5.25919 31.5835 7.55052 31.3123Z" fill="#317BF0"/>
<path fill-rule="evenodd" clip-rule="evenodd" d="M28.0966 32.7259C27.822 32.103 27.3413 31.7496 26.6548 31.6657C26.9296 32.2884 27.4102 32.6418 28.0966 32.7259Z" fill="#3F3D3C"/>
<path fill-rule="evenodd" clip-rule="evenodd" d="M26.6548 31.3123C26.6548 31.43 26.6548 31.5479 26.6548 31.6657C26.9296 32.2884 27.4102 32.6418 28.0966 32.7259C28.0966 32.9616 28.2165 33.0793 28.4569 33.0793C28.1822 33.702 27.7014 34.0554 27.0151 34.1395C26.7748 34.0218 26.5345 33.9038 26.2942 33.7861C25.6894 32.793 25.8097 31.9685 26.6548 31.3123Z" fill="#EDF02B"/>
<path fill-rule="evenodd" clip-rule="evenodd" d="M28.4569 33.0793C29.2978 33.0793 30.1394 33.0793 30.9803 33.0793C31.0088 33.5847 30.8887 34.0561 30.6198 34.4929C29.8113 34.8371 28.9704 34.9552 28.0967 34.8463C27.5463 34.8721 27.1856 34.6364 27.0151 34.1395C27.7014 34.0554 28.1822 33.702 28.4569 33.0793Z" fill="#A8AC1D"/>
<path fill-rule="evenodd" clip-rule="evenodd" d="M10.7947 42.9745C10.3793 43.3721 10.019 43.3721 9.71341 42.9745C9.87136 42.9975 9.99153 42.9388 10.0739 42.7978C9.36885 41.5273 9.18863 40.1727 9.53318 38.7337C9.88401 37.9774 10.4247 37.3883 11.1552 36.9667C10.2818 36.5324 9.38071 36.179 8.45183 35.9065C8.19652 36.2178 7.89605 36.4532 7.55059 36.6133C7.92268 35.48 8.64359 34.5965 9.7133 33.9628C14.982 32.1799 17.4451 34.0059 17.1026 39.4405C16.1453 41.6945 14.5232 42.46 12.2365 41.7376C11.3234 41.0605 11.3234 40.3537 12.2365 39.6172C14.0118 39.5999 14.3722 38.9521 13.3178 37.6735C12.1308 37.1544 11.1095 37.3901 10.254 38.3803C9.44044 40.0395 9.62067 41.5708 10.7947 42.9745Z" fill="#0D254A"/>
<path fill-rule="evenodd" clip-rule="evenodd" d="M26.2942 33.7861C26.5345 33.9038 26.7748 34.0218 27.0151 34.1395C27.1856 34.6364 27.5463 34.8721 28.0967 34.8463C28.4816 35.1764 28.9621 35.2944 29.5385 35.1997C28.513 39.2146 26.4705 42.631 23.4108 45.4483C25.3476 42.2214 25.9484 38.8054 25.2131 35.1997C25.3207 34.5088 25.6809 34.0373 26.2942 33.7861Z" fill="#2154AD"/>
<path fill-rule="evenodd" clip-rule="evenodd" d="M25.2131 35.1997C25.9484 38.8054 25.3476 42.2214 23.4108 45.4483C23.4108 45.566 23.4104 45.684 23.4104 45.8017C21.4663 47.58 19.1835 48.5812 16.5618 48.8056C16.9843 48.6575 17.3448 48.4222 17.6432 48.0988C16.5486 48.2497 15.5273 48.6621 14.5793 49.3357C14.0533 49.2269 13.6328 48.9911 13.3178 48.6289C15.3723 48.0635 17.1145 47.0033 18.5443 45.4483C21.3204 42.3568 23.5435 38.9404 25.2131 35.1997Z" fill="#317BEF"/>
<path fill-rule="evenodd" clip-rule="evenodd" d="M9.71341 42.9745C8.75533 42.6031 7.854 42.1316 7.00982 41.5609C6.83057 40.1388 6.89071 38.7252 7.19014 37.3201C7.12828 36.9695 7.24846 36.7342 7.55059 36.6133C7.89605 36.4532 8.19652 36.2178 8.45183 35.9065C9.38071 36.179 10.2818 36.5324 11.1552 36.9667C10.4247 37.3883 9.88401 37.9774 9.53318 38.7337C9.18863 40.1727 9.36885 41.5273 10.0739 42.7978C9.99153 42.9388 9.87136 42.9975 9.71341 42.9745Z" fill="#2157B2"/>
<path fill-rule="evenodd" clip-rule="evenodd" d="M5.02742 46.1551C2.29916 43.3318 1.81876 40.1512 3.5858 36.6133C3.70594 36.6723 3.82611 36.731 3.94625 36.79C3.04386 38.2715 2.74346 39.8618 3.04512 41.5609C3.51804 43.1922 4.17866 44.7235 5.02742 46.1551Z" fill="#0F2649"/>
<path fill-rule="evenodd" clip-rule="evenodd" d="M5.02742 46.1551C5.98864 46.8619 6.82968 47.6864 7.55059 48.6289C5.80528 48.7162 4.36347 48.0094 3.22516 46.5085C3.93395 46.8411 4.65486 47.1945 5.38787 47.5687C5.50801 47.5097 5.62819 47.451 5.74833 47.392C5.27152 47.1036 5.03124 46.6912 5.02742 46.1551Z" fill="#1C4A96"/>
<path fill-rule="evenodd" clip-rule="evenodd" d="M23.4104 45.8017C23.7888 45.9448 23.7892 46.1802 23.4108 46.5085C21.9848 47.9101 20.3023 48.8526 18.3642 49.3357C17.3481 49.4661 16.3268 49.5838 15.3003 49.6891C14.2834 49.7216 13.3823 49.4863 12.5969 48.9823C12.8372 48.8646 13.0774 48.7466 13.3178 48.6289C13.6328 48.9911 14.0533 49.2269 14.5793 49.3357C15.5273 48.6621 16.5486 48.2497 17.6432 48.0988C17.3448 48.4222 16.9843 48.6575 16.5618 48.8056C19.1835 48.5812 21.4663 47.58 23.4104 45.8017Z" fill="#102C56"/>
</svg>
