<svg width="43" height="42" viewBox="0 0 43 42" fill="none" xmlns="http://www.w3.org/2000/svg">
<path d="M39.2383 9.34103C38.9925 8.54605 38.4024 7.90013 37.6648 7.50263L22.6672 0.248432C22.2738 0.0496863 21.8313 0 21.4379 0C21.0445 0 20.602 0 20.2086 0.0993726L5.21101 7.40326C4.47343 7.75107 3.93253 8.39699 3.73584 9.24166L0.0479115 25.5885C-0.0996057 26.4331 0.097084 27.2778 0.588808 27.9734L10.9642 40.9415C11.5543 41.5378 12.3902 41.9353 13.2261 41.9849H29.748C30.6331 42.0843 31.4691 41.6868 32.01 40.9415L42.3853 27.9734C42.8771 27.2778 43.0738 26.4331 42.9754 25.5885L39.2383 9.34103Z" fill="#326DE6"/>
<path d="M36.9272 24.9425C36.878 24.9425 36.8288 24.9425 36.8288 24.8928C36.8288 24.8432 36.7305 24.8432 36.6321 24.8432C36.4354 24.7935 36.2387 24.7935 36.0421 24.7935C35.9437 24.7935 35.8454 24.7935 35.747 24.7438H35.6978C35.157 24.6941 34.5669 24.5947 34.026 24.4457C33.8785 24.396 33.731 24.2469 33.6818 24.0979L33.2884 23.9985C33.4851 22.5576 33.3867 21.067 33.0917 19.6261C32.7475 18.1852 32.1574 16.794 31.3707 15.5518L31.6657 15.2537V15.204C31.6657 15.055 31.7149 14.8562 31.8132 14.7568C32.2558 14.3593 32.6983 14.0612 33.1901 13.7631C33.2884 13.7134 33.3867 13.6637 33.4851 13.614C33.6818 13.5147 33.8293 13.4153 34.026 13.3159C34.0752 13.2662 34.1243 13.2662 34.1735 13.2166C34.2227 13.1669 34.1735 13.1669 34.1735 13.1172C34.6161 12.7694 34.7144 12.1731 34.3702 11.726C34.2227 11.5272 33.9276 11.3782 33.6818 11.3782C33.4359 11.3782 33.1901 11.4775 32.9934 11.6266L32.9442 11.6763C32.895 11.726 32.8458 11.7757 32.7967 11.7757C32.6492 11.9247 32.5016 12.0738 32.4033 12.2228C32.3541 12.3222 32.2558 12.3719 32.2066 12.4216C31.8624 12.8191 31.4199 13.2166 30.9773 13.5147C30.879 13.5644 30.7806 13.614 30.6823 13.614C30.6331 13.614 30.5347 13.614 30.4856 13.5644H30.4364L30.043 13.8128C29.6496 13.4153 29.2071 13.0178 28.8137 12.6203C26.9943 11.1794 24.7324 10.2851 22.4213 10.0366L22.3721 9.63914V9.68883C22.2246 9.58945 22.1754 9.4404 22.1263 9.29134C22.1263 8.74479 22.1263 8.19824 22.2246 7.602V7.55232C22.2246 7.45294 22.2738 7.35357 22.2738 7.2542C22.323 7.05545 22.323 6.85671 22.3721 6.65796V6.35984C22.4213 5.86298 22.0279 5.36612 21.5362 5.31643C21.2412 5.26674 20.9461 5.4158 20.7003 5.66424C20.5036 5.86298 20.4052 6.11141 20.4052 6.35984V6.60828C20.4052 6.80702 20.4544 7.00577 20.5036 7.20451C20.5528 7.30388 20.5528 7.40326 20.5528 7.50263V7.55232C20.6511 8.09886 20.6511 8.64541 20.6511 9.24165C20.6019 9.39071 20.5528 9.53977 20.4052 9.63914V9.73851L20.3561 10.136C19.8152 10.1857 19.2743 10.2851 18.6842 10.3844C16.3731 10.8813 14.2587 12.1235 12.636 13.8625L12.341 13.6637H12.2918C12.2426 13.6637 12.1934 13.7134 12.0951 13.7134C11.9968 13.7134 11.8984 13.6637 11.8001 13.614C11.3575 13.2662 10.915 12.8688 10.5708 12.4713C10.5216 12.3719 10.4232 12.3222 10.3741 12.2725C10.2265 12.1235 10.1282 11.9744 9.98069 11.8253C9.93151 11.7757 9.88234 11.7757 9.83317 11.726C9.784 11.6763 9.784 11.6763 9.784 11.6763C9.58731 11.5272 9.34145 11.4278 9.09558 11.4278C8.80055 11.4278 8.55469 11.5272 8.40717 11.7757C8.11214 12.2228 8.21048 12.8191 8.60386 13.1669C8.65303 13.1669 8.65303 13.2166 8.65303 13.2166C8.65303 13.2166 8.75138 13.3159 8.80055 13.3159C8.94807 13.4153 9.14476 13.5147 9.34145 13.614C9.43979 13.6637 9.53814 13.7134 9.63648 13.7631C10.1282 14.0612 10.6199 14.3593 11.0133 14.7568C11.1117 14.8562 11.21 15.055 11.1608 15.204V15.1543L11.4559 15.4524C11.4067 15.5518 11.3575 15.6015 11.3083 15.7009C9.784 18.1355 9.14476 21.0173 9.58731 23.8494L9.19393 23.9488C9.19393 23.9985 9.14476 23.9985 9.14476 23.9985C9.09558 24.1475 8.94807 24.2469 8.80055 24.3463C8.25965 24.4953 7.71876 24.5947 7.12869 24.6444C7.03034 24.6444 6.932 24.6444 6.83365 24.6941C6.63696 24.6941 6.44027 24.7438 6.24359 24.7438C6.19441 24.7438 6.14524 24.7935 6.0469 24.7935C5.99772 24.7935 5.99772 24.7935 5.94855 24.8432C5.40765 24.9425 5.06345 25.4394 5.16179 25.9859C5.26014 26.4331 5.70269 26.7312 6.14524 26.6815C6.24359 26.6815 6.29276 26.6815 6.3911 26.6319C6.44027 26.6319 6.44027 26.6319 6.44027 26.5822C6.44027 26.5325 6.58779 26.5822 6.63696 26.5822C6.83365 26.5325 7.03034 26.4331 7.17786 26.3834C7.27621 26.3337 7.37455 26.2841 7.4729 26.2841H7.52207C8.06296 26.0853 8.55469 25.9363 9.14476 25.8369H9.19393C9.34145 25.8369 9.48896 25.8866 9.58731 25.9859C9.63648 25.9859 9.63648 26.0356 9.63648 26.0356L10.079 25.9859C10.8166 28.2715 12.1934 30.3086 14.1112 31.7992C14.5537 32.147 14.9471 32.4452 15.4388 32.6936L15.193 33.0414C15.193 33.0911 15.2421 33.0911 15.2421 33.0911C15.3405 33.2401 15.3405 33.4389 15.2913 33.5879C15.0946 34.0848 14.7996 34.5817 14.5045 35.0289V35.0785C14.4554 35.1779 14.4062 35.2276 14.3079 35.327C14.2095 35.4263 14.1112 35.6251 13.9637 35.8238C13.9145 35.8735 13.9145 35.9232 13.8653 35.9729C13.8653 35.9729 13.8653 36.0226 13.8161 36.0226C13.5703 36.5194 13.767 37.1157 14.2095 37.3641C14.3079 37.4138 14.4554 37.4635 14.5537 37.4635C14.9471 37.4635 15.2913 37.215 15.488 36.8672C15.488 36.8672 15.488 36.8176 15.5372 36.8176C15.5372 36.7679 15.5863 36.7182 15.6355 36.6685C15.6847 36.4698 15.783 36.3207 15.8322 36.1219L15.9305 35.8238C16.0781 35.2773 16.3239 34.7804 16.5698 34.2836C16.6681 34.1345 16.8157 34.0351 16.9632 33.9854C17.0123 33.9854 17.0123 33.9854 17.0123 33.9358L17.209 33.5383C18.5859 34.0848 20.0119 34.3332 21.487 34.3332C22.3721 34.3332 23.2572 34.2339 24.1423 33.9854C24.6832 33.8861 25.2241 33.6873 25.7159 33.5383L25.9125 33.8861C25.9617 33.8861 25.9617 33.8861 25.9617 33.9358C26.1092 33.9854 26.2568 34.0848 26.3551 34.2339C26.601 34.7307 26.8468 35.2276 26.9943 35.7741V35.8238L27.0927 36.1219C27.1419 36.3207 27.191 36.5194 27.2894 36.6685C27.3385 36.7182 27.3385 36.7679 27.3877 36.8176C27.3877 36.8176 27.3877 36.8672 27.4369 36.8672C27.6336 37.215 27.9778 37.4635 28.3712 37.4635C28.5187 37.4635 28.617 37.4138 28.7645 37.3641C28.9612 37.2647 29.1579 37.066 29.2071 36.8176C29.2563 36.5691 29.2563 36.3207 29.1579 36.0723C29.1579 36.0226 29.1087 36.0226 29.1087 36.0226C29.1087 35.9729 29.0596 35.9232 29.0104 35.8735C28.9121 35.6748 28.8137 35.5257 28.6662 35.3767C28.617 35.2773 28.5679 35.2276 28.4695 35.1282V35.0289C28.1253 34.5817 27.8794 34.0848 27.6828 33.5879C27.6336 33.4389 27.6336 33.2401 27.7319 33.0911C27.7319 33.0414 27.7811 33.0414 27.7811 33.0414L27.6336 32.6439C30.1414 31.1036 32.0591 28.7187 32.9442 25.8866L33.3376 25.9363C33.3867 25.9363 33.3867 25.8866 33.3867 25.8866C33.4851 25.7872 33.6326 25.7375 33.7801 25.7375H33.8293C34.3702 25.8369 34.9111 25.9859 35.4028 26.1847H35.452C35.5503 26.2344 35.6487 26.2841 35.747 26.2841C35.9437 26.3834 36.0912 26.4828 36.2879 26.5325C36.3371 26.5325 36.3863 26.5822 36.4846 26.5822C36.5338 26.5822 36.5338 26.5822 36.583 26.6319C36.6813 26.6815 36.7305 26.6815 36.8288 26.6815C37.2714 26.6815 37.6647 26.3834 37.8123 25.9859C37.7631 25.4394 37.3697 25.0419 36.9272 24.9425ZM22.7163 23.4023L21.3887 24.0482L20.061 23.4023L19.7168 21.9613L20.6511 20.7689H22.1263L23.0605 21.9613L22.7163 23.4023ZM30.7314 20.1726C30.9773 21.2161 31.0265 22.2595 30.9281 23.3029L26.2568 21.9613C25.8142 21.862 25.5683 21.4148 25.6667 20.9676C25.7159 20.8186 25.765 20.7192 25.8634 20.6198L29.5513 17.2411C30.0922 18.1355 30.4856 19.1292 30.7314 20.1726ZM28.0761 15.4028L24.044 18.2846C23.6998 18.4833 23.2081 18.4336 22.9622 18.0858C22.8639 17.9864 22.8147 17.8871 22.8147 17.738L22.5196 12.7197C24.6832 12.9681 26.601 13.9122 28.0761 15.4028ZM19.1759 12.8688L20.1594 12.67L19.9135 17.6386C19.9135 18.0858 19.5201 18.4336 19.0776 18.4336C18.9301 18.4336 18.8317 18.3839 18.6842 18.3342L14.6029 15.4028C15.8814 14.1606 17.4549 13.2662 19.1759 12.8688ZM13.1769 17.2411L16.8157 20.5204C17.1599 20.8186 17.209 21.3154 16.914 21.6632C16.8156 21.8123 16.7173 21.862 16.5206 21.9117L11.7509 23.3029C11.6034 21.2161 12.0951 19.0795 13.1769 17.2411ZM12.341 25.6381L17.209 24.7935C17.6024 24.7935 17.9958 25.0419 18.045 25.4394C18.0941 25.5884 18.0941 25.7872 17.9958 25.9363L16.1272 30.5074C14.4062 29.3646 13.0294 27.6256 12.341 25.6381ZM23.5031 31.7992C22.8147 31.9483 22.1263 32.0477 21.3887 32.0477C20.3561 32.0477 19.2743 31.8489 18.2908 31.5508L20.7003 27.1287C20.9461 26.8306 21.3395 26.7312 21.6837 26.93C21.8312 27.0294 21.9296 27.1287 22.0771 27.2778L24.4374 31.6005C24.1423 31.6502 23.8473 31.6999 23.5031 31.7992ZM29.5021 27.4765C28.7645 28.669 27.7319 29.7124 26.5518 30.4577L24.6341 25.7872C24.5357 25.3897 24.7324 24.9922 25.0766 24.8432C25.2241 24.7935 25.3716 24.7438 25.5192 24.7438L30.4364 25.5884C30.1905 26.2841 29.8955 26.93 29.5021 27.4765Z" fill="white"/>
</svg>
