<svg width="35" height="27" viewBox="0 0 35 27" fill="none" xmlns="http://www.w3.org/2000/svg">
<path fill-rule="evenodd" clip-rule="evenodd" d="M33.7966 11.7102C33.7966 16.5302 33.7966 21.3502 33.7966 26.1702C32.4854 26.1702 31.1743 26.1702 29.8631 26.1702C29.9177 19.9252 29.8631 13.6811 29.6992 7.43795C29.1754 5.92668 28.1374 4.99555 26.5852 4.64454C23.3755 4.06249 21.081 5.21272 19.7015 8.09522C19.4498 8.34581 19.2859 8.67444 19.2099 9.08113C19.046 14.7764 18.9914 20.4728 19.046 26.1702C17.7348 26.1702 16.4236 26.1702 15.1125 26.1702C15.1671 19.9252 15.1124 13.6811 14.9486 7.43795C14.6008 6.43179 13.9999 5.6102 13.1457 4.97317C9.34139 3.68761 6.55515 4.83784 4.78701 8.42386C4.31309 14.321 4.14919 20.2365 4.29532 26.1702C2.98415 26.1702 1.67298 26.1702 0.361816 26.1702C0.361816 17.8448 0.361816 9.5193 0.361816 1.19386C1.56373 1.19386 2.76561 1.19386 3.96753 1.19386C3.91335 2.4038 3.96799 3.60881 4.13143 4.80886C5.91416 2.36666 8.31795 1.05211 11.3429 0.865219C14.7145 0.691633 17.1183 2.11571 18.5543 5.13749C20.0014 3.14234 21.9135 1.77301 24.2906 1.02954C31.7263 0.655648 34.895 4.21586 33.7966 11.7102Z" fill="#87060A"/>
</svg>
