<svg width="19" height="40" viewBox="0 0 19 40" fill="none" xmlns="http://www.w3.org/2000/svg">
<path d="M9.62026 0.978066L10.6821 2.91893C10.9208 3.2771 11.1794 3.59412 11.484 3.88936C12.3771 4.74766 13.2095 5.66371 13.9757 6.63126C15.7748 8.93029 16.9883 11.4834 17.8549 14.2447C18.3746 15.9314 18.6569 17.6618 18.678 19.4114C18.765 24.6423 16.9224 29.1339 13.2073 32.8668C12.603 33.4588 11.9502 34.0019 11.2553 34.4907C10.8872 34.4907 10.7132 34.216 10.5615 33.9631C10.2852 33.4941 10.1014 32.9791 10.0194 32.4445C9.88882 31.8117 9.80303 31.1788 9.8453 30.5254V30.2302C9.81546 30.1673 9.49095 1.1269 9.62026 0.978066Z" fill="#599636"/>
<path d="M9.62024 0.913943C9.57672 0.829242 9.53321 0.893372 9.48969 0.934513C9.51083 1.35802 9.35914 1.73554 9.12166 2.09613C8.86056 2.45429 8.51491 2.72897 8.16802 3.02421C6.24084 4.64805 4.72397 6.60949 3.50922 8.80324C1.89288 11.7557 1.05984 14.9199 0.823609 18.251C0.715439 19.4526 1.21402 23.6925 1.60318 24.9158C2.665 28.1635 4.57228 30.8848 7.0428 33.2468C7.64955 33.8155 8.29857 34.343 8.96997 34.85C9.16518 34.85 9.18631 34.6806 9.23107 34.5548C9.31666 34.2855 9.3819 34.0105 9.42628 33.732L9.86145 30.569L9.62024 0.913943Z" fill="#6CAC48"/>
<path d="M10.682 35.7757C10.7256 35.2917 10.9643 34.89 11.2241 34.4895C10.963 34.3842 10.7691 34.1749 10.6174 33.9413C10.4866 33.7202 10.3783 33.4872 10.2941 33.2456C9.99074 32.3598 9.92609 31.4305 9.83906 30.5254V29.9773C9.73089 30.062 9.7085 30.7783 9.7085 30.8848C9.64524 31.8414 9.51479 32.7927 9.3181 33.732C9.25344 34.1119 9.20993 34.4907 8.96996 34.8283C8.96996 34.8706 8.96996 34.913 8.9911 34.9759C9.38151 36.0939 9.48843 37.2326 9.55433 38.393V38.8165C9.55433 39.3223 9.53319 39.2158 9.96463 39.3852C10.1387 39.4481 10.3327 39.4699 10.5067 39.5957C10.6373 39.5957 10.6584 39.4904 10.6584 39.4057L10.5938 38.71V36.7691C10.5726 36.4303 10.6373 36.0939 10.6808 35.7769L10.682 35.7757Z" fill="#C2BFBF"/>
</svg>
