<svg width="57" height="35" viewBox="0 0 57 35" fill="none" xmlns="http://www.w3.org/2000/svg">
<path d="M50.8414 13.5918C50.8605 13.5792 50.8829 13.5725 50.9058 13.5725C50.9287 13.5725 50.9511 13.5792 50.9702 13.5918L52.0138 14.199C52.0525 14.2248 52.0783 14.2635 52.0783 14.3153V15.5298C52.0783 15.5814 52.0525 15.6202 52.0138 15.646L50.9702 16.2533C50.9511 16.2659 50.9287 16.2726 50.9058 16.2726C50.8829 16.2726 50.8605 16.2659 50.8414 16.2533L49.7978 15.646C49.7591 15.6202 49.7333 15.5814 49.7333 15.5298V14.3153C49.7333 14.2635 49.7591 14.2248 49.7978 14.199L50.8414 13.5918Z" fill="#539E43"/>
<path d="M21.3751 8.08796C21.275 8.03082 21.1617 8.00077 21.0465 8.00077C20.9313 8.00077 20.8181 8.03082 20.718 8.08796L15.2938 11.2273C15.0875 11.3435 14.9716 11.5632 14.9716 11.7957V18.0878C14.9716 18.3203 15.1005 18.54 15.2938 18.6562L20.718 21.7958C20.8181 21.8529 20.9313 21.883 21.0465 21.883C21.1617 21.883 21.275 21.8529 21.3751 21.7958L26.7994 18.6562C27.0055 18.54 27.1216 18.3203 27.1216 18.0878V11.7958C27.1216 11.5633 26.9926 11.3437 26.7994 11.2274L21.3751 8.08796Z" fill="url(#paint0_linear_108_237)"/>
<path d="M26.8122 11.2274L21.3622 8.08796C21.3087 8.06085 21.2526 8.0392 21.1947 8.02335L15.0875 18.5144C15.1381 18.5763 15.1992 18.6288 15.268 18.6694L20.718 21.809C20.8726 21.8994 21.053 21.9252 21.2204 21.8735L26.954 11.3567C26.9153 11.3051 26.8637 11.2661 26.8122 11.2274Z" fill="url(#paint1_linear_108_237)"/>
<path fill-rule="evenodd" clip-rule="evenodd" d="M20.5376 6.93801L20.4604 6.9768H20.5634L20.5376 6.93801Z" fill="url(#paint2_linear_108_237)"/>
<path fill-rule="evenodd" clip-rule="evenodd" d="M26.8252 18.6563C26.9798 18.5659 27.0957 18.4109 27.1473 18.243L21.1688 8.01038C21.0142 7.98456 20.8467 7.99753 20.7051 8.08796L15.2937 11.2145L21.1301 21.8863C21.215 21.8724 21.2975 21.8463 21.375 21.8089L26.8252 18.6563Z" fill="url(#paint3_linear_108_237)"/>
<path fill-rule="evenodd" clip-rule="evenodd" d="M27.3277 18.5531L27.289 18.4884V18.5789L27.3277 18.5531Z" fill="url(#paint4_linear_108_237)"/>
<path fill-rule="evenodd" clip-rule="evenodd" d="M26.8252 18.6563L21.388 21.7959C21.3112 21.8351 21.2285 21.8614 21.1432 21.8735L21.2463 22.0672L27.2761 18.566V18.4884L27.1214 18.2301C27.0956 18.411 26.9798 18.5659 26.8252 18.6563Z" fill="url(#paint5_linear_108_237)"/>
<path fill-rule="evenodd" clip-rule="evenodd" d="M26.8252 18.6563L21.388 21.7959C21.3112 21.8351 21.2285 21.8614 21.1432 21.8735L21.2463 22.0672L27.2761 18.566V18.4884L27.1214 18.2301C27.0956 18.411 26.9798 18.5659 26.8252 18.6563Z" fill="url(#paint6_linear_108_237)"/>
<path d="M28.1907 35C27.9975 35 27.8171 34.9484 27.6495 34.8579L25.936 33.8373C25.6783 33.6951 25.8071 33.6435 25.8845 33.6176C26.2323 33.5014 26.2967 33.4754 26.6575 33.2689C26.6962 33.2429 26.7478 33.2559 26.7864 33.2817L28.1006 34.0698C28.1521 34.0956 28.2165 34.0956 28.2551 34.0698L33.396 31.0853C33.4475 31.0595 33.4733 31.0077 33.4733 30.9432V24.9872C33.4733 24.9225 33.4475 24.8709 33.396 24.845L28.2551 21.8735C28.2036 21.8475 28.1392 21.8475 28.1006 21.8735L22.9597 24.845C22.9082 24.8708 22.8824 24.9354 22.8824 24.9871V30.9431C22.8824 30.9949 22.9082 31.0594 22.9597 31.0853L24.3642 31.8992C25.1243 32.2868 25.601 31.8346 25.601 31.3825V25.5039C25.601 25.4264 25.6654 25.3488 25.7556 25.3488H26.4127C26.4901 25.3488 26.5673 25.4134 26.5673 25.5039V31.3825C26.5673 32.4031 26.0133 32.9974 25.047 32.9974C24.7506 32.9974 24.5188 32.9974 23.8616 32.6744L22.5088 31.8992C22.1738 31.7055 21.9677 31.3437 21.9677 30.9561V25.0001C21.9677 24.6125 22.1738 24.2506 22.5088 24.0569L27.6495 21.0724C27.9717 20.8915 28.4098 20.8915 28.7319 21.0724L33.8726 24.0569C34.2076 24.2506 34.4139 24.6125 34.4139 25.0001V30.9561C34.4139 31.3437 34.2076 31.7055 33.8726 31.8992L28.7319 34.8837C28.5643 34.9613 28.371 35 28.1907 35ZM29.7755 30.9044C27.5208 30.9044 27.0569 29.8709 27.0569 28.9923C27.0569 28.9147 27.1214 28.8373 27.2115 28.8373H27.8815C27.9588 28.8373 28.0232 28.8889 28.0232 28.9665C28.1263 29.6512 28.4227 29.9871 29.7884 29.9871C30.8706 29.9871 31.3346 29.7416 31.3346 29.1602C31.3346 28.8243 31.2056 28.5789 29.5178 28.4109C28.1134 28.2687 27.2373 27.9587 27.2373 26.8347C27.2373 25.7882 28.1135 25.168 29.5823 25.168C31.2314 25.168 32.0432 25.7365 32.1463 26.9767C32.1463 27.0156 32.1333 27.0543 32.1076 27.0931C32.0817 27.1189 32.0432 27.1447 32.0045 27.1447H31.3345C31.2701 27.1447 31.2056 27.0931 31.1928 27.0284C31.0382 26.3179 30.6387 26.0853 29.5823 26.0853C28.3969 26.0853 28.2551 26.4988 28.2551 26.8088C28.2551 27.1835 28.4227 27.2997 30.0203 27.5064C31.605 27.7133 32.3524 28.0104 32.3524 29.1214C32.3395 30.2584 31.4119 30.9044 29.7755 30.9044Z" fill="#539E43"/>
<path d="M12.2401 11.7055C12.2401 11.473 12.1112 11.2532 11.9051 11.137L6.44215 7.98456C6.35185 7.9328 6.24884 7.90698 6.14584 7.89401H6.09422C5.99122 7.89401 5.8881 7.9328 5.79791 7.98456L0.334994 11.137C0.128758 11.2532 0 11.4729 0 11.7055L0.0129316 20.1809C0.0129316 20.2972 0.0773664 20.4134 0.180373 20.4652C0.283491 20.5298 0.412249 20.5298 0.502547 20.4652L3.74937 18.6047C3.9555 18.4884 4.08437 18.2688 4.08437 18.0363V14.0698C4.08437 13.8373 4.21313 13.6176 4.41936 13.5014L5.79791 12.7003C5.90103 12.6357 6.01697 12.6098 6.13291 12.6098C6.24884 12.6098 6.36478 12.6357 6.45508 12.7003L7.83363 13.5014C8.03987 13.6176 8.16862 13.8372 8.16862 14.0698V18.0363C8.16862 18.2688 8.29749 18.4884 8.50362 18.6047L11.7504 20.4652C11.8536 20.5298 11.9823 20.5298 12.0854 20.4652C12.1886 20.4134 12.253 20.2972 12.253 20.1809L12.2401 11.7055ZM38.4982 0.0388182C38.3952 -0.0129394 38.2663 -0.0129394 38.176 0.0388182C38.073 0.103431 38.0085 0.206723 38.0085 0.322982V8.72101C38.0085 8.79848 37.97 8.87595 37.8926 8.92771C37.8154 8.96639 37.738 8.96639 37.6607 8.92771L36.295 8.13961C36.1949 8.08244 36.0816 8.05238 35.9664 8.05238C35.8512 8.05238 35.738 8.08244 35.6378 8.13961L30.1749 11.305C29.9688 11.4212 29.8399 11.6409 29.8399 11.8734V18.1912C29.8399 18.4237 29.9688 18.6435 30.1749 18.7597L35.6378 21.9251C35.738 21.9823 35.8512 22.0123 35.9664 22.0123C36.0816 22.0123 36.1949 21.9823 36.295 21.9251L41.7579 18.7597C41.964 18.6435 42.0929 18.4238 42.0929 18.1912V2.44191C42.0929 2.19643 41.964 1.97688 41.7579 1.86051L38.4982 0.0388182ZM37.9957 16.1112C37.9957 16.1758 37.97 16.2274 37.9184 16.2532L36.0502 17.3385C36.0241 17.3512 35.9955 17.3579 35.9664 17.3579C35.9374 17.3579 35.9087 17.3512 35.8826 17.3385L34.0145 16.2532C33.9629 16.2274 33.9371 16.1628 33.9371 16.1112V13.9406C33.9371 13.876 33.9629 13.8243 34.0145 13.7985L35.8826 12.7132C35.9087 12.7004 35.9374 12.6938 35.9664 12.6938C35.9955 12.6938 36.0241 12.7004 36.0502 12.7132L37.9184 13.7985C37.97 13.8242 37.9957 13.8889 37.9957 13.9406V16.1112ZM56.6778 13.8889C56.8841 13.7727 57 13.553 57 13.3204V11.783C57 11.5505 56.8711 11.3308 56.6778 11.2145L51.2536 8.06214C51.1535 8.00499 51.0403 7.97494 50.9251 7.97494C50.8099 7.97494 50.6966 8.00499 50.5965 8.06214L45.1336 11.2274C44.9274 11.3437 44.7986 11.5633 44.7986 11.7959V18.1137C44.7986 18.3462 44.9274 18.5659 45.1336 18.6822L50.5579 21.7829C50.7641 21.8992 51.0088 21.8992 51.2021 21.7829L54.4875 19.9485C54.5906 19.8967 54.655 19.7805 54.655 19.6642C54.655 19.548 54.5906 19.4317 54.4875 19.3799L48.9988 16.2146C48.8958 16.1501 48.8314 16.0467 48.8314 15.9304V13.9537C48.8314 13.8374 48.8958 13.7212 48.9988 13.6694L50.7125 12.6875C50.7626 12.6558 50.8207 12.639 50.88 12.639C50.9392 12.639 50.9973 12.6558 51.0475 12.6875L52.761 13.6694C52.8641 13.734 52.9286 13.8373 52.9286 13.9537V15.504C52.9286 15.6203 52.993 15.7366 53.096 15.7882C53.1991 15.8528 53.3279 15.8528 53.431 15.7882L56.6778 13.8889Z" fill="#333333"/>
<defs>
<linearGradient id="paint0_linear_108_237" x1="3886.72" y1="612.045" x2="2868.37" y2="3581.27" gradientUnits="userSpaceOnUse">
<stop stop-color="#41873F"/>
<stop offset="0.3288" stop-color="#418B3D"/>
<stop offset="0.6352" stop-color="#419637"/>
<stop offset="0.9319" stop-color="#3FA92D"/>
<stop offset="1" stop-color="#3FAE2A"/>
</linearGradient>
<linearGradient id="paint1_linear_108_237" x1="2466.79" y1="1930.91" x2="6953.53" y2="-2698.64" gradientUnits="userSpaceOnUse">
<stop offset="0.1376" stop-color="#41873F"/>
<stop offset="0.4032" stop-color="#54A044"/>
<stop offset="0.7136" stop-color="#66B848"/>
<stop offset="0.9081" stop-color="#6CC04A"/>
</linearGradient>
<linearGradient id="paint2_linear_108_237" x1="-251585" y1="470.045" x2="303692" y2="470.045" gradientUnits="userSpaceOnUse">
<stop offset="0.09192" stop-color="#6CC04A"/>
<stop offset="0.2864" stop-color="#66B848"/>
<stop offset="0.5968" stop-color="#54A044"/>
<stop offset="0.8624" stop-color="#41873F"/>
</linearGradient>
<linearGradient id="paint3_linear_108_237" x1="-250.173" y1="1749.9" x2="5785.44" y2="1749.9" gradientUnits="userSpaceOnUse">
<stop offset="0.09192" stop-color="#6CC04A"/>
<stop offset="0.2864" stop-color="#66B848"/>
<stop offset="0.5968" stop-color="#54A044"/>
<stop offset="0.8624" stop-color="#41873F"/>
</linearGradient>
<linearGradient id="paint4_linear_108_237" x1="-553685" y1="1267.35" x2="1592" y2="1267.35" gradientUnits="userSpaceOnUse">
<stop offset="0.09192" stop-color="#6CC04A"/>
<stop offset="0.2864" stop-color="#66B848"/>
<stop offset="0.5968" stop-color="#54A044"/>
<stop offset="0.8624" stop-color="#41873F"/>
</linearGradient>
<linearGradient id="paint5_linear_108_237" x1="-5920.08" y1="1759.63" x2="5745.43" y2="1759.63" gradientUnits="userSpaceOnUse">
<stop offset="0.09192" stop-color="#6CC04A"/>
<stop offset="0.2864" stop-color="#66B848"/>
<stop offset="0.5968" stop-color="#54A044"/>
<stop offset="0.8624" stop-color="#41873F"/>
</linearGradient>
<linearGradient id="paint6_linear_108_237" x1="7444.94" y1="-7387.41" x2="4579.62" y2="7869.24" gradientUnits="userSpaceOnUse">
<stop stop-color="#41873F"/>
<stop offset="0.3288" stop-color="#418B3D"/>
<stop offset="0.6352" stop-color="#419637"/>
<stop offset="0.9319" stop-color="#3FA92D"/>
<stop offset="1" stop-color="#3FAE2A"/>
</linearGradient>
</defs>
</svg>
