<svg width="40" height="41" viewBox="0 0 40 41" fill="none" xmlns="http://www.w3.org/2000/svg">
<path d="M39.8941 24.5599C39.6537 23.836 39.0239 23.3318 38.2095 23.2108C37.8254 23.1538 37.3856 23.1781 36.8652 23.2847C35.958 23.4708 35.285 23.5417 34.7938 23.5554C36.6478 20.4434 38.1553 16.8946 39.0232 13.554C40.4265 8.15232 39.6766 5.69153 38.8003 4.57847C36.4811 1.63231 33.0975 0.0496004 29.0156 0.0011725C26.838 -0.0252994 24.9264 0.402143 23.9292 0.709528C23.0007 0.546648 22.0024 0.45571 20.9549 0.438892C18.9912 0.407749 17.2563 0.833323 15.7739 1.70798C14.9531 1.43205 13.6359 1.04307 12.1148 0.794861C8.53714 0.210923 5.65366 0.665928 3.54455 2.14726C0.990616 3.94081 -0.193315 7.05701 0.0256472 11.4093C0.0951888 12.7911 0.872677 16.9955 2.09686 20.9828C2.80042 23.2746 3.55066 25.1778 4.32673 26.64C5.42734 28.7133 6.60501 29.9343 7.92708 30.3728C8.66807 30.6182 10.0144 30.7901 11.4305 29.6176C11.61 29.8337 11.8494 30.0484 12.1672 30.2479C12.5709 30.5009 13.0644 30.7077 13.5573 30.8303C15.3336 31.2718 16.9974 31.1613 18.4169 30.5425C18.4257 30.7935 18.4324 31.0333 18.438 31.2405C18.4474 31.5763 18.4568 31.9057 18.4692 32.2137C18.5533 34.2962 18.6959 35.9155 19.1181 37.0485C19.1413 37.1108 19.1725 37.2058 19.2054 37.3066C19.416 37.9478 19.7683 39.0213 20.6645 39.862C21.5925 40.7329 22.715 41 23.7431 41C24.2587 41 24.7507 40.9327 25.1822 40.8409C26.7202 40.5131 28.4671 40.0138 29.7307 38.225C30.9255 36.5339 31.5062 33.9868 31.6113 29.9735C31.625 29.86 31.6375 29.7516 31.6495 29.6484L31.6746 29.4363L31.9561 29.4609L32.0286 29.4657C33.5951 29.5368 35.5107 29.2065 36.6871 28.6632C37.6167 28.2343 40.5955 26.6708 39.8941 24.5599Z" fill="black"/>
<path d="M37.2156 24.9704C32.5575 25.9257 32.2372 24.3578 32.2372 24.3578C37.1553 17.1025 39.2113 7.8929 37.4372 5.6389C32.5968 -0.509574 24.2182 2.39828 24.0783 2.47365L24.0334 2.48175C23.113 2.29177 22.0832 2.17872 20.9256 2.15988C18.818 2.12562 17.2192 2.70925 16.006 3.62393C16.006 3.62393 1.05924 -2.49792 1.7545 11.3232C1.90236 14.2634 5.99341 33.5709 10.8729 27.7392C12.6564 25.6066 14.3798 23.8036 14.3798 23.8036C15.2356 24.3688 16.2602 24.6572 17.3343 24.5537L17.4178 24.4833C17.3918 24.748 17.4037 25.007 17.4512 25.3136C16.1941 26.7099 16.5636 26.955 14.0507 27.4693C11.5079 27.9903 13.0016 28.9178 13.9769 29.1604C15.1593 29.4542 17.8946 29.8706 19.7428 27.2983L19.6691 27.5919C20.1616 27.9841 20.5074 30.143 20.4495 32.1002C20.3915 34.0572 20.3528 35.4009 20.7408 36.4504C21.129 37.5 21.5158 39.8614 24.8193 39.1577C27.5795 38.5696 29.01 37.0456 29.209 34.5033C29.3502 32.6961 29.6698 32.9633 29.6899 31.3474L29.9463 30.5826C30.2418 28.1327 29.9933 27.3422 31.6937 27.7099L32.1072 27.746C33.3587 27.8025 34.997 27.5458 35.9585 27.1015C38.0288 26.1463 39.2567 24.5513 37.2153 24.9704H37.2156Z" fill="#336791"/>
<path d="M16.8809 12.6381C16.4611 12.58 16.081 12.6337 15.8887 12.7785C15.7806 12.86 15.7471 12.9543 15.738 13.0193C15.7139 13.1913 15.8351 13.3816 15.9096 13.4797C16.1205 13.7575 16.4284 13.9484 16.7332 13.9905C16.7774 13.9967 16.8214 13.9995 16.8651 13.9995C17.3733 13.9995 17.8355 13.606 17.8762 13.3156C17.9271 12.9518 17.396 12.7092 16.8809 12.6381ZM30.7867 12.6496C30.7466 12.3645 30.2363 12.2832 29.752 12.3501C29.2684 12.4171 28.7994 12.6342 28.8386 12.9199C28.8699 13.1421 29.2735 13.5214 29.7513 13.5214C29.7917 13.5214 29.8324 13.5188 29.8734 13.513C30.1923 13.4691 30.4263 13.2678 30.5375 13.1518C30.7067 12.9749 30.8047 12.7777 30.7867 12.6496Z" fill="white"/>
<path d="M38.7655 24.8618C38.5879 24.3279 38.0162 24.1561 37.0665 24.3511C34.2464 24.9297 33.2365 24.5289 32.9049 24.2861C35.0969 20.9663 36.9001 16.9531 37.8729 13.2089C38.3337 11.4353 38.5882 9.78813 38.6091 8.44554C38.6321 6.97199 38.3796 5.88913 37.859 5.22765C35.7599 2.561 32.6791 1.13058 28.9498 1.09134C26.386 1.06269 24.2199 1.71499 23.8 1.89842C22.9157 1.6798 21.9517 1.54557 20.9021 1.52844C18.9775 1.49745 17.3138 1.95557 15.9365 2.88941C15.3381 2.66798 13.7919 2.14025 11.901 1.83738C8.63192 1.31417 6.03414 1.71063 4.18032 3.01631C1.9683 4.57442 0.947103 7.35957 1.14492 11.2942C1.21149 12.618 1.97018 16.6903 3.16742 20.5902C4.74339 25.7232 6.45655 28.6291 8.259 29.2269C8.46997 29.2968 8.71321 29.3457 8.98151 29.3457C9.63902 29.3457 10.4452 29.0511 11.2839 28.0486C12.3069 26.8285 13.3651 25.638 14.4573 24.4786C15.1659 24.8567 15.9443 25.0678 16.7404 25.089C16.742 25.1097 16.744 25.1304 16.7459 25.151C16.6089 25.3135 16.4747 25.4783 16.3434 25.6454C15.7917 26.3416 15.6769 26.4866 13.9013 26.85C13.3962 26.9537 12.0547 27.2286 12.0349 28.1635C12.0136 29.185 13.6208 29.614 13.8038 29.6595C14.4419 29.8183 15.0567 29.8966 15.6429 29.8966C17.0687 29.8966 18.3234 29.4307 19.3261 28.5293C19.2953 32.1709 19.448 35.7592 19.8878 36.8525C20.248 37.7475 21.128 39.9349 23.9074 39.9347C24.3153 39.9347 24.7642 39.8876 25.258 39.7823C28.1589 39.1641 29.4186 37.8894 29.9059 35.0792C30.1666 33.5773 30.6141 29.991 30.8246 28.0672C31.2688 28.2051 31.8407 28.2681 32.4589 28.268C33.7482 28.268 35.236 27.9956 36.169 27.5651C37.2171 27.0811 39.1085 25.8936 38.7655 24.8618ZM31.8574 11.8626C31.8479 12.4305 31.7692 12.9461 31.6859 13.4842C31.5962 14.063 31.5034 14.6614 31.4801 15.3879C31.4571 16.0948 31.5459 16.8298 31.6317 17.5406C31.8053 18.9763 31.9833 20.4544 31.294 21.9129C31.1795 21.7111 31.0775 21.5027 30.9886 21.2886C30.9029 21.0821 30.7169 20.7504 30.4592 20.2914C29.457 18.5044 27.1099 14.3196 28.3114 12.612C28.6693 12.1038 29.5776 11.5812 31.8574 11.8626ZM29.0939 2.24131C32.4354 2.31465 35.0786 3.55743 36.9499 5.93491C38.3853 7.75851 36.8047 16.0562 32.2292 23.2146C32.1832 23.1565 32.137 23.0985 32.0905 23.0407L32.0325 22.9688C33.2149 21.0275 32.9837 19.1067 32.7779 17.4038C32.6933 16.7049 32.6135 16.0448 32.6338 15.4248C32.6548 14.7676 32.7422 14.2039 32.8268 13.6589C32.9306 12.9873 33.0363 12.2924 33.0072 11.4731C33.029 11.3872 33.0377 11.2857 33.0263 11.1651C32.9519 10.3795 32.0498 8.02837 30.211 5.90035C29.2051 4.73636 27.7383 3.43379 25.7356 2.55524C26.597 2.37772 27.775 2.21219 29.0939 2.24131ZM10.3963 27.3148C9.47222 28.4195 8.83413 28.2077 8.62425 28.1383C7.25691 27.6848 5.6703 24.8115 4.27148 20.2553C3.06108 16.3128 2.35376 12.3484 2.29768 11.2368C2.12101 7.72099 2.97822 5.27078 4.84566 3.95404C7.88482 1.81138 12.8815 3.09386 14.8893 3.74429C14.8604 3.77263 14.8304 3.7991 14.8019 3.82791C11.5071 7.13596 11.5853 12.7879 11.5934 13.1334C11.5931 13.2667 11.6044 13.4554 11.6197 13.715C11.6764 14.6656 11.782 16.4349 11.5 18.4385C11.2382 20.3004 11.8155 22.1228 13.0837 23.4384C13.2138 23.5732 13.3506 23.7014 13.4936 23.8227C12.9291 24.4238 11.7023 25.753 10.3963 27.3148ZM13.9171 22.6444C12.895 21.584 12.4307 20.109 12.6433 18.5973C12.9408 16.4808 12.831 14.6375 12.772 13.6471C12.7637 13.5085 12.7563 13.3871 12.7521 13.2913C13.2334 12.867 15.4639 11.6788 17.0546 12.0412C17.7804 12.2064 18.2227 12.6978 18.4066 13.5431C19.3583 17.9192 18.5325 19.7431 17.8691 21.2089C17.7323 21.5108 17.6031 21.7962 17.4928 22.0915L17.4073 22.3197C17.1909 22.8968 16.9895 23.4334 16.8646 23.9429C15.778 23.9398 14.7209 23.4784 13.9171 22.6444ZM14.0839 28.5461C13.7666 28.4673 13.4812 28.3304 13.3138 28.2169C13.4536 28.1515 13.7025 28.0624 14.1342 27.974C16.2231 27.5465 16.5457 27.2448 17.2502 26.3555C17.4117 26.1515 17.5948 25.9204 17.8484 25.6388L17.8487 25.6385C18.2263 25.2181 18.3991 25.2894 18.7123 25.4187C18.9662 25.523 19.2135 25.8394 19.3138 26.1876C19.3612 26.352 19.4145 26.6641 19.2402 26.907C17.7685 28.9556 15.624 28.9293 14.0839 28.5461ZM25.0162 38.6602C22.4607 39.2046 21.5559 37.9082 20.9596 36.4263C20.5748 35.4696 20.3856 31.1553 20.5198 26.3908C20.5215 26.3274 20.5124 26.2662 20.4949 26.2086C20.4792 26.0948 20.4553 25.9823 20.4235 25.872C20.2239 25.1787 19.7376 24.5988 19.1542 24.3584C18.9224 24.2629 18.497 24.0878 17.9857 24.2178C18.0948 23.7712 18.2838 23.2668 18.4888 22.7207L18.5748 22.491C18.6716 22.2321 18.7931 21.9638 18.9216 21.6797C19.6159 20.1462 20.5668 18.0458 19.5348 13.3006C19.1482 11.5233 17.8573 10.6553 15.9004 10.857C14.7273 10.9776 13.654 11.4482 13.1186 11.7181C13.0035 11.776 12.8982 11.8321 12.7999 11.8866C12.9493 10.0958 13.5138 6.74916 15.6254 4.63172C16.955 3.29878 18.7256 2.64041 20.883 2.67592C25.1338 2.74506 27.8597 4.91388 29.3981 6.72128C30.7238 8.27861 31.4416 9.84745 31.728 10.6936C29.5737 10.4758 28.1084 10.8985 27.3657 11.9543C25.7498 14.2508 28.2497 18.708 29.4512 20.8502C29.6716 21.2428 29.8617 21.5821 29.9215 21.7263C30.3128 22.669 30.8193 23.2984 31.1891 23.7578C31.3025 23.8986 31.4124 24.0351 31.4961 24.1544C30.8436 24.3414 29.6716 24.7735 29.7784 26.9335C29.6922 28.0173 29.0797 33.0915 28.7685 34.8842C28.3576 37.2527 27.481 38.1347 25.0162 38.6602ZM35.683 26.5243C35.0158 26.8321 33.8992 27.063 32.8385 27.1127C31.667 27.1672 31.0705 26.9822 30.9302 26.8684C30.8644 25.5224 31.3683 25.3818 31.9016 25.2329C31.9854 25.2095 32.0671 25.1866 32.1461 25.1592C32.1951 25.1989 32.2488 25.2383 32.3077 25.277C33.2494 25.8948 34.9288 25.9615 37.3 25.4749L37.326 25.4697C37.0062 25.767 36.4589 26.1659 35.683 26.5243Z" fill="white"/>
</svg>
