<svg width="36" height="44" viewBox="0 0 36 44" fill="none" xmlns="http://www.w3.org/2000/svg">
<path fill-rule="evenodd" clip-rule="evenodd" d="M32.4167 34.4738L12.8955 40.2461C12.2992 40.4226 11.7276 39.9069 11.8529 39.3055L18.8267 5.91447C18.9571 5.29038 19.8204 5.19123 20.0928 5.76948L33.0053 33.1832C33.2488 33.7003 32.971 34.3101 32.4167 34.4738ZM35.7644 33.1122L20.8135 1.37065C20.6277 0.979781 20.3396 0.645782 19.9797 0.405351C19.6199 0.16492 19.2016 0.0263414 18.7693 0.00430914C17.8595 -0.0486602 17.0444 0.390035 16.5845 1.1367L0.369579 27.3939C0.123243 27.7905 -0.00490885 28.2491 0.000143847 28.716C0.00519654 29.1828 0.143244 29.6386 0.398107 30.0298L8.32422 42.3051C8.79663 43.0378 9.61512 43.4619 10.4659 43.4619C10.707 43.4619 10.9495 43.428 11.1879 43.3574L34.1953 36.5542C34.5416 36.4527 34.8622 36.2781 35.1352 36.0422C35.4082 35.8062 35.6274 35.5144 35.778 35.1865C35.9265 34.8605 36.0023 34.506 35.9999 34.1477C35.9976 33.7894 35.9172 33.4363 35.7644 33.1122Z" fill="#0C344B"/>
</svg>
