<svg width="55" height="7" viewBox="0 0 55 7" fill="none" xmlns="http://www.w3.org/2000/svg">
<path fill-rule="evenodd" clip-rule="evenodd" d="M18.8249 0C19.0563 0 19.2876 0 19.5189 0C19.5045 0.809624 19.5189 1.6186 19.5623 2.42693C20.1948 1.78701 20.9032 1.67375 21.6877 2.08716C21.8506 2.23694 21.9808 2.41491 22.0781 2.62109C22.2034 3.90833 22.2467 5.20266 22.2082 6.50417C21.9768 6.50417 21.7456 6.50417 21.5142 6.50417C21.5287 5.40351 21.5142 4.30324 21.4708 3.20355C21.3378 2.6998 21.0341 2.47328 20.5599 2.52401C20.1212 2.50246 19.7886 2.69661 19.5623 3.10647C19.5189 4.23859 19.5045 5.37119 19.5189 6.50417C19.2876 6.50417 19.0563 6.50417 18.8249 6.50417C18.8249 4.33615 18.8249 2.16806 18.8249 0Z" fill="#3BB6BF"/>
<path fill-rule="evenodd" clip-rule="evenodd" d="M47.8865 6.98956C47.6645 7.01887 47.462 6.98645 47.2792 6.89248C48.0021 4.69203 48.7251 2.49165 49.448 0.291228C49.6811 0.275297 49.9124 0.29148 50.142 0.339766C49.3537 2.54091 48.6018 4.75756 47.8865 6.98956Z" fill="#41B8C0"/>
<path fill-rule="evenodd" clip-rule="evenodd" d="M33.8328 0.776609C34.0642 0.776609 34.2955 0.776609 34.5268 0.776609C34.5268 1.13256 34.5268 1.48851 34.5268 1.84446C35.0473 1.84446 35.5678 1.84446 36.0883 1.84446C36.0883 2.07097 36.0883 2.29749 36.0883 2.524C35.5678 2.524 35.0473 2.524 34.5268 2.524C34.4896 3.56709 34.533 4.60262 34.657 5.63047C34.8177 5.83356 35.0201 5.93063 35.2642 5.9217C35.5655 5.85734 35.8691 5.82501 36.1751 5.82463C36.204 6.01878 36.233 6.21293 36.2619 6.40709C35.6564 6.61745 35.0492 6.63357 34.4401 6.45563C34.1586 6.26332 33.9707 5.9883 33.8762 5.63047C33.8328 4.59553 33.8183 3.56001 33.8328 2.524C33.4569 2.524 33.081 2.524 32.7051 2.524C32.7051 2.32984 32.7051 2.13569 32.7051 1.94154C33.081 1.94154 33.4569 1.94154 33.8328 1.94154C33.8328 1.55323 33.8328 1.16492 33.8328 0.776609Z" fill="#3CB7BF"/>
<path fill-rule="evenodd" clip-rule="evenodd" d="M7.20034 0.436838C6.39651 0.302263 5.58679 0.253724 4.77131 0.291226V6.50417H5.4653V3.98016C5.84235 3.96405 6.21822 3.98025 6.59309 4.0287C6.92758 4.82599 7.2746 5.61873 7.6341 6.40709C7.89433 6.53649 8.1546 6.53649 8.41483 6.40709L7.28708 3.88308C7.46057 3.70572 7.64859 3.5439 7.85098 3.3977C7.98855 3.18704 8.10428 2.96048 8.19795 2.71816C8.45355 1.62385 8.12102 0.86341 7.20034 0.436838ZM7.02681 1.11639C6.51437 0.984283 5.99387 0.935743 5.4653 0.970768V3.30062C5.90002 3.31674 6.33378 3.30053 6.76658 3.25209C7.14793 3.18122 7.39379 2.93856 7.50396 2.524C7.6724 1.90371 7.5134 1.4345 7.02681 1.11639Z" fill="#3CB7BF"/>
<path fill-rule="evenodd" clip-rule="evenodd" d="M14.7476 3.59186C14.648 4.02686 14.6336 4.47992 14.7043 4.95094C14.7375 5.00492 14.7809 5.03724 14.8344 5.04802C15.1908 5.95618 15.7692 6.16644 16.5694 5.67902C16.7387 5.51069 16.8254 5.30032 16.8297 5.04802C17.061 5.04802 17.2923 5.04802 17.5237 5.04802C17.4062 5.87541 16.9724 6.37701 16.2224 6.55271C14.7361 6.65348 13.9843 5.86075 13.9669 4.17432C14.1859 2.0128 15.198 1.34943 17.0032 2.18424C17.3781 2.52181 17.5516 2.95865 17.5237 3.49478C17.2923 3.49478 17.061 3.49478 16.8297 3.49478C16.7765 2.85278 16.4584 2.49683 15.8754 2.42693C15.2229 2.48397 14.847 2.87227 14.7476 3.59186Z" fill="#3FB7C0"/>
<path fill-rule="evenodd" clip-rule="evenodd" d="M28.8013 6.50417C28.8013 4.98326 28.8013 3.46245 28.8013 1.94154C29.0037 1.94154 29.2061 1.94154 29.4085 1.94154C29.3826 2.14579 29.4115 2.33995 29.4953 2.524C29.5479 2.51201 29.5768 2.47965 29.582 2.42693C29.776 2.19459 30.0074 2.01662 30.276 1.893C30.7088 1.84453 31.1426 1.82836 31.5773 1.84446C31.6013 2.1306 31.5724 2.40566 31.4905 2.66962C31.0635 2.61599 30.6297 2.61599 30.1893 2.66962C29.9446 2.84653 29.7277 3.05687 29.5387 3.30062C29.4953 4.36799 29.4808 5.43584 29.4953 6.50417C29.2639 6.50417 29.0326 6.50417 28.8013 6.50417Z" fill="#3CB7BF"/>
<path fill-rule="evenodd" clip-rule="evenodd" d="M38.6041 1.84446C39.2019 1.78634 39.7803 1.86724 40.3391 2.08715C40.7031 2.3489 40.9055 2.72103 40.9464 3.20354C40.6862 3.20354 40.4259 3.20354 40.1656 3.20354C40.0424 2.70339 39.7387 2.44452 39.2548 2.42692C38.8181 2.43422 38.5433 2.66073 38.4306 3.10647C38.4225 3.34062 38.5092 3.51856 38.6909 3.64039C39.2114 3.80222 39.7319 3.96395 40.2524 4.12578C40.9481 4.50651 41.136 5.10519 40.8163 5.9217C40.146 6.58222 39.3798 6.76016 38.5174 6.45563C37.8837 6.24876 37.5656 5.77958 37.5631 5.04801C37.8014 5.01762 38.0328 5.04995 38.2571 5.14509C38.3238 5.52709 38.5261 5.76978 38.8644 5.87317C39.3722 6.00995 39.8205 5.89676 40.209 5.5334C40.2993 5.22896 40.227 4.98627 39.9921 4.80532C39.5386 4.61369 39.0759 4.45186 38.6041 4.31993C37.6337 3.90997 37.4314 3.23043 37.9969 2.28131C38.2049 2.13334 38.4073 1.98773 38.6041 1.84446Z" fill="#40B8C0"/>
<path fill-rule="evenodd" clip-rule="evenodd" d="M3.12303 1.84447C3.28679 2.08598 3.34463 2.37721 3.29653 2.71816C2.45106 3.02822 1.61247 3.368 0.780755 3.73747C1.59043 4.09346 2.40011 4.44934 3.20978 4.80532C3.29165 5.06928 3.32057 5.3443 3.29653 5.63048C2.21546 5.1514 1.14552 4.63359 0.0867486 4.07724C-0.0289162 3.85076 -0.0289162 3.62418 0.0867486 3.3977C1.11704 2.90177 2.12912 2.38402 3.12303 1.84447Z" fill="#41B8C0"/>
<path fill-rule="evenodd" clip-rule="evenodd" d="M51.6167 1.84447C52.7206 2.3427 53.8194 2.86044 54.9133 3.3977C55.0289 3.62418 55.0289 3.85076 54.9133 4.07724C53.8434 4.59496 52.7734 5.11277 51.7035 5.63048C51.6181 5.34624 51.5892 5.05501 51.6167 4.75678C52.4908 4.44614 53.3583 4.10637 54.2193 3.73747C53.3806 3.38149 52.5421 3.02558 51.7035 2.66962C51.6216 2.40566 51.5927 2.1306 51.6167 1.84447Z" fill="#3FB7C0"/>
<path fill-rule="evenodd" clip-rule="evenodd" d="M25.765 1.893C25.3322 1.84453 24.8984 1.82836 24.4637 1.84446C23.8839 2.0721 23.5658 2.52512 23.5095 3.20355H24.2035C24.393 2.55319 24.7979 2.31049 25.418 2.47547C25.9688 2.65724 26.1712 3.06174 26.0252 3.68893C25.5905 3.67281 25.1568 3.68903 24.724 3.73747C23.5717 3.95832 23.1814 4.6864 23.5529 5.92171C24.2314 6.69299 24.9978 6.80628 25.8517 6.26148C26.0849 5.96297 26.1717 6.04383 26.112 6.50417H26.8928C26.8316 5.30857 26.7883 4.11122 26.7626 2.91232C26.6045 2.36214 26.272 2.02237 25.765 1.893ZM24.4638 5.7761C25.6139 6.09072 26.1344 5.58912 26.0253 4.2714H24.8107C24.0518 4.58603 23.9361 5.08763 24.4638 5.7761Z" fill="#3CB7BF"/>
<path fill-rule="evenodd" clip-rule="evenodd" d="M9.97634 4.36846H12.9259C13.0533 2.45613 12.2726 1.63098 10.5836 1.893C9.50408 2.51355 9.08481 3.50049 9.32574 4.85385C9.47484 5.76502 9.95199 6.33127 10.7571 6.5527C11.6028 6.72822 12.2968 6.4532 12.8391 5.72755C12.75 5.54689 12.6198 5.41738 12.4488 5.33924C12.2399 5.57766 11.9941 5.7556 11.7114 5.87317C10.8434 6.08198 10.294 5.70988 10.0631 4.75677C9.98211 4.6531 9.95312 4.52369 9.97634 4.36846ZM12.1451 3.3977C12.0908 3.12443 11.9751 2.88174 11.7981 2.66961C10.8499 2.22662 10.2715 2.56639 10.0631 3.68893C10.7701 3.78532 11.493 3.81765 12.2318 3.78601C12.2551 3.63078 12.2261 3.50137 12.1451 3.3977Z" fill="#3CB7BF"/>
</svg>
