<svg width="55" height="45" viewBox="0 0 55 45" fill="none" xmlns="http://www.w3.org/2000/svg">
<path fill-rule="evenodd" clip-rule="evenodd" d="M45.3007 3.97504L46.4309 5.44305C46.7276 5.8305 46.6534 6.38585 46.2607 6.67859L45.0607 7.57834C45.2789 8.15091 45.4185 8.76222 45.4753 9.38645L46.8411 9.57156C47.3298 9.63614 47.6702 10.0839 47.6047 10.566L47.3516 12.3957C47.2862 12.8778 46.8323 13.2179 46.3436 13.149L44.8513 12.9467C44.5851 13.5193 44.2447 14.0445 43.8433 14.5137L44.6811 15.5986C44.9778 15.986 44.8993 16.5414 44.5065 16.8341L43.0185 17.9491C42.6258 18.2419 42.0629 18.1644 41.7662 17.7812L40.8542 16.5974C40.2695 16.8126 39.6542 16.9504 39.0171 17.0063L38.8295 18.3538C38.764 18.836 38.3102 19.1717 37.8215 19.1072L35.9669 18.8575C35.4782 18.7929 35.1378 18.3452 35.2033 17.863L35.4084 16.3907C34.8324 16.1281 34.2957 15.7923 33.82 15.4006L32.7204 16.2228C32.3277 16.5156 31.7648 16.4424 31.468 16.0549L30.3379 14.5869C30.0411 14.1995 30.1153 13.6441 30.508 13.3514L31.708 12.4516C31.4899 11.8747 31.3502 11.2677 31.2935 10.6435L29.9277 10.4584C29.4389 10.3938 29.0942 9.9461 29.164 9.46394L29.4171 7.6343C29.4869 7.15214 29.9364 6.81635 30.4251 6.88093L31.9175 7.08326C32.1837 6.515 32.524 5.98548 32.9211 5.51624L32.0877 4.43137C31.7909 4.04823 31.8651 3.49288 32.2578 3.20014L33.7458 2.08514C34.1386 1.7924 34.7015 1.86558 34.9982 2.25303L35.9102 3.43691C36.4906 3.22166 37.1102 3.0839 37.7429 3.02794L37.9306 1.68047C37.996 1.19831 38.4498 0.858209 38.9385 0.922784L40.7931 1.17248C41.2818 1.23705 41.6265 1.68477 41.5567 2.16693L41.3516 3.63925C41.932 3.90186 42.4644 4.23765 42.9444 4.63371L44.044 3.81145C44.4367 3.5144 44.9996 3.58759 45.3007 3.97504ZM13.3939 22.7062H17.103C17.7925 22.7062 18.3161 22.7621 18.6783 22.8827C19.0404 22.9989 19.3372 23.2142 19.5554 23.5284C19.7779 23.847 19.8914 24.2301 19.8914 24.6822C19.8914 25.0739 19.8041 25.4183 19.6339 25.7025C19.4637 25.9909 19.2281 26.2234 18.9314 26.3999C18.7437 26.5118 18.4819 26.6065 18.1503 26.6797C18.4165 26.7701 18.6084 26.8519 18.7263 26.9423C18.8092 27.0026 18.927 27.1274 19.0797 27.3168C19.2324 27.5063 19.3372 27.6569 19.3895 27.7603L20.4717 29.8137H17.9583L16.7714 27.6483C16.6186 27.3685 16.4877 27.1834 16.3699 27.1016C16.2085 26.994 16.0252 26.938 15.8245 26.938H15.6281V29.8137H13.3939V22.7062ZM21.2397 42.1778H17.0855L16.4877 44.1064H12.7437L17.2077 32.4011H21.2223L25.6688 44.1064H21.8288L21.2397 42.1778ZM20.463 39.6421L19.167 35.4318L17.8666 39.6421H20.463ZM26.5328 32.4011H32.6331C33.964 32.4011 34.9589 32.711 35.6178 33.3353C36.2767 33.9595 36.6084 34.8506 36.6084 36.0001C36.6084 37.1839 36.2462 38.1095 35.5262 38.7768C34.8062 39.4441 33.7022 39.7756 32.2229 39.7756H30.2113V44.1064H26.5328V32.4011ZM30.2113 37.4035H31.1146C31.8259 37.4035 32.3277 37.283 32.6157 37.0376C32.9037 36.7965 33.0477 36.4822 33.0477 36.1077C33.0477 35.7418 32.9211 35.4275 32.6724 35.1735C32.4237 34.9195 31.9524 34.7904 31.2629 34.7904H30.2113V37.4035ZM38.092 32.4011H41.7705V44.1064H38.092V32.4011ZM15.6281 25.5905H16.5663C16.6666 25.5905 16.863 25.5561 17.1554 25.4915C17.3037 25.4614 17.4259 25.3882 17.5175 25.2677C17.6135 25.1471 17.6572 25.0094 17.6572 24.8544C17.6572 24.6262 17.583 24.4454 17.4346 24.3249C17.2863 24.2 17.0114 24.1397 16.6055 24.1397H15.6281V25.5905ZM20.8993 22.7062H26.8557V24.2215H23.1335V25.3538H26.5851V26.8002H23.1335V28.1994H26.9648V29.8051H20.8993V22.7062ZM27.4928 27.4589L29.6048 27.3298C29.6484 27.6699 29.7444 27.9238 29.884 28.1004C30.1153 28.3845 30.4426 28.5309 30.8659 28.5309C31.18 28.5309 31.4288 28.4577 31.5989 28.3113C31.7691 28.1649 31.8564 27.9927 31.8564 27.799C31.8564 27.6139 31.7735 27.4503 31.612 27.3039C31.4506 27.1576 31.0709 27.0241 30.4731 26.8906C29.5 26.6754 28.8062 26.387 28.3873 26.0296C27.9684 25.6723 27.759 25.216 27.759 24.6606C27.759 24.2947 27.8681 23.9503 28.0819 23.6274C28.2957 23.3046 28.6186 23.0463 29.0506 22.8611C29.4826 22.676 30.0717 22.5856 30.8222 22.5856C31.7429 22.5856 32.4411 22.7535 32.9255 23.0936C33.4055 23.4337 33.6935 23.9675 33.7851 24.708L31.6949 24.8328C31.6382 24.51 31.5204 24.2732 31.3459 24.1311C31.1669 23.9848 30.9182 23.9116 30.6084 23.9116C30.3509 23.9116 30.1546 23.9675 30.0237 24.0752C29.8928 24.1828 29.8273 24.3162 29.8273 24.4712C29.8273 24.5832 29.884 24.6822 29.9888 24.7769C30.0935 24.8673 30.3379 24.9577 30.7306 25.0395C31.7037 25.2461 32.4018 25.4571 32.8208 25.668C33.2397 25.879 33.5495 26.1416 33.7371 26.4558C33.9291 26.7658 34.0251 27.1188 34.0251 27.5063C34.0251 27.9626 33.8986 28.3802 33.6411 28.7633C33.388 29.1465 33.0302 29.4392 32.572 29.6372C32.1139 29.8353 31.5379 29.9343 30.8397 29.9343C29.6179 29.9343 28.767 29.7018 28.2957 29.2369C27.8244 28.7633 27.5582 28.1735 27.4928 27.4589ZM34.348 22.7062H41.116V24.4626H38.8469V29.8094H36.6215V24.4626H34.348V22.7062ZM26.8601 5.84772C26.0615 5.78745 25.2542 5.79606 24.4557 5.87355C21.999 6.10602 19.6121 6.98855 17.6397 8.49961C15.3576 10.2431 13.6252 12.852 12.9576 16.3089L12.7481 17.3895L11.6572 17.5789C10.5881 17.764 9.63249 18.018 8.79467 18.3409C7.98304 18.6508 7.25868 19.034 6.62595 19.486C6.11977 19.8476 5.68341 20.2523 5.3125 20.6914C4.16487 22.0475 3.63251 23.748 3.6456 25.47C3.65869 27.2178 4.23469 28.9829 5.29941 30.4337C5.6965 30.9718 6.15468 31.4669 6.67832 31.8974C7.21068 32.3322 7.80849 32.6938 8.48049 32.965C8.86013 33.12 9.26594 33.2492 9.68921 33.3525V36.5769C8.81649 36.4219 8.01358 36.1895 7.26304 35.8838C6.2725 35.4792 5.39541 34.9582 4.62305 34.3211C3.88996 33.7184 3.24851 33.0339 2.70306 32.2891C1.24997 30.3088 0.464523 27.8894 0.447068 25.4786C0.429614 23.042 1.19761 20.6182 2.85579 18.6551C3.39251 18.018 4.02524 17.4325 4.7496 16.9159C5.59177 16.3132 6.55613 15.8052 7.64704 15.3876C8.39758 15.0992 9.20049 14.8581 10.047 14.6644C11.007 10.9018 13.0536 8.00454 15.6848 5.99409C18.1459 4.1128 21.1088 3.01502 24.159 2.72659C25.7604 2.57591 27.3837 2.64479 28.972 2.93753C28.9371 3.0796 28.9066 3.22166 28.8891 3.36803L28.8848 3.39386C28.8542 3.63925 28.8411 3.88464 28.8542 4.13433C28.5182 4.26348 28.204 4.43998 27.9204 4.65523L27.9073 4.66384C27.4841 4.97811 27.1262 5.38278 26.8601 5.84772ZM49.948 14.1134C50.1923 14.3329 50.428 14.5611 50.6592 14.8065C51.1261 15.3015 51.5669 15.8612 51.9814 16.4854C53.3778 18.6035 54.0934 21.4319 54.0629 24.2C54.0323 26.9165 53.2905 29.62 51.772 31.6089C50.7814 32.9048 49.5116 33.9638 47.9887 34.8033C46.9458 35.3801 45.772 35.858 44.4934 36.2454V32.9091C45.1829 32.6551 45.8243 32.3709 46.4134 32.0481C47.5611 31.4152 48.4992 30.6446 49.2018 29.719C50.2927 28.2855 50.8294 26.2578 50.8512 24.1785C50.8774 21.9958 50.3363 19.8046 49.2847 18.2117C48.9836 17.7511 48.652 17.3378 48.3029 16.9676C48.1676 16.8255 48.0323 16.6921 47.8927 16.5629C47.9145 16.3477 47.9232 16.1281 47.9101 15.9085C48.2461 15.7794 48.5603 15.6029 48.844 15.3876L48.8571 15.379C49.3065 15.0389 49.6818 14.6084 49.948 14.1134ZM38.8818 6.4246C40.8935 6.69581 42.2985 8.52544 42.0236 10.5101C41.7487 12.4947 39.8942 13.8852 37.8826 13.614C35.8709 13.3428 34.4615 11.5131 34.7407 9.52851C35.02 7.5439 36.8702 6.15338 38.8818 6.4246Z" fill="black"/>
</svg>
