<svg width="53" height="53" viewBox="0 0 53 53" fill="none" xmlns="http://www.w3.org/2000/svg">
<path d="M52.6379 25.8498L50.4129 24.4725C50.3942 24.2558 50.3729 24.0395 50.3496 23.8243L52.2617 22.0409C52.4561 21.8596 52.5432 21.5912 52.4906 21.3315C52.4394 21.0707 52.2566 20.856 52.008 20.7633L49.5637 19.8493C49.5024 19.6376 49.4381 19.4275 49.3723 19.2184L50.897 17.1007C51.0525 16.8855 51.0844 16.6055 50.9831 16.3599C50.8818 16.1153 50.6605 15.9401 50.3987 15.8971L47.8212 15.4778C47.721 15.2823 47.6166 15.0899 47.5113 14.899L48.5945 12.5216C48.7054 12.2795 48.6826 11.998 48.5347 11.7782C48.3874 11.5574 48.1377 11.4283 47.8714 11.4385L45.2554 11.5296C45.1202 11.3605 44.9824 11.1929 44.8422 11.0283L45.4433 8.48022C45.504 8.22147 45.4276 7.95056 45.2392 7.76269C45.0523 7.57534 44.7809 7.49786 44.5221 7.55862L41.9745 8.15918C41.8095 8.01942 41.6418 7.88118 41.4722 7.74598L41.5639 5.13006C41.574 4.86523 41.4449 4.61356 41.2241 4.46671C41.0028 4.31885 40.7228 4.29657 40.4812 4.40646L38.1043 5.49009C37.9123 5.38477 37.7199 5.28045 37.5255 5.17969L37.1052 2.60174C37.0626 2.34045 36.8874 2.11866 36.6423 2.01739C36.3977 1.91561 36.1172 1.94852 35.902 2.10347L33.7828 3.62816C33.5742 3.56183 33.3645 3.49802 33.1528 3.43726L32.2388 0.99249C32.1462 0.743355 31.9315 0.560555 31.6707 0.508905C31.4104 0.457761 31.1425 0.544351 30.9617 0.737785L29.1783 2.65137C28.963 2.62757 28.7463 2.60579 28.5301 2.58807L27.1527 0.362563C27.0135 0.137227 26.7669 0 26.5015 0C26.2362 0 25.9896 0.137227 25.8508 0.362563L24.4735 2.58807C24.2567 2.60579 24.04 2.62757 23.8248 2.65137L22.0408 0.737785C21.86 0.544351 21.5916 0.457761 21.3319 0.508905C21.0711 0.561061 20.8564 0.743355 20.7637 0.99249L19.8497 3.43726C19.638 3.49802 19.4284 3.56233 19.2192 3.62816L17.1005 2.10347C16.8853 1.94802 16.6048 1.9151 16.3597 2.01739C16.1151 2.11866 15.9394 2.34045 15.8969 2.60174L15.4766 5.17969C15.2821 5.28045 15.0897 5.38426 14.8978 5.49009L12.5208 4.40646C12.2793 4.29607 11.9977 4.31885 11.7779 4.46671C11.5572 4.61356 11.428 4.86523 11.4382 5.13006L11.5293 7.74598C11.3602 7.88118 11.1926 8.01942 11.027 8.15918L8.47937 7.55862C8.22061 7.49837 7.94919 7.57534 7.76183 7.76269C7.57345 7.95056 7.49699 8.22147 7.55776 8.48022L8.15782 11.0283C8.01856 11.1934 7.88083 11.3605 7.74562 11.5296L5.12965 11.4385C4.86583 11.4309 4.61365 11.5574 4.46629 11.7782C4.31843 11.998 4.29615 12.2795 4.40603 12.5216L5.48969 14.899C5.38436 15.0899 5.28005 15.2823 5.17928 15.4778L2.60179 15.8971C2.33999 15.9396 2.11921 16.1148 2.01743 16.3599C1.91615 16.6055 1.94907 16.8855 2.10351 17.1007L3.62823 19.2184C3.56189 19.4275 3.49758 19.6376 3.43682 19.8493L0.992003 20.7633C0.743876 20.856 0.561072 21.0707 0.509421 21.3315C0.45777 21.5917 0.544361 21.8596 0.738305 22.0409L2.65091 23.8243C2.62711 24.0395 2.60584 24.2563 2.58761 24.4725L0.36257 25.8498C0.13723 25.9891 0 26.2352 0 26.501C0 26.7669 0.13723 27.013 0.36257 27.1517L2.58761 28.529C2.60584 28.7458 2.62711 28.962 2.65091 29.1772L0.738305 30.9611C0.544361 31.1419 0.45777 31.4103 0.509421 31.6701C0.561072 31.9308 0.743876 32.145 0.992003 32.2382L3.43682 33.1522C3.49758 33.3639 3.56189 33.574 3.62823 33.7832L2.10351 35.9013C1.94856 36.117 1.91564 36.3971 2.01743 36.6416C2.11921 36.8872 2.3405 37.0624 2.6023 37.1045L5.17928 37.5237C5.28005 37.7192 5.38335 37.9116 5.48969 38.1035L4.40603 40.4799C4.29564 40.7215 4.31843 41.0025 4.46629 41.2233C4.61416 41.4446 4.86583 41.5737 5.12965 41.5631L7.74461 41.4714C7.88083 41.6416 8.01806 41.8082 8.15782 41.9737L7.55776 44.5223C7.49699 44.7806 7.57345 45.0505 7.76183 45.2383C7.94868 45.4272 8.22061 45.5026 8.47937 45.4419L11.027 44.8418C11.1926 44.9826 11.3602 45.1193 11.5293 45.254L11.4382 47.8704C11.428 48.1353 11.5572 48.3864 11.7779 48.5343C11.9977 48.6817 12.2793 48.7039 12.5208 48.5935L14.8978 47.5104C15.0892 47.6167 15.2816 47.7201 15.4766 47.8208L15.8969 50.3972C15.9394 50.6595 16.1146 50.8813 16.3597 50.9821C16.6043 51.0839 16.8853 51.051 17.1005 50.8965L19.2182 49.3708C19.4274 49.4372 19.6375 49.502 19.8492 49.5627L20.7632 52.0065C20.8559 52.2546 21.0706 52.4384 21.3314 52.4891C21.5916 52.5417 21.8595 52.4546 22.0403 52.2602L23.8243 50.3476C24.0395 50.3724 24.2562 50.3932 24.4729 50.4124L25.8503 52.6374C25.9891 52.8618 26.2357 53 26.501 53C26.7664 53 27.013 52.8623 27.1522 52.6374L28.5296 50.4124C28.7463 50.3932 28.9625 50.3724 29.1777 50.3476L30.9612 52.2602C31.142 52.4546 31.4104 52.5417 31.6702 52.4891C31.931 52.4379 32.1457 52.2546 32.2383 52.0065L33.1523 49.5627C33.364 49.502 33.5742 49.4372 33.7833 49.3708L35.9015 50.8965C36.1167 51.051 36.3972 51.0839 36.6418 50.9821C36.8869 50.8813 37.0621 50.659 37.1047 50.3972L37.525 47.8208C37.7194 47.7201 37.9118 47.6152 38.1037 47.5104L40.4807 48.5935C40.7223 48.7039 41.0033 48.6817 41.2236 48.5343C41.4444 48.3864 41.573 48.1358 41.5634 47.8704L41.4722 45.254C41.6413 45.1188 41.8089 44.9826 41.974 44.8418L44.5216 45.4419C44.7804 45.5026 45.0518 45.4272 45.2387 45.2383C45.4271 45.0505 45.5035 44.7806 45.4427 44.5223L44.8427 41.9737C44.9824 41.8082 45.1202 41.6416 45.2549 41.4714L47.8708 41.5631C48.1347 41.5737 48.3869 41.4446 48.5342 41.2233C48.6821 41.0025 48.7049 40.7215 48.594 40.4799L47.5108 38.1035C47.6166 37.9116 47.7205 37.7192 47.8207 37.5237L50.3982 37.1045C50.6605 37.0624 50.8813 36.8872 50.9826 36.6416C51.0838 36.3971 51.0519 36.117 50.8965 35.9013L49.3718 33.7832C49.4376 33.574 49.5019 33.3639 49.5632 33.1522L52.0075 32.2382C52.2561 32.145 52.4394 31.9308 52.4901 31.6701C52.5427 31.4098 52.4556 31.1419 52.2612 30.9611L50.3491 29.1772C50.3724 28.962 50.3937 28.7453 50.4124 28.529L52.6374 27.1517C52.8628 27.013 53 26.7664 53 26.501C53 26.2357 52.8633 25.9891 52.6379 25.8498ZM37.7457 44.3076C36.896 44.1243 36.3557 43.2868 36.538 42.4345C36.7198 41.5833 37.5569 41.0415 38.4061 41.2248C39.2558 41.4066 39.7971 42.2457 39.6148 43.0964C39.4325 43.9471 38.5949 44.4894 37.7457 44.3076ZM36.9897 39.1943C36.2144 39.0282 35.4518 39.5214 35.2857 40.2981L34.4958 43.9845C32.0581 45.091 29.3509 45.7057 26.5 45.7057C23.5837 45.7057 20.8179 45.0606 18.3366 43.9071L17.5472 40.2207C17.3811 39.4449 16.6185 38.9507 15.8437 39.1173L12.5892 39.8161C11.9851 39.1943 11.423 38.5319 10.9065 37.8326H26.742C26.9213 37.8326 27.0408 37.8002 27.0408 37.6372V32.0357C27.0408 31.8726 26.9213 31.8402 26.742 31.8402H22.1107V28.2895H27.1198C27.5771 28.2895 29.5646 28.4202 30.2001 30.9606C30.3991 31.742 30.8362 34.2835 31.1349 35.0972C31.4327 36.0097 32.6449 37.8326 33.9367 37.8326H41.8277C41.9173 37.8326 42.013 37.8225 42.1138 37.8043C41.5664 38.5481 40.9658 39.252 40.3192 39.9098L36.9897 39.1943ZM15.0877 44.2306C14.238 44.4139 13.4014 43.8721 13.2186 43.0209C13.0368 42.1682 13.5771 41.3311 14.4268 41.1478C15.2765 40.9661 16.1136 41.5079 16.2959 42.3591C16.4777 43.2098 15.9369 44.0483 15.0877 44.2306ZM9.08045 19.8716C9.43289 20.6671 9.07437 21.5993 8.27986 21.9513C7.48534 22.3042 6.55562 21.9452 6.20318 21.1492C5.85074 20.3531 6.20926 19.4224 7.00377 19.0695C7.79879 18.7171 8.72801 19.0756 9.08045 19.8716ZM7.23418 24.2482L10.6244 22.7417C11.3485 22.4202 11.6757 21.5715 11.3541 20.8458L10.6558 19.267H13.4019V31.6447H7.86159C7.38103 29.9555 7.12328 28.1726 7.12328 26.3299C7.12328 25.6265 7.16126 24.9313 7.23418 24.2482ZM22.1117 23.046V19.3976H28.6511C28.9889 19.3976 31.0362 19.788 31.0362 21.3188C31.0362 22.5898 29.4659 23.0455 28.1746 23.0455H22.1117V23.046ZM45.8772 26.3299C45.8772 26.814 45.8595 27.293 45.8241 27.7685H43.836C43.637 27.7685 43.557 27.8991 43.557 28.0941V29.0071C43.557 31.1561 42.3452 31.6235 41.2833 31.7425C40.2721 31.8564 39.1509 31.3191 39.0127 30.7004C38.4162 27.3451 37.4222 26.6286 35.8524 25.3905C37.8004 24.1535 39.8275 22.3285 39.8275 19.8858C39.8275 17.2481 38.0192 15.5867 36.7867 14.7719C35.0574 13.6321 33.1427 13.4037 32.6262 13.4037H12.0656C14.8537 10.292 18.6323 8.08778 22.9062 7.28569L25.3298 9.82819C25.8777 10.4019 26.7851 10.4232 27.3583 9.87477L30.07 7.28113C35.7521 8.33894 40.5627 11.876 43.3352 16.7285L41.4788 20.9213C41.1582 21.6469 41.4854 22.4956 42.209 22.8172L45.783 24.4046C45.8448 25.0391 45.8772 25.6802 45.8772 26.3299ZM25.3308 5.12297C25.9587 4.5214 26.9547 4.5452 27.5558 5.17412C28.1559 5.80455 28.1331 6.8016 27.5036 7.40266C26.8757 8.00423 25.8797 7.98094 25.2786 7.35101C24.679 6.72159 24.7018 5.72454 25.3308 5.12297ZM43.753 19.948C44.1049 19.1525 45.0346 18.7935 45.8291 19.1465C46.6236 19.4989 46.9822 20.4306 46.6297 21.2261C46.2778 22.0221 45.3481 22.3812 44.553 22.0282C43.7595 21.6758 43.401 20.7446 43.753 19.948Z" fill="black"/>
</svg>
