<svg width="236" height="235" viewBox="0 0 236 235" fill="none" xmlns="http://www.w3.org/2000/svg">
<path d="M116.881 0.00100486C107.055 0.0290892 97.2711 1.27228 87.7507 3.70225C41.9257 15.09 5.5595 56.6066 0.898663 103.675C-4.87842 148.217 17.6228 194.601 56.1628 217.601C93.9684 241.277 145.198 240.318 182.221 215.418C215.483 193.817 236.192 154.435 234.959 114.71C234.391 75.387 212.34 37.1898 178.568 16.9895C160.141 5.62142 138.491 -0.0871201 116.881 0.00100486ZM116.264 16.6077C164.684 16.5391 212.115 53.9531 216.942 103.998C226.195 159.419 180.194 215.751 124.039 217.386C70.6349 222.712 19.023 177.436 17.5053 123.807C13.5201 80.3906 42.1412 37.2975 83.0899 22.9527C93.6438 18.7484 104.904 16.5982 116.264 16.6175V16.6077ZM166.113 48.1858C139.803 68.6014 114.609 90.3683 88.867 111.411C100.646 111.577 112.484 111.567 124.323 111.508C138.129 90.3095 152.317 69.3945 166.113 48.1858ZM110.644 123.131C96.8374 144.34 82.6395 165.323 68.8332 186.522C95.2022 166.156 120.288 144.222 146.207 123.307C134.353 123.164 122.498 123.106 110.644 123.131Z" fill="black"/>
</svg>
