<svg width="43" height="56" viewBox="0 0 43 56" fill="none" xmlns="http://www.w3.org/2000/svg">
<path d="M42.8945 15.168C42.8743 15.0094 42.8502 14.8508 42.8178 14.6956C42.7888 14.5325 42.7517 14.371 42.7067 14.2117L42.5869 14.0194C42.0935 13.6271 41.5612 13.3307 41.0208 13.0687C40.5748 12.8555 40.1217 12.6696 39.6631 12.4984C38.3855 8.90809 36.1891 5.72457 33.3012 3.50638C30.3163 1.21365 26.8055 0 23.1492 0C19.4927 0 15.9818 1.21365 12.9969 3.50655C10.1089 5.72457 7.91231 8.90826 6.63481 12.4994C6.17747 12.67 5.72351 12.8564 5.27813 13.0687C4.73674 13.3307 4.20479 13.6271 3.7114 14.0194L3.5913 14.2117C3.54834 14.3715 3.5112 14.5329 3.47996 14.6954C3.44896 14.851 3.42572 15.0092 3.40348 15.1679C3.35952 15.482 3.32951 15.7979 3.31353 16.1148C3.28187 16.749 3.30041 17.3848 3.36895 18.0161C3.43584 18.6489 3.55209 19.2755 3.71662 19.8898C3.80298 20.1988 3.90388 20.5036 4.01899 20.8029C4.07693 20.954 4.14027 21.1041 4.21051 21.254C4.24521 21.3285 4.28295 21.4014 4.32169 21.4776C4.40743 21.6297 4.42309 21.6594 4.45914 21.7135L4.62119 21.8646C4.7268 21.9195 4.81423 21.9613 4.90974 22.0072L5.18886 22.1339C5.24057 22.1554 5.28908 22.1765 5.34181 22.198C4.07424 23.3845 2.69769 24.926 1.50558 26.831L0 29.2357L2.11351 27.3574C2.14939 27.3256 3.92163 25.7723 6.8772 24.0125L6.91864 24.3565C6.72527 24.4583 5.79594 24.9521 5.51969 25.1861C5.06185 25.571 5.03961 26.1685 5.16224 27.283C5.22507 27.8544 5.43664 28.9633 5.72199 29.9801C6.21352 31.7298 6.57383 32.0392 6.89017 32.1117C7.03285 32.1463 7.21696 32.1622 7.42415 32.1622C7.99031 32.1622 8.71547 32.0506 9.18864 31.906C9.74368 33.6535 10.5298 35.2311 11.4883 36.6156C11.442 36.6282 11.3963 36.6434 11.35 36.6567C10.7736 36.386 8.75792 35.4407 8.08042 35.1323L6.66462 34.4869L7.50198 35.8108C7.56295 35.9063 9.0084 38.1883 10.1884 39.7263C11.2922 41.1606 12.8035 42.6289 15.6553 42.6289C15.9986 42.6289 16.3578 42.6064 16.7278 42.5651C17.5782 42.4662 18.2173 42.3886 18.7031 42.3255C21.6967 43.4392 24.9978 43.5078 28.1304 42.3059C28.9509 41.99 29.7397 41.5956 30.4861 41.1279C31.6939 40.8342 33.015 40.5156 33.6676 40.3299C33.7722 40.3012 33.9033 40.2697 34.0395 40.2371C34.9488 40.0254 36.4685 39.6683 37.2788 38.0271C38.0954 36.3712 39.427 33.8339 39.441 33.808L40.0637 32.6243L38.8504 33.1583C38.7855 33.1882 37.2483 33.866 36.4497 34.2898C37.0045 32.9963 37.3315 31.9256 37.4454 31.5144C37.8926 31.6235 38.5556 31.6096 39.0433 31.6096C39.283 31.6096 39.5296 31.5673 39.6896 31.526C40.0066 31.4445 40.2514 31.2313 40.7116 29.4258C40.9796 28.3764 41.1718 27.2337 41.2245 26.6463C41.3264 25.5033 41.2934 24.8907 40.8327 24.504C40.6031 24.312 39.9293 23.9446 39.5867 23.7638C39.7784 23.6808 39.8724 23.7052 39.8798 23.7072L40.1907 22.5128C40.3002 22.4654 40.4161 22.4178 40.5478 22.3667C40.7356 22.291 40.9235 22.2157 41.1115 22.1337L41.3889 22.007C41.4856 21.9611 41.5725 21.9195 41.6783 21.8644L41.8403 21.7133C41.8754 21.6592 41.8942 21.6296 41.9156 21.5883C42.0184 21.4012 42.0546 21.3284 42.0888 21.254C42.159 21.1039 42.2214 20.9538 42.2803 20.8027C42.3953 20.5034 42.4961 20.1987 42.5822 19.8896C42.747 19.2753 42.8634 18.6488 42.9304 18.0159C43.0003 17.3849 43.0159 16.7492 42.9846 16.1146C42.9694 15.7977 42.9393 15.482 42.8945 15.168Z" fill="#0E0F0D"/>
<path d="M25.1098 39.7638C24.8807 39.7986 24.6517 39.8269 24.4253 39.8453C24.2779 39.8527 24.1232 39.8675 23.9822 39.8675L23.9297 39.8689C24.1066 39.4698 24.241 39.1594 24.3422 38.9244C24.5494 39.1594 24.8129 39.4498 25.1098 39.7638Z" fill="#E1C5A2"/>
<path d="M24.8319 21.9197C24.4738 22.214 24.0964 22.4881 23.7035 22.7286L22.3928 23.5292C21.5707 23.6308 20.8572 23.8365 20.8164 23.8491C20.7925 23.8542 20.7699 23.8657 20.7487 23.8786C20.6838 23.9174 20.6355 23.9793 20.6131 24.0522L19.2782 28.5053L12.1432 30.1119L9.89531 28.5181L9.24174 23.156C10.5184 22.9186 12.2249 22.6447 14.2749 22.4117C14.0515 22.682 13.8396 22.9618 13.6399 23.2505L12.4195 25.024L14.1968 23.8245C14.2237 23.8058 15.3547 23.0519 17.2059 22.1347C19.2226 21.9817 21.2442 21.9049 23.2665 21.9045C23.7988 21.9045 24.32 21.9108 24.8319 21.9197ZM13.7261 27.9606C14.2332 27.6831 14.8059 27.7239 15.7025 27.7259C15.798 27.7276 15.8976 27.7266 16.0007 27.7239C16.0891 27.7239 16.1776 27.7222 16.2714 27.7194C17.1955 27.7101 17.9631 27.7986 17.9491 26.3308C17.9355 24.8629 17.291 23.6757 16.3676 23.6849C15.4445 23.6932 14.5507 24.8963 14.6059 26.3636C14.6206 26.7456 14.6767 27.0217 14.7653 27.2201C13.9606 27.4249 13.7379 27.9289 13.7261 27.9606ZM37.1983 23.1384L36.5558 27.6978L34.2897 29.3047L27.164 28.4847L25.8345 24.0521C25.82 24.0037 25.7937 23.9598 25.7582 23.9243C25.7227 23.8889 25.6789 23.8629 25.631 23.8489C25.5872 23.8355 24.705 23.5801 23.7698 23.4983L23.941 23.4869C24.0884 23.4756 26.5457 23.171 29.4809 22.147C32.7302 22.3994 35.3844 22.8031 37.1983 23.1384ZM32.6457 27.3587C32.6364 27.3232 32.4408 26.7335 31.5831 26.837C31.6815 26.6187 31.7259 26.3242 31.6948 25.9199C31.5816 24.4549 30.739 23.2905 29.8166 23.3235C28.8932 23.3559 28.3026 24.5704 28.3536 26.0404C28.4045 27.5068 29.1783 27.4967 30.1018 27.4633C31.3419 27.4394 32.0227 27.0539 32.6457 27.3587Z" fill="#A89983"/>
<path d="M30.2077 24.7211C30.2099 24.8478 30.1624 24.9701 30.0756 25.0612C29.9888 25.1524 29.8699 25.205 29.7448 25.2074C29.6829 25.2085 29.6214 25.1973 29.5638 25.1743C29.5061 25.1513 29.4535 25.1171 29.409 25.0735C29.3645 25.03 29.3288 24.978 29.3042 24.9204C29.2795 24.8629 29.2663 24.8011 29.2652 24.7384C29.264 24.6757 29.275 24.6134 29.2976 24.5551C29.3202 24.4967 29.3539 24.4434 29.3968 24.3983C29.4397 24.3531 29.491 24.317 29.5478 24.292C29.6045 24.2669 29.6656 24.2534 29.7275 24.2523C29.7895 24.2509 29.8512 24.262 29.9089 24.2849C29.9667 24.3077 30.0194 24.3419 30.0641 24.3855C30.1087 24.4291 30.1444 24.4813 30.169 24.5389C30.1937 24.5965 30.2068 24.6584 30.2077 24.7211ZM16.9817 25.0725C16.9848 25.1989 16.9383 25.3214 16.8524 25.4132C16.7664 25.5049 16.6481 25.5584 16.5232 25.562C16.4611 25.5639 16.3993 25.5533 16.3412 25.5309C16.2832 25.5086 16.23 25.4748 16.1849 25.4316C16.1398 25.3884 16.1035 25.3366 16.0782 25.2791C16.0529 25.2217 16.039 25.1597 16.0374 25.0969C16.0358 25.0341 16.0464 24.9717 16.0687 24.9131C16.091 24.8545 16.1244 24.8009 16.1672 24.7554C16.2099 24.71 16.2611 24.6735 16.3178 24.6481C16.3745 24.6227 16.4356 24.6089 16.4976 24.6074C16.6227 24.6041 16.744 24.6513 16.8347 24.7385C16.9255 24.8257 16.9784 24.9458 16.9817 25.0725Z" fill="white"/>
<path d="M40.3086 25.1441C40.1973 25.051 39.8252 24.8358 39.4625 24.6372L38.8653 28.8754C38.859 28.9163 38.8447 28.9555 38.8231 28.9906C38.8016 29.0258 38.7733 29.0562 38.74 29.0801L37.8855 29.6852C37.8653 29.7875 37.8494 29.873 37.8343 29.953C38.6738 30.1623 39.4893 29.5493 39.9471 29.107C40.1588 28.272 40.3433 27.2808 40.407 26.5713C40.5045 25.4716 40.4183 25.2354 40.3086 25.1441ZM27.1119 41.2454C26.5576 41.0458 26.0494 40.7201 25.607 40.2773C25.5701 40.2393 25.5351 40.2026 25.498 40.1655C25.1518 40.237 24.8018 40.2879 24.4498 40.3179C24.2995 40.3248 24.1562 40.3377 23.9995 40.3377L23.7677 40.3398L23.6785 40.3377C23.1485 41.1345 22.2578 41.5725 21.5597 41.8057C23.6333 42.1659 25.9149 41.6146 27.1119 41.2454ZM8.85777 30.866C8.83925 30.802 8.81971 30.7387 8.80168 30.6746L7.69161 29.8878C7.6574 29.8634 7.62859 29.8319 7.60704 29.7955C7.58549 29.7591 7.57167 29.7186 7.56646 29.6765L7.02523 25.2261C6.62467 25.4426 6.1616 25.7097 6.03847 25.8142C5.93134 25.9037 5.84964 26.1319 5.96536 27.1923C6.05329 27.9896 6.32988 29.2143 6.61237 30.1321C7.17448 30.5675 8.0024 31.0263 8.85777 30.866ZM25.4527 30.6628C25.3946 30.6561 25.3397 30.6323 25.2949 30.5943C25.25 30.5563 25.2172 30.5058 25.2004 30.4491L23.8306 25.8785C23.6008 25.8481 23.397 25.8311 23.2248 25.8311C23.052 25.8311 22.8492 25.8481 22.6198 25.8785L21.2882 30.3176C21.2726 30.3688 21.244 30.4148 21.2051 30.4512C21.1663 30.4875 21.1186 30.5127 21.067 30.5243L20.4303 30.6679C20.3764 30.8956 20.1931 31.2297 19.6027 31.4129C18.65 31.7071 12.6187 33.5274 11.9309 33.4283C11.5294 33.3714 10.7653 32.9445 10.2001 32.5994C9.97391 32.0602 9.84875 31.6936 9.82012 31.6067V31.605L9.81843 31.6067C9.89844 31.8434 10.6854 34.1371 12.2845 36.3807C13.9988 35.8693 15.4794 35.3924 15.953 35.2408C16.9171 33.7351 18.291 32.2413 19.2666 32.1903C19.4386 32.1815 19.6106 32.1769 19.7828 32.1766C20.2608 32.1766 20.7171 32.2109 21.1408 32.2617C20.781 31.931 20.7072 31.5444 20.655 31.3727C20.655 31.3727 21.901 32.3595 23.4859 32.1519C25.0734 31.9462 26.0581 31.0206 26.0581 31.0206L26.0893 30.736L25.4527 30.6628Z" fill="#E1C5A2"/>
<path d="M26.741 31.2413C26.4122 31.1552 26.2052 31.0179 26.074 30.8747L26.0578 31.0207C26.0578 31.0207 26.0524 31.6952 25.3621 32.2178C26.6914 31.8101 27.241 31.672 27.6175 31.672C28.0319 31.672 28.2367 31.8471 28.4164 32.001C28.4505 32.0296 28.4845 32.0598 28.5252 32.0921C29.3975 32.7875 30.2676 33.4856 31.1357 34.1864C31.5517 34.235 32.8725 34.388 33.7038 34.4648C34.1824 34.51 34.616 34.5465 35.0405 34.5465C35.1766 34.5465 35.3053 34.5417 35.427 34.5333C35.8653 33.6833 36.2689 32.7432 36.6281 31.7066C36.1365 32.0557 35.0165 32.8198 34.4917 32.9182C33.8091 33.0477 27.7037 31.4941 26.741 31.2413Z" fill="#E1C5A2"/>
<path d="M42.1041 15.2574C42.0922 15.1114 42.0772 14.9656 42.0591 14.8203C42.047 14.7164 42.0318 14.613 42.0135 14.51C41.6279 14.1817 41.1894 13.8892 40.7332 13.6245C40.2392 13.3308 39.7219 13.0697 39.1936 12.8267C38.6701 12.576 38.1311 12.3493 37.5902 12.1285C37.3197 12.0167 37.0473 11.9095 36.7732 11.807C36.5003 11.699 36.2253 11.5984 35.949 11.4966C36.528 11.5939 37.1022 11.728 37.6722 11.8762C38.043 11.9721 38.4114 12.081 38.7772 12.1977C36.1722 5.30621 29.9469 0.818819 23.149 0.818819C16.3503 0.818819 10.1253 5.30638 7.52215 12.1977C7.88768 12.081 8.25692 11.9721 8.62598 11.8762C9.19534 11.7278 9.77008 11.5939 10.35 11.4967C10.0721 11.5984 9.79754 11.699 9.5233 11.8071C9.24982 11.91 8.97791 12.0171 8.70768 12.1285C8.16646 12.3493 7.62861 12.576 7.10322 12.8267C6.57682 13.0697 6.05969 13.3308 5.56496 13.6245C5.10863 13.8892 4.67117 14.1817 4.28476 14.51C4.26787 14.6132 4.25271 14.7166 4.23928 14.8203C4.22185 14.9657 4.20663 15.1115 4.19363 15.2574C4.16973 15.5514 4.15737 15.8462 4.15657 16.1412C4.15034 16.7318 4.18992 17.3226 4.26336 17.9064C4.34354 18.4926 4.4495 19.0749 4.60632 19.6382C4.68232 19.9184 4.77136 20.1947 4.87314 20.4664C4.92452 20.6006 4.97994 20.7338 5.03788 20.8619C5.06635 20.926 5.09583 20.9895 5.12649 21.05L5.16388 21.1217C5.2065 21.1433 5.25148 21.1663 5.29359 21.187L5.55232 21.312C5.69685 21.3792 5.89697 21.4752 6.06221 21.5499C6.07148 21.5414 6.08074 21.5329 6.08815 21.5247L5.60774 19.6716C5.70982 19.6438 6.62213 19.405 8.19442 19.1013C8.06703 19.0773 7.94026 19.05 7.81424 19.0194C7.45629 18.9287 7.10288 18.8189 6.76009 18.679C6.59063 18.6062 6.42337 18.5272 6.26401 18.4358C6.10483 18.3427 5.94834 18.2381 5.82656 18.0984C7.55365 18.6698 11.1236 18.4116 14.2971 18.079C17.1986 17.7759 20.1089 17.5803 23.033 17.5737C25.9564 17.5803 28.8676 17.7759 31.7676 18.079C34.9425 18.4116 38.5123 18.6698 40.2392 18.0984C40.1188 18.2383 39.9613 18.3427 39.8034 18.4358C39.6427 18.527 39.4751 18.6064 39.3057 18.679C38.9632 18.8189 38.6111 18.9287 38.2527 19.0194C38.1995 19.0322 38.1457 19.0435 38.0927 19.0556C39.8176 19.3793 40.8212 19.6428 40.9276 19.6714L40.4685 21.4367C40.5618 21.3957 40.6554 21.3548 40.7454 21.3118L41.0048 21.1868C41.0474 21.1662 41.0917 21.1431 41.1357 21.1215L41.1705 21.0498C41.2019 20.9893 41.2324 20.9259 41.2605 20.8617C41.3186 20.7338 41.374 20.6004 41.4246 20.4662C41.526 20.1944 41.6152 19.9181 41.6917 19.638C41.8489 19.0747 41.9548 18.4923 42.0338 17.9062C42.1088 17.3224 42.1484 16.7316 42.143 16.141C42.1421 15.8461 42.129 15.5513 42.1041 15.2574Z" fill="#E0D896"/>
<path d="M30.3015 11.8295C30.3281 12.6178 30.3091 14.0484 29.9461 15.3869C29.9314 15.438 29.9335 15.4914 29.9461 15.5409C29.4846 15.492 29.0226 15.4488 28.5601 15.4112C29.0783 14.3112 29.1915 13.1398 29.2167 12.7269C29.6149 12.4409 30.011 12.0969 30.3015 11.8295ZM17.083 12.7269C17.107 13.1397 17.2202 14.3083 17.7382 15.4085C17.2762 15.4455 16.8141 15.4885 16.3531 15.5381C16.3655 15.4907 16.3665 15.4382 16.3531 15.387C15.9909 14.0506 15.9717 12.62 15.9966 11.8297C16.2886 12.0969 16.6836 12.4409 17.083 12.7269ZM35.976 16.6329C35.9737 16.6462 35.9705 16.6593 35.9664 16.6721C36.0171 16.687 36.0668 16.702 36.1175 16.7187C36.5447 16.8604 36.9724 17.0086 37.3809 17.1996C36.699 16.7511 36.2666 15.4571 36.0255 14.4679C36.0919 15.7627 35.9823 16.584 35.976 16.6329ZM15.4281 11.5806L11.0175 12.8507C10.7534 14.5878 10.8339 15.9144 10.8763 16.3747L10.8987 16.361C10.8987 16.361 11.0424 14.4689 11.3354 13.7427C11.4863 13.3699 12.4095 13.1322 13.1133 12.9618C13.8188 12.7922 14.9435 12.4522 15.1618 13.4548C15.2966 14.0745 15.4822 14.5897 15.6601 14.9697C15.3767 13.5921 15.3948 12.2451 15.4281 11.5806ZM30.8697 11.5806C30.9057 12.271 30.9224 13.6981 30.6027 15.1307C30.8032 14.7415 31.0257 14.1674 31.1808 13.4548C31.3988 12.4522 32.5235 12.7922 33.2288 12.9619C33.9341 13.1323 34.8562 13.3699 35.0071 13.7427C35.2557 14.3574 35.3962 15.8064 35.4333 16.2376C35.4752 15.6834 35.5217 14.4381 35.2813 12.8506L30.8697 11.5806ZM17.0479 11.9673C17.2032 12.0935 17.3634 12.2136 17.528 12.3272C17.605 12.3814 17.6521 12.4697 17.6538 12.5649C17.6548 12.5797 17.6878 14.0511 18.3303 15.304C18.3396 15.3227 18.3461 15.3432 18.3524 15.3626C19.9496 15.2526 21.5515 15.2081 23.1494 15.2071C24.7483 15.2081 26.3492 15.2557 27.9456 15.3664C27.952 15.3451 27.9579 15.3244 27.9692 15.304C28.6107 14.0511 28.6452 12.5797 28.6452 12.5649C28.6462 12.5179 28.6583 12.4719 28.6803 12.4306C28.7024 12.3892 28.7338 12.3538 28.772 12.3272C28.9303 12.2174 29.0844 12.1015 29.2339 11.9797L29.2541 11.9224C29.588 8.6313 28.9755 5.59837 28.5862 4.0999C28.5657 5.12458 28.3258 13.9042 26.1741 13.9042H20.2349C17.95 13.9042 17.7662 4.00542 17.7662 4.00542L17.6484 4.35693C17.2586 5.93538 16.7237 8.83664 17.0479 11.9673ZM10.3321 16.6713C10.3301 16.6585 10.3265 16.646 10.3237 16.6329C10.3166 16.584 10.2064 15.7617 10.2728 14.4657C10.0316 15.4556 9.59799 16.7518 8.9151 17.2002C9.32359 17.0083 9.75313 16.8597 10.181 16.7178C10.2308 16.702 10.2821 16.687 10.3321 16.6713Z" fill="#D7C184"/>
<path d="M37.8343 29.953C37.7981 30.1479 37.7562 30.3416 37.7081 30.5339C38.198 30.6495 38.9988 30.7392 39.3817 30.6635C39.5456 30.4832 39.7573 29.858 39.9473 29.1069C39.4895 29.5493 38.6738 30.1623 37.8345 29.9528M20.2817 42.0919C21.4516 42.4162 22.6466 42.5569 23.8239 42.478C25.005 42.3966 26.5384 42.1386 28.1661 41.4695C27.8064 41.443 27.4518 41.3675 27.1119 41.2454C25.9149 41.6148 23.6335 42.1662 21.5599 41.806C21.0108 41.989 20.5806 42.0458 20.5386 42.0511C20.452 42.0612 20.3803 42.0731 20.2817 42.0919ZM8.93512 31.1315C8.90817 31.0433 8.88355 30.9545 8.85777 30.866C8.0024 31.0263 7.17434 30.5675 6.61274 30.1324C6.79466 30.7215 6.9781 31.1845 7.11539 31.3253C7.53903 31.4003 8.4761 31.2686 8.93512 31.1315ZM10.2001 32.5994C10.7651 32.9445 11.5292 33.3715 11.9309 33.4283C12.6187 33.5274 18.65 31.7071 19.6027 31.4129C20.1931 31.2297 20.3764 30.8956 20.4303 30.6679L11.729 32.6296C11.7075 32.6337 11.6857 32.6359 11.6638 32.6363H11.6628C11.6028 32.6363 11.5427 32.6175 11.4915 32.5815L11.1526 32.3421L10.1362 31.6213V31.6198L9.72598 31.3299C9.73306 31.3534 9.74148 31.3768 9.74906 31.4C9.77231 31.4683 9.79522 31.5376 9.81981 31.6048V31.6065C9.84845 31.6935 9.9736 32.0602 10.1998 32.5991M36.8912 30.9071C36.9468 30.699 37.0013 30.4884 37.051 30.2757L36.749 30.4906L35.0564 31.6913C35.0113 31.7228 34.9587 31.7417 34.9048 31.7458C34.887 31.747 34.8691 31.7466 34.8513 31.7446L26.0893 30.736L26.0745 30.8743C26.2055 31.0177 26.4126 31.155 26.7412 31.2412C27.7039 31.4939 33.8091 33.0473 34.4916 32.9177C35.0165 32.8195 36.1369 32.0554 36.6279 31.7063C36.6321 31.6942 36.6363 31.6824 36.6402 31.6705C36.7272 31.4171 36.8109 31.1627 36.8912 30.9071Z" fill="#9F8F78"/>
<path d="M27.6203 18.9548C27.5512 19.0452 27.4758 19.1441 27.3946 19.2473C26.9785 19.7797 26.4021 20.4589 25.7194 21.1252C24.9021 21.0992 24.0846 21.0862 23.2669 21.0862C21.8778 21.0862 20.5458 21.1232 19.2811 21.1847C21.0689 20.4347 23.2156 19.7013 25.5406 19.2613C26.2291 19.1284 26.923 19.0263 27.6203 18.9548ZM17.1621 19.7647C16.5231 20.2187 15.8034 20.7973 15.1048 21.4999C13.5536 21.6567 12.0074 21.8605 10.4683 22.1112C12.4472 21.1907 14.7061 20.3426 17.1621 19.7647ZM39.0191 23.5041L38.2908 28.6576L34.8049 31.1306L25.7138 30.084L24.346 25.5207C24.3298 25.4664 24.2989 25.4178 24.2567 25.3804C24.2146 25.343 24.1629 25.3184 24.1077 25.3092C23.7711 25.2541 23.4735 25.2273 23.2248 25.2273C22.9755 25.2273 22.678 25.2541 22.3393 25.3092C22.2843 25.3189 22.233 25.3437 22.191 25.3811C22.1491 25.4184 22.1182 25.4667 22.1016 25.5207L20.7672 29.9729L11.7274 32.0093L8.1449 29.4686L7.43793 23.6847C7.59381 23.5967 7.74991 23.5091 7.90621 23.4219C8.12839 23.3734 8.37786 23.3223 8.65378 23.2692L9.31915 28.7271C9.32841 28.8118 9.37558 28.8874 9.44481 28.9362L11.91 30.6848C11.9596 30.7194 12.0204 30.7391 12.0798 30.7391C12.1019 30.7391 12.1231 30.736 12.1464 30.7316L19.5786 29.0574C19.6042 29.051 19.6291 29.0418 19.6527 29.03C19.7211 28.9924 19.776 28.9288 19.7984 28.8499L21.1378 24.3882C21.4967 24.2953 22.4166 24.077 23.2247 24.077C24.0312 24.077 24.9507 24.2953 25.3107 24.3882L26.6492 28.8499C26.6834 28.9651 26.7834 29.0494 26.9012 29.063L34.3348 29.9182C34.406 29.9267 34.4795 29.9066 34.5386 29.8646L37.0047 28.1192C37.071 28.0706 37.1167 27.9952 37.1281 27.9132L37.7864 23.2494C38.2807 23.3453 38.6939 23.4331 39.0191 23.5041ZM39.9368 20.2716L39.2967 22.7294C37.9881 22.4371 35.1142 21.8635 31.202 21.4776C32.4797 20.9258 33.7813 20.2346 34.9707 19.3685C37.2986 19.7015 39.0078 20.0589 39.9368 20.2716ZM6.59906 20.2716L6.77694 20.9521C7.2107 20.6022 7.65711 20.2688 8.11525 19.9523C7.48846 20.0741 6.97722 20.185 6.59906 20.2716Z" fill="#6E6A67"/>
<path d="M31.6991 18.9009C30.7195 18.8446 29.7403 18.7972 28.7599 18.7561C28.6504 18.9199 28.5378 19.0815 28.4222 19.241C27.8969 19.9604 26.8617 21.2719 25.5345 22.3972C26.533 22.0769 30.4942 20.7314 32.5006 18.9509C32.2335 18.9333 31.9664 18.9166 31.6991 18.9009ZM24.5203 18.6389L24.5243 18.6379C24.0274 18.6314 23.5301 18.626 23.034 18.6241H23.033C22.3021 18.6261 21.5731 18.6355 20.8422 18.6483L19.4946 19.295C19.4875 19.2979 19.4808 19.3017 19.4747 19.3065C19.2719 19.4061 17.5029 20.31 15.8373 21.9226C15.983 21.8448 16.1375 21.7643 16.2966 21.6826C17.2076 21.0628 19.6371 19.5952 23.4151 18.628C23.7835 18.6302 24.1522 18.6325 24.5203 18.6389ZM16.2392 18.8037C15.6153 18.8329 14.991 18.8653 14.3678 18.9009C13.6448 18.9418 12.9242 18.9913 12.204 19.0462C11.8449 19.0742 11.4853 19.1052 11.1292 19.1431C11.0258 19.1533 10.9247 19.1646 10.8235 19.1777C9.8825 19.7472 6.28143 22.0362 3.80728 25.0317C3.84989 24.9797 3.89386 24.9284 3.93749 24.877C8.51808 20.9202 13.54 19.3802 16.2392 18.8037ZM36.9621 35.0754L36.8796 35.1183C36.4202 35.3629 35.8184 35.4825 35.0405 35.4825C34.5774 35.4825 34.1233 35.4432 33.62 35.3972C32.615 35.3041 30.9137 35.1015 30.8963 35.0982L30.7663 35.0844L30.6634 35.0003C30.6477 34.9899 29.1581 33.7868 27.9537 32.8282C27.9045 32.7879 27.8604 32.7497 27.82 32.7173C27.693 32.6073 27.693 32.6073 27.6172 32.6073C27.2306 32.6073 26.1075 32.9603 23.648 33.7318L23.4971 33.7807L23.3477 33.7232C23.3308 33.719 21.7175 33.1132 19.7833 33.1132C19.625 33.1132 19.467 33.1171 19.3134 33.1248C19.1198 33.1348 18.0328 33.6577 16.6418 35.8843L16.5527 36.0279L16.3927 36.0797C16.3694 36.0874 13.9765 36.8692 11.4383 37.6041L11.2746 37.651L11.1179 37.5779C11.1016 37.5722 10.1104 37.1054 9.16576 36.6671C9.23533 36.6999 9.3054 36.7319 9.37514 36.7647C10.3077 37.5796 12.0934 39.1469 12.2916 39.3641C12.3191 39.3953 12.3573 39.4335 12.4028 39.4768C12.3569 39.4238 12.312 39.3699 12.2684 39.3149L12.2667 39.3132L12.2669 39.3134C12.6782 39.7082 13.1374 40.0495 13.6391 40.2896C13.8894 40.4087 14.1518 40.501 14.4186 40.5458C14.5532 40.568 14.6838 40.5792 14.82 40.5792C14.958 40.5792 15.099 40.5751 15.2398 40.5681C15.7977 40.5392 16.3608 40.4958 16.9226 40.4408C17.4835 40.3896 18.045 40.3328 18.6054 40.2639C19.1651 40.2028 19.7249 40.1315 20.2798 40.0444C20.5577 40.0035 20.8339 39.9569 21.1038 39.8963C21.2364 39.8646 21.3745 39.8297 21.4794 39.7819C21.5753 39.7355 21.6913 39.6422 21.7934 39.5534C22.0023 39.3714 22.2039 39.1696 22.4035 38.9684C22.6037 38.7657 22.8004 38.5596 22.9938 38.3503C23.3224 38.0019 23.6041 37.6318 23.9223 37.2731C23.963 37.2284 24.0046 37.181 24.0469 37.1349C24.0469 37.1358 24.0469 37.1358 24.0476 37.1358L24.0513 37.1401C24.1177 37.1883 24.1839 37.2373 24.2487 37.2888C24.6316 37.5779 25.0269 37.8908 25.4083 38.161C25.9 38.5108 26.3978 38.8613 26.9127 39.1529C27.0412 39.2254 27.1741 39.2931 27.301 39.3356C27.3175 39.3417 27.3313 39.3446 27.3439 39.3465C27.3534 39.3523 27.3872 39.3577 27.3911 39.3577C27.4162 39.3615 27.4497 39.3632 27.4821 39.3654C27.5515 39.3663 27.6232 39.3632 27.6951 39.3598C27.9856 39.3393 28.2802 39.2965 28.5751 39.2498C29.1638 39.1568 29.7543 39.0496 30.3411 38.9305C30.9293 38.8166 31.5169 38.6945 32.1007 38.563C32.6868 38.4368 33.2704 38.2993 33.8512 38.1506C34.1394 38.072 34.428 37.9995 34.6852 37.8745C34.948 37.7506 35.1917 37.5808 35.4163 37.386C35.8694 36.9953 36.2503 36.5109 36.5668 35.9834L36.5659 35.9851C36.7214 35.6929 36.8539 35.3887 36.9621 35.0754ZM25.9817 7.04977H27.0175V4.91958H19.4441V7.04977H20.48V5.96796H22.6215V12.547H21.7399V13.7681H24.7214V12.547H23.8396V5.96796H25.9817V7.04977Z" fill="#93232C"/>
<path d="M33.8179 19.0452C33.8161 19.044 33.814 19.0434 33.8118 19.0433C33.383 19.0107 32.954 18.9804 32.5249 18.9524L32.5003 18.9509C30.4937 20.7314 26.5329 22.0769 25.5341 22.3972C25.5148 22.4139 25.4957 22.4306 25.4764 22.447C26.762 22.2127 28.6823 21.7481 30.6753 20.8546C31.6555 20.4152 32.6532 19.8727 33.6023 19.2019C33.6755 19.1504 33.7466 19.0965 33.8179 19.0452ZM23.4151 18.628C19.6371 19.595 17.2076 21.0625 16.2965 21.6823C17.1377 21.2489 17.9944 20.8473 18.865 20.4782C18.97 20.4339 19.0752 20.39 19.1805 20.3465C19.2135 20.3328 19.2462 20.3192 19.2793 20.3057C19.3668 20.2699 19.4552 20.2346 19.544 20.1986C19.5935 20.1792 19.6423 20.1594 19.6922 20.14C19.7721 20.1082 19.8527 20.0768 19.9339 20.0453C19.9947 20.0219 20.0556 19.9984 20.117 19.9754C20.1915 19.9464 20.2664 19.9181 20.3421 19.8901C20.4127 19.8637 20.4842 19.8376 20.5552 19.8116C20.6252 19.7857 20.6948 19.7605 20.7654 19.7349C20.8457 19.7062 20.9268 19.6779 21.0083 19.6491C21.0726 19.6268 21.1366 19.6041 21.2013 19.5817C21.2967 19.5493 21.3927 19.5169 21.4892 19.4849C21.5423 19.4671 21.5948 19.4494 21.6481 19.4318C21.799 19.3824 21.9516 19.3332 22.1052 19.2857C22.4404 19.1815 22.7829 19.082 23.1311 18.9863C23.5913 18.8592 24.0545 18.7435 24.5203 18.6389C24.152 18.6326 23.7835 18.6304 23.4151 18.628ZM16.2392 18.8037C13.54 19.3802 8.51808 20.9202 3.93749 24.877C3.89386 24.9284 3.84989 24.9797 3.80728 25.0317C6.13573 23.3927 10.138 20.9566 15.086 19.4745C15.2455 19.4267 15.4066 19.3801 15.5679 19.3341C16.4044 19.0967 17.25 18.8941 18.1027 18.7266C17.482 18.7489 16.8606 18.775 16.2392 18.8037ZM37.8539 34.6384C37.8065 34.6604 37.7592 34.6828 37.712 34.7054C37.6863 34.7174 37.6615 34.7293 37.6356 34.7412L37.5743 34.7707L37.4806 34.8159C37.4678 34.8226 37.4542 34.8287 37.4408 34.8357C37.4053 34.8528 37.3701 34.8693 37.3359 34.8865L37.3128 34.8981C37.2753 34.9169 37.2379 34.9352 37.2017 34.9534L37.19 34.959C37.1095 34.9993 37.0334 35.0382 36.9621 35.075C36.8535 35.3887 36.7207 35.6932 36.5648 35.9858L36.5664 35.9835C36.5656 35.9846 36.5648 35.9852 36.5642 35.9868C36.2482 36.5121 35.8677 36.9951 35.4158 37.3853C35.1912 37.5801 34.9471 37.7499 34.6849 37.8738C34.4272 37.9988 34.1388 38.0711 33.8507 38.1499C33.2713 38.2976 32.6871 38.4364 32.1001 38.5621C31.5155 38.6935 30.929 38.8161 30.3408 38.9296C29.7536 39.0492 29.1635 39.1563 28.5743 39.2491C28.2797 39.2958 27.9852 39.3386 27.6945 39.3589C27.6236 39.363 27.5527 39.3649 27.4817 39.3646C27.4512 39.3633 27.4207 39.3607 27.3904 39.3569C27.3744 39.3554 27.3586 39.3517 27.3436 39.3458C27.3288 39.344 27.3143 39.3402 27.3005 39.3347C27.1733 39.2928 27.0409 39.2244 26.9122 39.1522C26.3974 38.8602 25.8993 38.5101 25.4076 38.1603C25.0269 37.89 24.6308 37.577 24.248 37.2879L24.2147 37.3358L24.217 37.3384C24.2408 37.3602 24.2649 37.3804 24.2886 37.4015L24.287 37.4005C24.2694 37.3872 24.2528 37.3742 24.2364 37.3623L24.5573 37.7498C24.5583 37.751 24.5704 37.766 24.594 37.7938C24.7578 37.9885 25.443 38.7934 26.2566 39.6107C26.876 40.2323 27.6232 40.5463 28.4804 40.5463C28.773 40.5463 29.0806 40.5074 29.3914 40.4326C29.6788 40.3611 29.9916 40.2857 30.312 40.2072C31.2622 39.9784 32.3148 39.7231 33.0135 39.5394C33.06 39.5269 33.1053 39.5152 33.1488 39.5034C33.2477 39.4769 33.3373 39.4527 33.4175 39.4302C33.5541 39.3919 33.6917 39.3575 33.8302 39.327C34.6775 39.128 35.8364 38.8558 36.45 37.6103C36.6341 37.2389 36.8199 36.8684 37.0076 36.4989C37.315 35.8943 37.6248 35.2909 37.9371 34.6889C37.9371 34.6885 37.9374 34.6885 37.9374 34.6885L37.9984 34.5705L37.8539 34.6384ZM23.9773 37.3253L23.9223 37.2724C23.6039 37.6312 23.3221 38.0013 22.9938 38.3499C22.8004 38.5592 22.6037 38.7652 22.4035 38.9679C22.2039 39.1691 22.0021 39.3715 21.7934 39.5528C21.6912 39.6419 21.5751 39.7353 21.4794 39.7814C21.3747 39.8291 21.2364 39.8643 21.1038 39.8958C20.8343 39.9565 20.5577 40.0029 20.2798 40.044C19.7251 40.131 19.1651 40.2028 18.6054 40.2634C18.045 40.3323 17.4835 40.3892 16.9226 40.4402C16.361 40.4953 15.7977 40.5388 15.2398 40.5681C15.099 40.5746 14.958 40.5789 14.82 40.5789C14.6838 40.5789 14.5529 40.568 14.4186 40.5453C14.1516 40.5006 13.8892 40.4082 13.6391 40.2893C13.1376 40.0492 12.6784 39.7077 12.2669 39.313L12.2684 39.3144C12.324 39.3837 12.3851 39.4486 12.4436 39.5146C12.4294 39.5015 12.416 39.4884 12.4028 39.4761C12.3573 39.4329 12.3191 39.3947 12.2915 39.3635C12.093 39.1461 10.3072 37.5791 9.37497 36.7642C9.30523 36.7312 9.23516 36.6993 9.16559 36.6664C9.34188 36.9309 9.51988 37.1942 9.69957 37.4563C9.97435 37.858 10.2551 38.2555 10.5416 38.6488C10.6651 38.8177 10.7904 38.9852 10.9176 39.1512C11.9312 40.4718 13.207 41.6921 15.6554 41.6921C15.9619 41.6921 16.2882 41.673 16.6231 41.6346C16.7011 41.6261 16.7769 41.6172 16.8515 41.6082C16.9233 41.6 16.9939 41.592 17.0622 41.5838C19.1912 41.336 19.7753 41.2302 20.0993 41.1736C20.1832 41.1589 20.2548 41.1461 20.3323 41.1345C20.3625 41.1303 20.3933 41.1253 20.426 41.1209C20.4378 41.1199 21.1577 41.0262 21.8615 40.6795C22.3466 40.4411 22.8236 40.0826 23.0569 39.5527C23.6462 38.2181 23.7659 37.8992 23.7707 37.8872L23.9773 37.3253Z" fill="#731B2A"/>
<path d="M29.7448 25.2074C29.8698 25.2048 29.9886 25.1524 30.0754 25.0613C30.1622 24.9702 30.2097 24.848 30.2077 24.7215C30.2068 24.6587 30.1937 24.5965 30.169 24.5389C30.1444 24.4813 30.1087 24.4291 30.0641 24.3855C30.0194 24.3419 29.9664 24.3078 29.9086 24.285C29.8508 24.2621 29.7891 24.2511 29.7271 24.2525C29.6652 24.2536 29.6041 24.267 29.5473 24.2921C29.4905 24.3172 29.4392 24.3533 29.3962 24.3985C29.3533 24.4437 29.3195 24.497 29.297 24.5554C29.2744 24.6138 29.2634 24.6762 29.2647 24.7389C29.267 24.8655 29.3189 24.986 29.4089 25.0739C29.4989 25.1617 29.6198 25.2097 29.7448 25.2074ZM32.6457 27.3587C32.0227 27.0539 31.3419 27.4397 30.1018 27.4633C29.1783 27.4967 28.4045 27.5068 28.3536 26.0404C28.3026 24.5705 28.8931 23.3557 29.8164 23.3233C30.739 23.2906 31.5816 24.4549 31.6948 25.9199C31.7261 26.3242 31.6818 26.6187 31.5831 26.837C32.4408 26.7335 32.6364 27.3232 32.6457 27.3587ZM16.5232 25.562C16.6481 25.5584 16.7664 25.5049 16.8524 25.4132C16.9383 25.3214 16.9848 25.1989 16.9817 25.0725C16.9784 24.9458 16.9257 24.8256 16.8349 24.7384C16.7442 24.6511 16.6229 24.604 16.4978 24.6072C16.4358 24.6089 16.3749 24.6229 16.3183 24.6485C16.2618 24.6741 16.2108 24.7106 16.1682 24.7562C16.1256 24.8017 16.0923 24.8553 16.0701 24.9138C16.048 24.9724 16.0375 25.0348 16.0392 25.0975C16.0408 25.1601 16.0547 25.2219 16.0799 25.2791C16.1052 25.3364 16.1413 25.388 16.1863 25.4312C16.2312 25.4743 16.2841 25.508 16.342 25.5304C16.3998 25.5528 16.4614 25.5635 16.5234 25.5618L16.5232 25.562ZM17.9491 26.3308C17.9628 27.7986 17.1951 27.7101 16.2712 27.7193C16.1774 27.7223 16.0889 27.7235 16.0003 27.7235C15.8974 27.7264 15.7979 27.7276 15.7023 27.7258C14.8055 27.7235 14.233 27.6831 13.7258 27.9604C13.7376 27.9287 13.9606 27.4249 14.7651 27.2194C14.6763 27.021 14.6206 26.7451 14.6059 26.3632C14.5505 24.8961 15.4444 23.6931 16.3675 23.6845C17.2908 23.6753 17.9353 24.8629 17.9491 26.3308ZM35.4336 16.2376C35.4269 16.3279 35.4185 16.4181 35.4083 16.508C35.0425 16.4082 34.675 16.3149 34.3058 16.2283C33.0863 15.9572 31.8517 15.7561 30.6111 15.6126C30.5683 15.607 30.5247 15.6041 30.4809 15.5987C30.4893 15.5799 30.4969 15.5613 30.5025 15.5427C30.5395 15.4056 30.5719 15.2682 30.6027 15.1307C30.9224 13.6981 30.9057 12.271 30.8697 11.5806L35.2813 12.8509C35.5217 14.4382 35.475 15.6834 35.4336 16.2376ZM29.9461 15.3869C29.9314 15.438 29.9335 15.4914 29.9461 15.5409C29.4846 15.492 29.0226 15.4488 28.5601 15.4112C29.0783 14.3112 29.1915 13.1398 29.2167 12.7269C29.6149 12.4409 30.011 12.0969 30.3015 11.8295C30.3281 12.6178 30.3091 14.0484 29.9461 15.3869ZM16.3531 15.5381C16.3655 15.4907 16.3665 15.4382 16.3531 15.387C15.9909 14.0506 15.9717 12.62 15.9966 11.8297C16.2884 12.0971 16.6834 12.4409 17.083 12.7269C17.107 13.1397 17.2202 14.3083 17.7382 15.4085C17.2762 15.4455 16.8141 15.4885 16.3531 15.5381ZM15.6868 15.6116C15.068 15.688 14.4484 15.767 13.8319 15.8705C13.2171 15.9771 12.6021 16.0904 11.9925 16.2275C11.6227 16.3145 11.2563 16.4066 10.8896 16.507C10.8863 16.4777 10.8817 16.4325 10.8765 16.3743C10.834 15.9138 10.7535 14.5876 11.0176 12.8504L15.4281 11.5801C15.3948 12.2448 15.3767 13.5916 15.6602 14.969C15.6996 15.1603 15.7445 15.3517 15.796 15.542C15.8017 15.5608 15.8091 15.5796 15.8172 15.5963C15.7729 15.6019 15.7305 15.6058 15.6867 15.6115L15.6868 15.6116ZM37.7981 17.415C37.7605 17.3968 37.7235 17.3782 37.6879 17.3605C37.6334 17.3339 37.5729 17.3035 37.5037 17.2694C37.4613 17.2487 37.4202 17.2253 37.3807 17.1995C36.9725 17.0084 36.5447 16.8606 36.1175 16.7187C36.067 16.702 36.0171 16.6868 35.9666 16.6718C35.9706 16.659 35.9738 16.6459 35.9762 16.6327C35.9824 16.5838 36.0921 15.7624 36.0259 14.4677C35.9979 13.9148 35.9374 13.2756 35.8231 12.5731C35.814 12.5184 35.7899 12.4674 35.7535 12.426C35.7171 12.3846 35.6698 12.3545 35.6172 12.3391L34.9884 12.159C34.8531 7.23241 32.8498 4.91734 32.7871 4.84554C34.5767 7.76198 34.561 11.2206 34.5299 12.0266L30.6313 10.9046C30.6285 10.9046 30.6259 10.9046 30.6222 10.9029C30.6058 10.8992 30.589 10.8967 30.5722 10.8954C30.5685 10.8954 30.5643 10.8947 30.5579 10.8947C30.5365 10.8936 30.5151 10.8955 30.4942 10.9001C30.4912 10.9001 30.4878 10.903 30.4838 10.903C30.4663 10.9067 30.4493 10.9126 30.4332 10.9206C30.4272 10.9235 30.4216 10.9274 30.4161 10.9291C30.4029 10.9382 30.3901 10.9457 30.3773 10.955C30.3745 10.9571 30.3706 10.9588 30.3679 10.9615C30.364 10.9643 30.3628 10.9672 30.3605 10.969C30.3568 10.973 30.3524 10.9755 30.3494 10.9784C30.3456 10.9823 30.2407 11.0864 30.0776 11.2423C30.0891 10.873 30.092 10.308 30.0505 9.61809L30.0379 9.41906C29.9153 7.68574 29.5107 5.25111 28.3014 3.11973C28.3118 3.15043 28.4314 3.50398 28.586 4.09972C28.9752 5.59819 29.588 8.63111 29.2539 11.9222C29.2523 11.9373 29.2512 11.9521 29.2497 11.9673C29.2447 11.9715 29.2391 11.9756 29.2339 11.9797C29.0843 12.1014 28.9302 12.2171 28.7718 12.327C28.7336 12.3536 28.7022 12.3891 28.68 12.4304C28.6579 12.4717 28.6458 12.5177 28.6447 12.5647C28.6447 12.5796 28.6105 14.0511 27.9692 15.304C27.9578 15.3244 27.9518 15.3449 27.9453 15.3662C26.3491 15.2553 24.7481 15.2081 23.1492 15.2069C21.5512 15.2079 19.9494 15.2524 18.3522 15.3624C18.3458 15.3428 18.3394 15.3224 18.3301 15.3036C17.6877 14.0509 17.6546 12.5796 17.6536 12.5645C17.6527 12.5177 17.6408 12.4717 17.6189 12.4304C17.597 12.3891 17.5657 12.3536 17.5276 12.327C17.363 12.2135 17.203 12.0934 17.0477 11.9671C16.7233 8.83628 17.2586 5.9352 17.6482 4.35657C17.8332 3.60716 17.9858 3.15418 17.9979 3.11956C16.2432 6.21098 16.1824 9.94112 16.2213 11.2421C16.0554 11.0862 15.9525 10.9823 15.9498 10.9782C15.9468 10.9753 15.9414 10.9728 15.9377 10.9689L15.9314 10.9612C15.9284 10.9586 15.9249 10.9569 15.9212 10.9549C15.9087 10.9461 15.8958 10.938 15.8824 10.9308C15.876 10.9272 15.8713 10.9233 15.8639 10.9204C15.8491 10.9123 15.8329 10.9069 15.8162 10.9046C15.8115 10.9029 15.808 10.9 15.8049 10.9C15.7837 10.8954 15.7619 10.8936 15.7402 10.8945C15.7349 10.8945 15.7291 10.8952 15.7237 10.8952C15.7079 10.8969 15.6926 10.8988 15.6761 10.9027C15.6722 10.9044 15.6703 10.9044 15.6666 10.9044L11.7694 12.0265C11.7381 11.2203 11.7213 7.76164 13.5108 4.84537C13.4489 4.91751 11.4458 7.23275 11.3096 12.1593L10.6838 12.3392C10.6306 12.354 10.5827 12.384 10.5459 12.4255C10.509 12.4671 10.4847 12.5185 10.4759 12.5736C10.3737 13.2001 10.3059 13.8316 10.2728 14.4657C10.2068 15.7619 10.3166 16.584 10.3237 16.6329C10.3265 16.646 10.3301 16.6585 10.3321 16.6713C10.2821 16.687 10.2308 16.702 10.181 16.7178C9.75313 16.8597 9.32359 17.0083 8.9151 17.2002C8.87801 17.2244 8.83969 17.2465 8.80004 17.2661L8.79364 17.2697C8.72407 17.3038 8.6636 17.3342 8.60902 17.3608L8.51317 17.4082C8.49296 17.4202 8.47207 17.4304 8.45219 17.4425C8.74142 17.3275 9.04058 17.2436 9.33941 17.1693C9.63878 17.0938 9.9402 17.027 10.2433 16.9687C10.8502 16.8544 11.4585 16.7552 12.0706 16.6798C12.6811 16.5986 13.294 16.5316 13.908 16.4796C14.5222 16.4265 15.1353 16.3742 15.7509 16.3382C18.2124 16.1906 20.6803 16.1441 23.1491 16.1432C25.6187 16.1449 28.0863 16.1842 30.5474 16.3373C31.1633 16.3733 31.7763 16.4253 32.3914 16.478C33.0063 16.5309 33.6172 16.5988 34.2275 16.68C34.8398 16.7545 35.4493 16.8532 36.0552 16.9682C36.358 17.026 36.659 17.0931 36.9579 17.1693C37.2591 17.2438 37.5565 17.3277 37.8464 17.4427C37.8303 17.4328 37.8138 17.4242 37.7981 17.415Z" fill="#0E0F0D"/>
<path d="M23.8396 5.96796V12.547H24.7214V13.7681H21.7399V12.547H22.6215V5.96796L20.4798 5.96794V7.04992H19.4443V4.91972L27.0175 4.91958V7.04977H25.9817V5.96796H23.8396ZM27.7972 7.83753V4.13092H18.6665V7.83753H21.2594V6.75554H21.8419V11.7578H20.9622V14.5545H25.5002V11.7575H24.6175V6.7552H25.2022V7.83735L27.7972 7.83753Z" fill="#0E0F0D"/>
<path d="M9.71306 50.7107H7.97485V49.7987H12.5091V50.7107H10.7792V55.8879H9.7129L9.71306 50.7107ZM12.4124 51.317H13.2872L13.3601 52.1268H13.3982C13.7187 51.5309 14.1975 51.2054 14.6757 51.2054C14.906 51.2054 15.0527 51.2327 15.1903 51.2974L15.0065 52.2294C14.8502 52.182 14.7303 52.1544 14.5384 52.1544C14.1796 52.1544 13.7475 52.4063 13.4711 53.0948V55.8879H12.4133V51.3172L12.4124 51.317ZM17.0934 55.1612C17.4615 55.1612 17.7463 54.9753 18.077 54.6583V53.6344C16.8559 53.7922 16.4513 54.1181 16.4513 54.574C16.4501 54.9844 16.7158 55.1612 17.0934 55.1612ZM18.077 52.9645C18.0686 52.4807 17.8664 52.0713 17.2598 52.0713C16.8091 52.0713 16.3856 52.276 15.9898 52.5172L15.6049 51.8005C16.1021 51.4858 16.7365 51.2054 17.4529 51.2054C18.5832 51.2054 19.1355 51.9035 19.1355 53.1786V55.8886H18.2712L18.1882 55.3845H18.1626C17.7558 55.73 17.2971 55.9997 16.7636 55.9997C15.9736 55.9997 15.4204 55.459 15.4204 54.6591C15.4197 53.6808 16.2295 53.1692 18.077 52.9645ZM19.4375 51.317H20.5142L21.231 53.6906C21.3498 54.1374 21.4884 54.6028 21.608 55.0686H21.644C21.7734 54.6018 21.9031 54.1374 22.0298 53.6906L22.7474 51.317H23.7678L22.2329 55.889H21.0095L19.4375 51.317ZM24.2848 51.317H25.342V55.889H24.2848V51.317ZM24.1652 49.9106C24.1652 49.5472 24.4421 49.2961 24.8188 49.2961C25.1961 49.2961 25.4717 49.5472 25.4717 49.9106C25.4717 50.2643 25.1961 50.5157 24.8188 50.5157C24.4421 50.5156 24.1652 50.2635 24.1652 49.9106ZM26.4446 54.6777C26.8494 54.9932 27.2355 55.1894 27.6957 55.1894C28.1837 55.1894 28.4133 54.9569 28.4133 54.6398C28.4133 54.2585 27.9244 54.0915 27.4477 53.9044C26.8492 53.6815 26.1785 53.336 26.1785 52.5734C26.1785 51.7736 26.8127 51.2051 27.8247 51.2051C28.4496 51.2051 28.9552 51.4638 29.323 51.7539L28.8362 52.4053C28.5229 52.172 28.2012 52.0151 27.8422 52.0151C27.3925 52.0151 27.1802 52.2289 27.1802 52.5175C27.1802 52.8714 27.6308 53.0203 28.1163 53.1973C28.7328 53.4293 29.4121 53.7272 29.4121 54.5839C29.4121 55.365 28.7977 55.9997 27.6576 55.9997C27.0433 55.9997 26.3887 55.728 25.9472 55.3652L26.4446 54.6777ZM34.6 49.6874C35.3353 49.6874 35.9336 50.0503 36.3099 50.4608L35.7215 51.1306C35.4082 50.8238 35.069 50.628 34.6094 50.628C33.6245 50.628 32.9165 51.465 32.9165 52.8347C32.9165 54.2211 33.5694 55.0596 34.5719 55.0596C35.1042 55.0596 35.5 54.836 35.8415 54.4546L36.429 55.1159C35.9422 55.6835 35.3174 56 34.5538 56C33.0275 56 31.8228 54.8822 31.8228 52.8627C31.8228 50.8695 33.0548 49.6874 34.6 49.6874ZM37.0816 49.7989H38.149V55.889H37.0816V49.7989Z" fill="#2A2D2E"/>
</svg>
