<svg width="31" height="28" viewBox="0 0 31 28" fill="none" xmlns="http://www.w3.org/2000/svg">
<path d="M29.2103 22.3991C29.2803 22.3668 29.2203 9.14129 29.2203 9.14129H2.26457V25.6582C2.26457 26.087 2.63982 26.4373 3.1102 26.4373H21.4994L23.1857 25.8841" fill="white"/>
<path d="M29.2253 2.33257C29.2253 1.90387 28.85 1.55353 28.3796 1.55353H3.10524C2.63989 1.55353 2.25961 1.89923 2.25961 2.33257V7.59697H29.2154V2.33257H29.2253Z" fill="#56ACE0"/>
<path d="M21.4993 24.8838V23.169C21.4993 22.7403 21.8746 22.39 22.345 22.39H27.544V9.14129H3.95084V24.8838H21.4993Z" fill="#FFC10D"/>
<path d="M7.63368 3.79388C7.16833 3.79388 6.78805 4.13958 6.78805 4.57292C6.78805 5.00626 7.1633 5.34276 7.63368 5.34276C8.09903 5.34276 8.47931 4.99706 8.47931 4.56372C8.47931 4.13965 8.09903 3.79388 7.63368 3.79388Z" fill="white"/>
<path d="M23.8562 3.79388C23.3908 3.79388 23.0105 4.13958 23.0105 4.57292C23.0105 5.00626 23.3858 5.34276 23.8562 5.34276C24.3265 5.34276 24.7018 4.99706 24.7018 4.56372C24.6968 4.13965 24.3215 3.79388 23.8562 3.79388Z" fill="white"/>
<path d="M19.5478 10.6902H18.0517C17.5864 10.6902 17.2061 11.0359 17.2061 11.4692C17.2061 11.9025 17.5813 12.2482 18.0517 12.2482H19.5478C20.0132 12.2482 20.3935 11.9025 20.3935 11.4692C20.3935 11.0359 20.0132 10.6902 19.5478 10.6902Z" fill="#194F82"/>
<path d="M25.6676 10.6902H24.1714C23.7061 10.6902 23.3258 11.0359 23.3258 11.4692C23.3258 11.9025 23.701 12.2482 24.1714 12.2482H25.6676C26.1329 12.2482 26.5132 11.9025 26.5132 11.4692C26.5132 11.0359 26.1329 10.6902 25.6676 10.6902Z" fill="#194F82"/>
<path d="M7.31339 14.4011H5.81726C5.35191 14.4011 4.97163 14.7468 4.97163 15.1802C4.97163 15.6089 5.34688 15.9592 5.81726 15.9592H7.31339C7.77874 15.9592 8.15902 15.6135 8.15902 15.1802C8.15407 14.7514 7.77874 14.4011 7.31339 14.4011Z" fill="#194F82"/>
<path d="M13.4281 14.4011H11.932C11.4666 14.4011 11.0863 14.7468 11.0863 15.1802C11.0863 15.6089 11.4616 15.9592 11.932 15.9592H13.4281C13.8934 15.9592 14.2737 15.6135 14.2737 15.1802C14.2738 14.7514 13.8985 14.4011 13.4281 14.4011Z" fill="#194F82"/>
<path d="M13.4281 10.6902H11.932C11.4666 10.6902 11.0863 11.0359 11.0863 11.4692C11.0863 11.9025 11.4616 12.2482 11.932 12.2482H13.4281C13.8934 12.2482 14.2737 11.9025 14.2737 11.4692C14.2737 11.0359 13.8985 10.6902 13.4281 10.6902Z" fill="#194F82"/>
<path d="M19.5478 14.4011H18.0517C17.5864 14.4011 17.2061 14.7468 17.2061 15.1802C17.2061 15.6089 17.5813 15.9592 18.0517 15.9592H19.5478C20.0132 15.9592 20.3935 15.6135 20.3935 15.1802C20.3935 14.7514 20.0132 14.4011 19.5478 14.4011Z" fill="#194F82"/>
<path d="M25.6676 14.4011H24.1714C23.7061 14.4011 23.3258 14.7468 23.3258 15.1802C23.3258 15.6089 23.701 15.9592 24.1714 15.9592H25.6676C26.1329 15.9592 26.5132 15.6135 26.5132 15.1802C26.5132 14.7514 26.1329 14.4011 25.6676 14.4011Z" fill="#194F82"/>
<path d="M7.31339 18.1212H5.81726C5.35191 18.1212 4.97163 18.4669 4.97163 18.9002C4.97163 19.3289 5.34688 19.6793 5.81726 19.6793H7.31339C7.77874 19.6793 8.15902 19.3336 8.15902 18.9002C8.15407 18.4715 7.77874 18.1212 7.31339 18.1212Z" fill="#194F82"/>
<path d="M13.4281 18.1212H11.932C11.4666 18.1212 11.0863 18.4669 11.0863 18.9002C11.0863 19.3289 11.4616 19.6793 11.932 19.6793H13.4281C13.8934 19.6793 14.2737 19.3336 14.2737 18.9002C14.2738 18.4715 13.8985 18.1212 13.4281 18.1212Z" fill="#194F82"/>
<path d="M19.5478 18.1212H18.0517C17.5864 18.1212 17.2061 18.4669 17.2061 18.9002C17.2061 19.3289 17.5813 19.6793 18.0517 19.6793H19.5478C20.0132 19.6793 20.3935 19.3336 20.3935 18.9002C20.3935 18.4715 20.0132 18.1212 19.5478 18.1212Z" fill="#194F82"/>
<path d="M25.6676 18.1212H24.1714C23.7061 18.1212 23.3258 18.4669 23.3258 18.9002C23.3258 19.3289 23.701 19.6793 24.1714 19.6793H25.6676C26.1329 19.6793 26.5132 19.3336 26.5132 18.9002C26.5132 18.4715 26.1329 18.1212 25.6676 18.1212Z" fill="#194F82"/>
<path d="M7.31339 21.8367H5.81726C5.35191 21.8367 4.97163 22.1824 4.97163 22.6157C4.97163 23.0444 5.34688 23.3948 5.81726 23.3948H7.31339C7.77874 23.3948 8.15902 23.0491 8.15902 22.6157C8.15407 22.1825 7.77874 21.8367 7.31339 21.8367Z" fill="#194F82"/>
<path d="M13.4281 21.8367H11.932C11.4666 21.8367 11.0863 22.1824 11.0863 22.6157C11.0863 23.0444 11.4616 23.3948 11.932 23.3948H13.4281C13.8934 23.3948 14.2737 23.0491 14.2737 22.6157C14.2737 22.1824 13.8985 21.8367 13.4281 21.8367Z" fill="#194F82"/>
<path d="M7.63368 2.24036C6.23764 2.24036 5.10175 3.28681 5.10175 4.57292C5.10175 5.85903 6.23756 6.90548 7.63368 6.90548C9.02981 6.90548 10.1656 5.85903 10.1656 4.57292C10.1656 3.28681 9.02973 2.24036 7.63368 2.24036ZM7.63368 5.34276C7.16833 5.34276 6.78805 4.99706 6.78805 4.56372C6.78805 4.13038 7.1633 3.78468 7.63368 3.78468C8.10406 3.78468 8.47931 4.13038 8.47931 4.56372C8.47931 4.99706 8.09903 5.34276 7.63368 5.34276Z" fill="#194F82"/>
<path d="M23.8562 2.24036C22.4601 2.24036 21.3242 3.28681 21.3242 4.57292C21.3242 5.85903 22.4601 6.90548 23.8562 6.90548C25.2522 6.90548 26.3881 5.85903 26.3881 4.57292C26.3881 3.28681 25.2472 2.24036 23.8562 2.24036ZM23.8562 5.34276C23.3908 5.34276 23.0105 4.99706 23.0105 4.56372C23.0105 4.13038 23.3858 3.78468 23.8562 3.78468C24.3215 3.78468 24.7018 4.13038 24.7018 4.56372C24.7018 4.99706 24.3215 5.34276 23.8562 5.34276Z" fill="#194F82"/>
<path d="M28.3846 0H3.10521C1.71411 0 0.583252 1.04645 0.583252 2.33256V25.6674C0.583252 26.9536 1.71914 28 3.11519 28H21.9096C22.3449 28 22.7703 27.894 23.1456 27.7004L29.6306 24.3398C30.4262 23.925 30.9166 23.1505 30.9166 22.3115V2.33256C30.9065 1.04645 29.7757 0 28.3846 0ZM2.26453 2.33256C2.26453 1.90386 2.63978 1.55352 3.11016 1.55352L28.3796 1.55353C28.845 1.55353 29.2253 1.89923 29.2253 2.33257L29.2252 7.58776H2.26453V2.33256ZM23.1857 25.8841L23.1856 23.9434H26.9185L23.1857 25.8841ZM29.2103 22.3991L22.3399 22.3991C21.8746 22.3991 21.4943 22.7448 21.4943 23.1781V26.4419H3.10521C2.63986 26.4419 2.25957 26.0961 2.25957 25.6629V9.14128H29.2153C29.2252 9.14128 29.2153 22.3669 29.2103 22.3991Z" fill="#194F82"/>
<path d="M23.1856 23.9526L23.1857 25.8841L26.9185 23.9526H23.1856Z" fill="white"/>
</svg>
