<svg width="120" height="134" viewBox="0 0 120 134" fill="none" xmlns="http://www.w3.org/2000/svg">
<path d="M10.9091 9H109.091C115.135 9 120 13.8502 120 19.875V47.0625H0V19.875C0 13.8502 4.86545 9 10.9091 9Z" fill="url(#paint0_linear_96_3)"/>
<path d="M0 47V123.125C0 129.15 4.86545 134 10.9091 134H109.091C115.135 134 120 129.15 120 123.125V47H0Z" fill="url(#paint1_linear_96_3)"/>
<path d="M32.7273 5.4375C32.7273 2.43445 30.2852 0 27.2728 0C24.2603 0 21.8182 2.43445 21.8182 5.4375V27.1875C21.8182 30.1905 24.2603 32.625 27.2728 32.625C30.2852 32.625 32.7273 30.1905 32.7273 27.1875V5.4375Z" fill="#FAFF00"/>
<path d="M98.1818 5.4375C98.1818 2.43445 95.7397 0 92.7273 0C89.7148 0 87.2727 2.43445 87.2727 5.4375V27.1875C87.2727 30.1905 89.7148 32.625 92.7273 32.625C95.7397 32.625 98.1818 30.1905 98.1818 27.1875V5.4375Z" fill="#FAFF00"/>
<path d="M98.1818 54.375H87.2727V65.25H98.1818V54.375Z" fill="#A5B7BF"/>
<path d="M76.3637 54.375H65.4546V65.25H76.3637V54.375Z" fill="#A5B7BF"/>
<path d="M54.5454 54.375H43.6364V65.25H54.5454V54.375Z" fill="#A5B7BF"/>
<path d="M32.7273 54.375H21.8182V65.25H32.7273V54.375Z" fill="url(#paint2_linear_96_3)"/>
<path d="M98.1818 76.125H87.2727V87H98.1818V76.125Z" fill="#A5B7BF"/>
<path d="M76.3637 76.125H65.4546V87H76.3637V76.125Z" fill="#A5B7BF"/>
<path d="M54.5454 76.125H43.6364V87H54.5454V76.125Z" fill="#A5B7BF"/>
<path d="M32.7273 76.125H21.8182V87H32.7273V76.125Z" fill="#A5B7BF"/>
<path d="M76.3637 97.875H65.4546V108.75H76.3637V97.875Z" fill="#A5B7BF"/>
<path d="M54.5454 97.875H43.6364V108.75H54.5454V97.875Z" fill="#A5B7BF"/>
<path d="M32.7273 97.875H21.8182V108.75H32.7273V97.875Z" fill="#A5B7BF"/>
<defs>
<linearGradient id="paint0_linear_96_3" x1="0" y1="28.0312" x2="120" y2="28.0312" gradientUnits="userSpaceOnUse">
<stop stop-color="#FC6A28"/>
<stop offset="1" stop-color="#F94045"/>
</linearGradient>
<linearGradient id="paint1_linear_96_3" x1="0" y1="90.5" x2="120" y2="90.5" gradientUnits="userSpaceOnUse">
<stop stop-color="#F3F3F3"/>
<stop offset="1" stop-color="#DFE3E4"/>
</linearGradient>
<linearGradient id="paint2_linear_96_3" x1="21.8182" y1="59.8125" x2="32.7273" y2="59.8125" gradientUnits="userSpaceOnUse">
<stop stop-color="#A5B7BF"/>
<stop offset="1" stop-color="#A5B7BF"/>
</linearGradient>
</defs>
</svg>
