<svg width="28" height="23" viewBox="0 0 28 23" fill="none" xmlns="http://www.w3.org/2000/svg">
<path d="M25.671 1.52483H2.33372C1.90481 1.52483 1.5543 1.86416 1.5543 2.2895V17.1397C1.5543 17.5605 1.90017 17.9044 2.33372 17.9044H16.9034V15.8366C15.8333 14.995 15.1462 13.7055 15.1462 12.2575C15.1462 9.72824 17.2447 7.66943 19.8229 7.66943C22.4011 7.66943 24.4996 9.72817 24.4996 12.2575C24.4996 13.7055 23.8124 14.9995 22.7424 15.8366V17.8953H25.6757C26.1046 17.8953 26.4551 17.556 26.4551 17.1307V2.28495C26.4504 1.8687 26.0999 1.52483 25.671 1.52483Z" fill="white"/>
<path d="M22.7423 16.375H24.1213C24.5502 16.375 24.9008 16.0356 24.9008 15.6103V3.8098C24.9008 3.38901 24.5548 3.04514 24.1213 3.04514H3.89265C3.46374 3.04514 3.11323 3.38446 3.11323 3.8098V15.6103C3.11323 16.0311 3.4591 16.375 3.89265 16.375H16.908" fill="#56ACE0"/>
<path d="M18.4623 16.6465V20.8771L19.417 20.3024C19.666 20.1531 19.9797 20.1531 20.2287 20.3024L21.1835 20.8771V16.6465C20.7545 16.7777 20.2979 16.8455 19.8229 16.8455C19.3478 16.8456 18.8912 16.7731 18.4623 16.6465Z" fill="#FFC10D"/>
<path d="M22.9452 12.2575C22.9452 10.5698 21.5431 9.19421 19.8228 9.19421C18.1025 9.19421 16.7004 10.5698 16.7004 12.2575C16.7004 13.9452 18.1025 15.3207 19.8228 15.3207C21.5432 15.3207 22.9452 13.9452 22.9452 12.2575Z" fill="#FFC10D"/>
<path d="M22.8391 5.46588H5.16556C4.73664 5.46588 4.38613 5.12656 4.38613 4.70122C4.38613 4.27588 4.732 3.93656 5.16556 3.93656H22.8391C23.2681 3.93656 23.6186 4.27588 23.6186 4.70122C23.6186 5.12649 23.2681 5.46588 22.8391 5.46588Z" fill="#194F82"/>
<path d="M12.4158 8.80968H5.16556C4.73664 8.80968 4.38613 8.47036 4.38613 8.04502C4.38613 7.62423 4.732 7.28036 5.16556 7.28036H12.4112C12.8401 7.28036 13.1906 7.61968 13.1906 8.04502C13.1906 8.46126 12.8401 8.80968 12.4158 8.80968Z" fill="#194F82"/>
<path d="M12.4158 12.1444H5.16556C4.73664 12.1444 4.38613 11.8051 4.38613 11.3797C4.38613 10.9544 4.732 10.6151 5.16556 10.6151H12.4112C12.8401 10.6151 13.1906 10.9544 13.1906 11.3797C13.186 11.8051 12.8401 12.1444 12.4158 12.1444Z" fill="#194F82"/>
<path d="M12.4158 15.4836H5.16556C4.73664 15.4836 4.38613 15.1443 4.38613 14.719C4.38613 14.2982 4.732 13.9543 5.16556 13.9543H12.4112C12.8401 13.9543 13.1906 14.2936 13.1906 14.719C13.1906 15.1398 12.8401 15.4836 12.4158 15.4836Z" fill="#194F82"/>
<path d="M25.671 0H2.33372C1.04697 0 0 1.02713 0 2.28951V17.1397C0 18.4021 1.04697 19.4292 2.33372 19.4292H16.9034V22.2346C16.908 22.8182 17.586 23.2074 18.0887 22.8816L19.8182 21.8409L21.5477 22.8816C22.0458 23.1938 22.733 22.8228 22.733 22.2346V19.4292H25.6663C26.953 19.4292 28 18.4021 28 17.1397V2.28496C28.0047 1.02713 26.9578 0 25.671 0ZM21.1788 20.8816L20.2287 20.307C19.9797 20.1577 19.6661 20.1577 19.417 20.307L18.4623 20.8816V16.651C18.8912 16.7823 19.3478 16.8501 19.8229 16.8501C20.298 16.8501 20.7545 16.7777 21.1835 16.651V20.8816H21.1788ZM19.8228 15.3207C18.1025 15.3207 16.7004 13.9452 16.7004 12.2575C16.7004 10.5698 18.1025 9.19421 19.8228 9.19421C21.5431 9.19421 22.9452 10.5698 22.9452 12.2575C22.9452 13.9452 21.5432 15.3207 19.8228 15.3207ZM26.4504 17.1397C26.4504 17.5605 26.1045 17.9044 25.671 17.9044H22.7377V15.8456C23.8077 15.004 24.4949 13.7144 24.4949 12.2666C24.4949 9.73728 22.3964 7.67847 19.8182 7.67847C17.24 7.67847 15.1415 9.73721 15.1415 12.2666C15.1415 13.71 15.8286 15.004 16.8986 15.8456V17.9134H2.33372C1.9048 17.9134 1.55429 17.5741 1.55429 17.1487V2.28496C1.55429 1.86417 1.90016 1.5203 2.33372 1.5203H25.671C26.0999 1.5203 26.4504 1.85962 26.4504 2.28496V17.1397Z" fill="#194F82"/>
</svg>
