<svg width="64" height="54" viewBox="0 0 64 54" fill="none" xmlns="http://www.w3.org/2000/svg">
<path d="M56.975 0H7.275C3.2625 0 0 3.2 0 7.125V46.625C0 50.625 3.3375 54 7.275 54H56.975C60.85 54 64 50.6875 64 46.625V7.125C64 3.125 60.9125 0 56.975 0ZM59 46.625C59 47.9375 58.0875 49 56.975 49H7.275C6.0875 49 5 47.8625 5 46.625V7.125C5 5.95 6.025 5 7.275 5H56.975C58.1625 5 59 5.875 59 7.125V46.625Z" fill="url(#paint0_linear_157_83)"/>
<path d="M22.4 23.4136C22.8734 23.1095 23.2317 22.8783 23.4876 22.708C24.0506 22.3431 24.9848 21.7226 24.9848 20.4331C24.9848 19.0949 23.8331 18 22.4255 18C21.7857 18 21.2099 18.219 20.7621 18.5839C20.0839 19.0584 15.9124 21.6861 10.2565 25.2263C9.50152 25.7007 9.02807 26.4793 9.00248 27.3309C8.96409 28.1825 9.37356 28.9976 10.0901 29.5328L20.8644 37.489C21.3251 37.8297 21.8881 38 22.4383 38C23.2061 38 23.9611 37.6715 24.4601 37.0633C25.3303 36.0049 25.1255 34.472 24.0123 33.6448L15.81 27.5864C16.8209 26.9538 17.9853 26.2238 19.0986 25.5183C20.4933 24.6423 21.6066 23.9246 22.4 23.4136ZM20.6597 18.6813C20.5829 18.7543 20.5061 18.8272 20.4422 18.9002C20.5061 18.8151 20.5829 18.7421 20.6597 18.6813Z" fill="url(#paint1_linear_157_83)"/>
<path d="M53.7187 25.2263C48.0538 21.6861 43.8977 19.0462 43.22 18.5839C42.7724 18.219 42.1969 18 41.5576 18C40.1509 18 39 19.0949 39 20.4331C39 21.7226 39.9335 22.3431 40.4962 22.708C40.7519 22.8783 41.11 23.1095 41.5831 23.4136C42.376 23.9246 43.5013 24.6302 44.908 25.5182C46.0205 26.2238 47.1714 26.9538 48.1944 27.5864L39.9974 33.6448C38.8849 34.472 38.6803 35.9927 39.5499 37.0633C40.0486 37.6837 40.8031 38 41.5703 38C42.1202 38 42.6701 37.8297 43.1432 37.4891L53.9106 29.5328C54.6267 28.9976 55.0359 28.1825 54.9975 27.3309C54.9336 26.4793 54.4604 25.6886 53.7187 25.2263ZM43.3095 18.6569C43.3862 18.7178 43.4502 18.8029 43.5269 18.8759C43.4629 18.8029 43.3862 18.7299 43.3095 18.6569Z" fill="url(#paint2_linear_157_83)"/>
<path d="M36.0304 14.086C34.607 13.7291 33.1569 14.5168 32.7711 15.8214L26.093 38.8984C25.7072 40.2154 26.5586 41.5569 27.9687 41.9138C28.1949 41.9754 28.4343 42 28.6605 42C29.8311 42 30.9087 41.2738 31.228 40.1784L37.9061 17.1014C38.2919 15.7845 37.4538 14.4306 36.0304 14.086Z" fill="url(#paint3_linear_157_83)"/>
<defs>
<linearGradient id="paint0_linear_157_83" x1="2.375" y1="27" x2="63.125" y2="27" gradientUnits="userSpaceOnUse">
<stop stop-color="#FF884B"/>
<stop offset="0.35" stop-color="#FF634C"/>
<stop offset="0.655" stop-color="#FE4A4F"/>
<stop offset="1" stop-color="#FE4840"/>
</linearGradient>
<linearGradient id="paint1_linear_157_83" x1="-26.9642" y1="27" x2="221.791" y2="27" gradientUnits="userSpaceOnUse">
<stop stop-color="#FF884B"/>
<stop offset="0.35" stop-color="#FF634C"/>
<stop offset="0.655" stop-color="#FE4A4F"/>
<stop offset="1" stop-color="#FE4840"/>
</linearGradient>
<linearGradient id="paint2_linear_157_83" x1="-151.765" y1="27" x2="96.8291" y2="27" gradientUnits="userSpaceOnUse">
<stop stop-color="#FF884B"/>
<stop offset="0.35" stop-color="#FF634C"/>
<stop offset="0.655" stop-color="#FE4A4F"/>
<stop offset="1" stop-color="#FE4840"/>
</linearGradient>
<linearGradient id="paint3_linear_157_83" x1="0.617548" y1="28.0001" x2="65.2706" y2="28.0001" gradientUnits="userSpaceOnUse">
<stop stop-color="#FF884B"/>
<stop offset="0.35" stop-color="#FF634C"/>
<stop offset="0.655" stop-color="#FE4A4F"/>
<stop offset="1" stop-color="#FE4840"/>
</linearGradient>
</defs>
</svg>
