<svg width="14" height="20" viewBox="0 0 14 20" fill="none" xmlns="http://www.w3.org/2000/svg">
<path d="M3.19885 17.8966H2.64103C2.62512 17.8035 2.59579 17.721 2.55304 17.6491C2.51028 17.5762 2.45708 17.5144 2.39345 17.4638C2.32981 17.4132 2.25723 17.3752 2.17569 17.3499C2.09515 17.3236 2.00815 17.3104 1.91468 17.3104C1.74863 17.3104 1.60147 17.3529 1.47321 17.438C1.34494 17.522 1.24451 17.6455 1.17193 17.8085C1.09934 17.9705 1.06305 18.1685 1.06305 18.4023C1.06305 18.6403 1.09934 18.8407 1.17193 19.0037C1.24551 19.1657 1.34593 19.2882 1.47321 19.3713C1.60147 19.4533 1.74814 19.4943 1.91319 19.4943C2.00467 19.4943 2.09018 19.4821 2.16973 19.4578C2.25027 19.4325 2.32235 19.3956 2.38599 19.347C2.45062 19.2984 2.50481 19.2386 2.54856 19.1678C2.59331 19.0969 2.62413 19.0159 2.64103 18.9248L3.19885 18.9278C3.17797 19.0756 3.13272 19.2143 3.06312 19.3439C2.99451 19.4735 2.90453 19.5879 2.79316 19.6872C2.6818 19.7854 2.55154 19.8623 2.4024 19.918C2.25325 19.9727 2.0877 20 1.90574 20C1.63727 20 1.39764 19.9367 1.18684 19.8102C0.976048 19.6836 0.809996 19.5009 0.68869 19.2619C0.567383 19.023 0.506729 18.7365 0.506729 18.4023C0.506729 18.0672 0.56788 17.7807 0.690181 17.5428C0.812482 17.3038 0.97903 17.1211 1.18983 16.9945C1.40062 16.868 1.63926 16.8047 1.90574 16.8047C2.07576 16.8047 2.23386 16.829 2.38002 16.8776C2.52619 16.9262 2.65645 16.9976 2.77079 17.0917C2.88514 17.1849 2.9791 17.2993 3.05268 17.4349C3.12726 17.5696 3.17598 17.7235 3.19885 17.8966Z" fill="black"/>
<path d="M6.43498 18.4023C6.43498 18.7375 6.37333 19.0245 6.25004 19.2634C6.12773 19.5014 5.96069 19.6836 5.7489 19.8102C5.5381 19.9367 5.29897 20 5.0315 20C4.76403 20 4.5244 19.9367 4.31261 19.8102C4.10181 19.6826 3.93477 19.4998 3.81147 19.2619C3.68917 19.023 3.62802 18.7365 3.62802 18.4023C3.62802 18.0672 3.68917 17.7807 3.81147 17.5428C3.93477 17.3038 4.10181 17.1211 4.31261 16.9945C4.5244 16.868 4.76403 16.8047 5.0315 16.8047C5.29897 16.8047 5.5381 16.868 5.7489 16.9945C5.96069 17.1211 6.12773 17.3038 6.25004 17.5428C6.37333 17.7807 6.43498 18.0672 6.43498 18.4023ZM5.87866 18.4023C5.87866 18.1664 5.84236 17.9675 5.76978 17.8055C5.69819 17.6425 5.59876 17.5195 5.47148 17.4365C5.34421 17.3524 5.19755 17.3104 5.0315 17.3104C4.86545 17.3104 4.71879 17.3524 4.59151 17.4365C4.46424 17.5195 4.36431 17.6425 4.29173 17.8055C4.22013 17.9675 4.18434 18.1664 4.18434 18.4023C4.18434 18.6382 4.22013 18.8377 4.29173 19.0007C4.36431 19.1627 4.46424 19.2857 4.59151 19.3697C4.71879 19.4528 4.86545 19.4943 5.0315 19.4943C5.19755 19.4943 5.34421 19.4528 5.47148 19.3697C5.59876 19.2857 5.69819 19.1627 5.76978 19.0007C5.84236 18.8377 5.87866 18.6382 5.87866 18.4023Z" fill="black"/>
<path d="M6.95811 19.9575V16.8472H8.10357C8.33823 16.8472 8.5351 16.8918 8.69419 16.9809C8.85428 17.07 8.97509 17.1925 9.05662 17.3484C9.13915 17.5033 9.18042 17.6795 9.18042 17.8769C9.18042 18.0763 9.13915 18.2535 9.05662 18.4084C8.97409 18.5633 8.85229 18.6853 8.69121 18.7744C8.53013 18.8625 8.33176 18.9065 8.09611 18.9065H7.33695V18.4434H8.02154C8.15875 18.4434 8.27111 18.4191 8.35861 18.3705C8.44611 18.3219 8.51074 18.255 8.5525 18.17C8.59526 18.0849 8.61664 17.9872 8.61664 17.8769C8.61664 17.7665 8.59526 17.6693 8.5525 17.5853C8.51074 17.5013 8.44561 17.436 8.35712 17.3894C8.26962 17.3418 8.15676 17.318 8.01855 17.318H7.51145V19.9575H6.95811Z" fill="black"/>
<path d="M9.45224 16.8472H10.0772L10.8244 18.2231H10.8542L11.6015 16.8472H12.2264L11.1152 18.7972V19.9575H10.5634V18.7972L9.45224 16.8472Z" fill="black"/>
<path d="M11 12.2189C11 12.759 10.7893 13.277 10.4142 13.6589C10.0391 14.0408 9.53043 14.2553 9 14.2553H2C1.46957 14.2553 0.960859 14.0408 0.585786 13.6589C0.210714 13.277 0 12.759 0 12.2189V5.09119C0 4.55109 0.210714 4.0331 0.585786 3.65119C0.960859 3.26927 1.46957 3.05472 2 3.05472V4.07295C1.73478 4.07295 1.48043 4.18023 1.29289 4.37119C1.10536 4.56215 1 4.82114 1 5.09119V12.2189C1 12.4889 1.10536 12.7479 1.29289 12.9389C1.48043 13.1298 1.73478 13.2371 2 13.2371H9C9.26522 13.2371 9.51957 13.1298 9.70711 12.9389C9.89464 12.7479 10 12.4889 10 12.2189H11Z" fill="black"/>
<path d="M5 1.01824C4.73478 1.01824 4.48043 1.12552 4.29289 1.31647C4.10536 1.50743 4 1.76642 4 2.03648V9.16415C4 9.4342 4.10536 9.69319 4.29289 9.88415C4.48043 10.0751 4.73478 10.1824 5 10.1824H12C12.2652 10.1824 12.5196 10.0751 12.7071 9.88415C12.8946 9.69319 13 9.4342 13 9.16415V2.03648C13 1.76642 12.8946 1.50743 12.7071 1.31647C12.5196 1.12552 12.2652 1.01824 12 1.01824H5ZM5 0H12C12.5304 0 13.0391 0.214557 13.4142 0.59647C13.7893 0.978384 14 1.49637 14 2.03648V9.16415C14 9.70425 13.7893 10.2222 13.4142 10.6042C13.0391 10.9861 12.5304 11.2006 12 11.2006H5C4.46957 11.2006 3.96086 10.9861 3.58579 10.6042C3.21071 10.2222 3 9.70425 3 9.16415V2.03648C3 1.49637 3.21071 0.978384 3.58579 0.59647C3.96086 0.214557 4.46957 0 5 0Z" fill="black"/>
</svg>
