<svg width="450" height="450" viewBox="0 0 450 450" fill="none" xmlns="http://www.w3.org/2000/svg">
<path d="M224.656 0C100.586 0 0 100.586 0 224.656C0 330.737 73.549 419.589 172.424 443.143C167.308 441.925 162.236 440.56 157.259 439.004V387.532C157.259 387.532 148.835 390.34 137.602 390.34C106.176 390.34 93.12 362.301 89.8625 348.217C87.8838 339.637 82.7167 331.506 77.1694 326.538C70.5421 320.628 67.4401 320.61 67.3969 318.588C67.3105 314.346 73.0824 314.519 75.8215 314.519C89.8625 314.519 100.508 329.458 105.45 337.183C117.694 356.253 130.836 359.45 137.602 359.45C146.027 359.45 153.302 358.188 158.314 355.769C160.629 339.456 167.887 324.922 179.725 314.519C127.043 303.986 89.8625 273.77 89.8625 224.656C89.8625 199.357 100.015 176.105 116.934 157.329C115.205 152.429 112.328 142.518 112.328 126.369C112.328 115.698 113.071 102.599 117.945 89.8625C117.945 89.8625 149.984 90.0872 180.2 118.705C194.146 114.644 209.069 112.328 224.656 112.328C240.244 112.328 255.166 114.644 269.112 118.705C299.329 90.0872 331.368 89.8625 331.368 89.8625C336.267 102.599 336.984 115.698 336.984 126.369C336.984 143.78 334.669 153.933 333.252 158.314C349.652 176.917 359.45 199.806 359.45 224.656C359.45 273.77 322.269 303.986 269.588 314.519C283.654 326.875 292.053 344.873 292.053 365.066V439.004C287.076 440.568 282.013 441.925 276.889 443.143C375.763 419.589 449.312 330.737 449.312 224.656C449.312 100.586 348.727 0 224.656 0ZM240.322 448.708C235.146 449.071 229.927 449.312 224.656 449.312C229.927 449.312 235.137 449.062 240.322 448.708ZM224.656 449.312C219.385 449.312 214.167 449.071 208.991 448.708C214.175 449.062 219.385 449.312 224.656 449.312ZM205.543 448.448C195.028 447.558 184.711 445.951 174.662 443.662C184.719 445.943 195.028 447.558 205.543 448.448Z" fill="white"/>
</svg>
