<svg width="54" height="22" viewBox="0 0 54 22" fill="none" xmlns="http://www.w3.org/2000/svg">
<path fill-rule="evenodd" clip-rule="evenodd" d="M30.5736 6.84413C29.9376 7.02267 29.2926 7.20358 28.5461 7.407C28.1814 7.51057 28.0984 7.5341 27.759 7.12032C27.352 6.63293 27.0535 6.31764 26.4834 6.03079C24.7737 5.14198 23.118 5.40006 21.5711 6.46098C19.7257 7.72245 18.7758 9.58605 18.8029 11.9084C18.8299 14.2022 20.3227 16.0946 22.4668 16.4099C24.3123 16.668 25.8592 15.9799 27.0805 14.5177C27.3247 14.2024 27.542 13.858 27.8134 13.4568H22.5753C22.0053 13.4568 21.8696 13.0841 22.0596 12.5965C22.4125 11.7077 23.0639 10.217 23.4437 9.47148C23.5252 9.29937 23.7153 9.01269 24.1223 9.01269H32.856C33.2483 7.69943 33.8848 6.45861 34.734 5.28447C36.7153 2.53189 39.1036 1.09831 42.3332 0.49635C45.1015 -0.0198118 47.7069 0.26687 50.068 1.95853C52.2122 3.50684 53.5419 5.59976 53.8948 8.35234C54.3561 12.2229 53.2977 15.3769 50.7737 18.0719C48.9824 19.9929 46.7841 21.1972 44.2601 21.7419C43.7787 21.836 43.2972 21.8807 42.8234 21.9247C42.5762 21.9477 42.331 21.9704 42.089 22C39.6191 21.9426 37.3667 21.1972 35.4667 19.4769C34.1307 18.2567 33.2105 16.7573 32.753 15.0118C32.4356 15.6891 32.0561 16.3376 31.6129 16.9546C29.6588 19.6785 27.1076 21.3701 23.8781 21.8289C21.2183 22.2016 18.7486 21.6568 16.5774 19.9365C14.569 18.3309 13.4292 16.2092 13.1306 13.5715C12.7778 10.4463 13.6463 7.63648 15.4375 5.17075C17.3645 2.50431 19.9157 0.812648 23.0367 0.210516C25.5879 -0.276877 28.0304 0.0385749 30.2289 1.61549C31.6671 2.61888 32.6985 3.99525 33.3771 5.65814C33.5399 5.91622 33.4312 6.05956 33.1055 6.14553C32.1545 6.40074 31.3711 6.62057 30.5736 6.84413ZM48.5293 10.11C48.5347 10.2063 48.5403 10.3078 48.5482 10.4166C48.4126 12.8824 47.2455 14.7174 45.1015 15.8929C43.6631 16.6669 42.1703 16.7531 40.6777 16.065C38.7236 15.1474 37.6922 12.8824 38.1807 10.646C38.7779 7.95092 40.4062 6.25926 42.9302 5.65713C45.5085 5.02639 47.9784 6.63191 48.4669 9.47046C48.5052 9.67354 48.5165 9.87645 48.5293 10.11Z" fill="#00ACD7"/>
<path d="M4.12527 6.51838C4.07098 6.60435 4.09812 6.66173 4.20668 6.66173L12.2894 6.69049C12.3708 6.69049 12.5065 6.60435 12.5608 6.51838L13.0222 5.77291C13.0765 5.68694 13.0493 5.60097 12.9408 5.60097H4.99374C4.88519 5.60097 4.74948 5.65834 4.69521 5.74431L4.12527 6.51838Z" fill="#00ACD7"/>
<path d="M0.02714 9.15605C-0.02714 9.24202 7.45058e-09 9.29939 0.10856 9.29939L11.2038 9.27079C11.3124 9.27079 11.4209 9.21342 11.4481 9.09867L11.6652 8.41057C11.6923 8.3246 11.638 8.23863 11.5295 8.23863H0.895618C0.787059 8.23863 0.651358 8.29583 0.597078 8.38197L0.02714 9.15605Z" fill="#00ACD7"/>
<path d="M6.59512 11.7653C6.54084 11.8513 6.56797 11.9372 6.67655 11.9372L10.8511 11.966C10.9325 11.966 11.0411 11.88 11.0411 11.7653L11.0954 11.0772C11.0954 10.9624 11.0411 10.8765 10.9325 10.8765H7.24648C7.13791 10.8765 7.02935 10.9624 6.97508 11.0484L6.59512 11.7653Z" fill="#00ACD7"/>
</svg>
