<svg width="28" height="28" viewBox="0 0 28 28" fill="none" xmlns="http://www.w3.org/2000/svg">
<path d="M15.8097 21.9022H12.195V26.4375H15.8097V21.9022Z" fill="white"/>
<path d="M5.84161 13.5276H1.55834V26.4375H5.84161V13.5276Z" fill="#56ACE0"/>
<path d="M26.4417 13.5276H22.1585V26.4375H26.4417V13.5276Z" fill="#56ACE0"/>
<path d="M7.39995 26.4422H10.6412V21.1325C10.6412 20.7039 10.9869 20.3536 11.4203 20.3536H16.5934C17.0222 20.3536 17.3726 20.6992 17.3726 21.1325V26.4422H20.6092V7.20855H7.39995V26.4422Z" fill="#FFC10D"/>
<path d="M14.0023 17.2564C15.9859 17.2564 17.594 15.6489 17.594 13.6659C17.594 11.6829 15.9859 10.0754 14.0023 10.0754C12.0187 10.0754 10.4107 11.6829 10.4107 13.6659C10.4107 15.6489 12.0187 17.2564 14.0023 17.2564Z" fill="white"/>
<path d="M14.0023 8.47605C11.1345 8.47605 8.8108 10.799 8.8108 13.6659C8.8108 16.5327 11.1345 18.8557 14.0023 18.8557C16.8701 18.8557 19.1938 16.5327 19.1938 13.6659C19.1938 10.799 16.8701 8.47605 14.0023 8.47605ZM14.0023 17.2564C12.0198 17.2564 10.4107 15.6478 10.4107 13.6659C10.4107 11.684 12.0198 10.0754 14.0023 10.0754C15.9849 10.0754 17.594 11.684 17.594 13.6659C17.594 15.6478 15.9849 17.2564 14.0023 17.2564Z" fill="#194F82"/>
<path d="M3.7023 17.072C4.13107 17.072 4.48147 16.7263 4.48147 16.2931V15.3897C4.48147 14.961 4.13571 14.6107 3.7023 14.6107C3.26889 14.6107 2.92313 14.9564 2.92313 15.3897V16.2931C2.92306 16.7216 3.27352 17.072 3.7023 17.072Z" fill="#194F82"/>
<path d="M3.7023 21.2155C4.13107 21.2155 4.48147 20.8698 4.48147 20.4366V19.5332C4.48147 19.1046 4.13571 18.7543 3.7023 18.7543C3.26889 18.7543 2.92313 19.0999 2.92313 19.5332V20.4366C2.92306 20.8652 3.27352 21.2155 3.7023 21.2155Z" fill="#194F82"/>
<path d="M3.7023 25.359C4.13107 25.359 4.48147 25.0133 4.48147 24.5801V23.6767C4.48147 23.2481 4.13571 22.8978 3.7023 22.8978C3.26889 22.8978 2.92313 23.2435 2.92313 23.6767V24.5801C2.92306 25.0087 3.27352 25.359 3.7023 25.359Z" fill="#194F82"/>
<path d="M24.3024 17.072C24.7311 17.072 25.0815 16.7263 25.0815 16.2931V15.3897C25.0815 14.961 24.7358 14.6107 24.3024 14.6107C23.8736 14.6107 23.5232 14.9564 23.5232 15.3897V16.2931C23.5232 16.7216 23.8736 17.072 24.3024 17.072Z" fill="#194F82"/>
<path d="M24.3024 21.2155C24.7311 21.2155 25.0815 20.8698 25.0815 20.4366V19.5332C25.0815 19.1046 24.7358 18.7543 24.3024 18.7543C23.8736 18.7543 23.5232 19.0999 23.5232 19.5332V20.4366C23.5232 20.8652 23.8736 21.2155 24.3024 21.2155Z" fill="#194F82"/>
<path d="M24.3024 25.359C24.7311 25.359 25.0815 25.0133 25.0815 24.5801V23.6767C25.0815 23.2481 24.7358 22.8978 24.3024 22.8978C23.8736 22.8978 23.5232 23.2435 23.5232 23.6767V24.5801C23.5232 25.0087 23.8736 25.359 24.3024 25.359Z" fill="#194F82"/>
<path d="M21.0611 1.56247H6.9435L3.89129 5.65075H24.1134L21.0611 1.56247Z" fill="white"/>
<path d="M27.2255 11.9744H22.1585V7.204H25.6625C26.331 7.17633 26.6491 6.49417 26.2849 5.95952L22.223 0.516186C21.951 0.184301 21.5637 0.0275917 21.075 0H6.92046C6.47321 0.0230287 6.07211 0.161344 5.77242 0.516186L1.71974 5.95952C1.314 6.59099 1.79812 7.20856 2.34215 7.204H5.84617V11.9744H0.779171C0.350395 11.9744 0 12.32 0 12.7533V27.2211C0 27.6497 0.345759 28 0.779171 28H27.2208C27.6496 28 28 27.6544 28 27.2211V12.7533C28.0001 12.32 27.6542 11.9744 27.2255 11.9744ZM26.4463 26.4422H22.1585L22.1585 13.5276H26.4417L26.4417 26.4421L26.4463 26.4422ZM15.8097 21.9022V26.4375H12.195V21.9022H15.8097ZM20.6047 26.4422H17.3635V21.1325C17.3635 20.7039 17.0177 20.3536 16.5843 20.3536H11.4113C10.9825 20.3536 10.6321 20.6993 10.6321 21.1325V26.4422H7.39545V7.20856H20.6001V26.4422H20.6047ZM3.89129 5.65075L6.9435 1.56247H21.0611L24.1134 5.65075H3.89129ZM5.84617 26.4422H1.55834L1.55834 13.5276H5.84617V26.4422Z" fill="#194F82"/>
<path d="M12.6837 14.4448H14.0023C14.4311 14.4448 14.7815 14.0991 14.7815 13.6659V11.7808C14.7815 11.3522 14.4357 11.0019 14.0023 11.0019C13.5689 11.0019 13.2231 11.3475 13.2231 11.7808V12.887H12.6837C12.2549 12.887 11.9045 13.2326 11.9045 13.6659C11.9091 14.0945 12.2549 14.4448 12.6837 14.4448Z" fill="#194F82"/>
</svg>
