<svg width="416" height="416" viewBox="0 0 416 416" fill="none" xmlns="http://www.w3.org/2000/svg">
<path d="M323.478 415.5L92.645 415.719C41.8617 415.765 0.277039 374.262 0.219331 323.478L3.84778e-05 92.645C-0.0461282 41.8617 41.4577 0.277039 92.2411 0.219331L323.074 3.84778e-05C373.858 -0.0461282 415.442 41.4577 415.5 92.241L415.719 323.074C415.777 373.869 374.262 415.454 323.478 415.5Z" fill="url(#paint0_radial_40_10)"/>
<path d="M323.697 415.781L92.7075 416C41.8899 416.046 0.277226 374.514 0.219479 323.697L3.85037e-05 92.7075C-0.0461593 41.8899 41.4857 0.277226 92.3033 0.219479L323.292 3.85037e-05C374.11 -0.0461593 415.723 41.4857 415.781 92.3033L416 323.292C416.058 374.122 374.514 415.734 323.697 415.781Z" fill="url(#paint1_radial_40_10)"/>
<path d="M207.865 288.657C163.326 288.657 127.074 252.416 127.074 207.866C127.074 163.315 163.326 127.074 207.865 127.074C252.405 127.074 288.657 163.315 288.657 207.866C288.657 252.416 252.405 288.657 207.865 288.657ZM207.865 150.157C176.045 150.157 150.157 176.045 150.157 207.866C150.157 239.686 176.045 265.574 207.865 265.574C239.686 265.574 265.574 239.686 265.574 207.866C265.574 176.045 239.686 150.157 207.865 150.157Z" fill="white"/>
<path d="M294.428 138.615C303.989 138.615 311.74 130.864 311.74 121.303C311.74 111.742 303.989 103.99 294.428 103.99C284.866 103.99 277.115 111.742 277.115 121.303C277.115 130.864 284.866 138.615 294.428 138.615Z" fill="white"/>
<path d="M277.115 357.907H138.615C94.0761 357.907 57.8237 321.666 57.8237 277.116V138.616C57.8237 94.0647 94.0761 57.8239 138.615 57.8239H277.115C321.655 57.8239 357.907 94.0647 357.907 138.616V277.116C357.907 321.666 321.655 357.907 277.115 357.907ZM138.615 80.9072C106.795 80.9072 80.9071 106.795 80.9071 138.616V277.116C80.9071 308.936 106.795 334.824 138.615 334.824H277.115C308.936 334.824 334.824 308.936 334.824 277.116V138.616C334.824 106.795 308.936 80.9072 277.115 80.9072H138.615Z" fill="white"/>
<defs>
<radialGradient id="paint0_radial_40_10" cx="0" cy="0" r="1" gradientUnits="userSpaceOnUse" gradientTransform="translate(154.647 416.3) scale(518.559 518.559)">
<stop stop-color="#FFDD55"/>
<stop offset="0.328" stop-color="#FF543F"/>
<stop offset="0.348" stop-color="#FC5245"/>
<stop offset="0.504" stop-color="#E64771"/>
<stop offset="0.643" stop-color="#D53E91"/>
<stop offset="0.761" stop-color="#CC39A4"/>
<stop offset="0.841" stop-color="#C837AB"/>
</radialGradient>
<radialGradient id="paint1_radial_40_10" cx="0" cy="0" r="1" gradientUnits="userSpaceOnUse" gradientTransform="translate(66.9407 -5.19373) scale(344.324 229.423)">
<stop stop-color="#4168C9"/>
<stop offset="0.999" stop-color="#4168C9" stop-opacity="0"/>
</radialGradient>
</defs>
</svg>
