<svg width="209" height="209" viewBox="0 0 209 209" fill="none" xmlns="http://www.w3.org/2000/svg">
<path d="M155.113 195.934C154.338 196.343 154.381 196.508 155.156 196.117C155.383 196.019 155.59 195.88 155.766 195.707C155.766 195.568 155.749 195.585 155.113 195.934ZM156.663 195.115C156.297 195.403 156.297 195.42 156.741 195.194C156.985 195.072 157.194 194.932 157.194 194.889C157.194 194.723 157.09 194.767 156.663 195.115ZM157.682 194.497C157.316 194.784 157.316 194.802 157.76 194.575C158.004 194.453 158.213 194.314 158.213 194.27C158.213 194.105 158.108 194.149 157.682 194.497ZM158.701 193.887C158.335 194.175 158.335 194.192 158.779 193.966C159.023 193.844 159.232 193.704 159.232 193.661C159.232 193.495 159.127 193.539 158.701 193.887ZM160.111 192.973C159.397 193.426 159.171 193.731 159.807 193.382C160.259 193.121 160.991 192.564 160.869 192.546C160.602 192.661 160.348 192.804 160.111 192.973ZM97.6465 0.0310727C97.1937 0.0746144 95.7655 0.213948 94.4767 0.318448C64.7987 2.99191 36.993 19.0065 19.3847 43.625C9.65024 57.1372 3.32281 72.8005 0.9405 89.2828C0.1045 95.0216 0 96.7197 0 104.505C0 112.29 0.1045 113.98 0.9405 119.727C6.61833 158.967 34.546 191.937 72.4185 204.154C79.2023 206.34 86.3518 207.829 94.4767 208.726C97.6465 209.075 111.327 209.075 114.497 208.726C128.526 207.176 140.422 203.702 152.143 197.719C153.937 196.796 154.286 196.552 154.042 196.352C148.316 188.787 142.644 181.181 137.026 173.536L120.314 150.964L99.3795 119.98C92.4188 109.612 85.391 99.2895 78.2966 89.0128C78.2182 88.9954 78.1312 102.763 78.0963 119.57C78.0354 149.005 78.018 150.189 77.6435 150.886C77.2881 151.699 76.6512 152.358 75.8496 152.74C75.1965 153.071 74.6217 153.132 71.5389 153.132H68.0034L67.0629 152.54C66.4826 152.174 66.0106 151.66 65.6957 151.051L65.269 150.128L65.3125 109.173L65.3735 68.1999L66.0092 67.4074C66.4363 66.9056 66.9494 66.484 67.5244 66.1622C68.3604 65.7529 68.6913 65.7093 72.2269 65.7093C76.3982 65.7093 77.0862 65.8748 78.1747 67.0591C86.6491 79.6709 95.0528 92.3301 103.385 105.036C116.953 125.605 135.493 153.69 144.611 167.484L161.156 192.546L161.992 191.998C169.954 186.702 177.173 180.367 183.458 173.161C196.625 158.093 205.164 139.546 208.051 119.745C208.887 114.006 208.991 112.308 208.991 104.522C208.991 96.7371 208.887 95.0477 208.051 89.3002C202.373 50.0604 174.445 17.0907 136.573 4.87291C129.495 2.6196 122.206 1.09357 114.819 0.318448C112.86 0.118156 99.3534 -0.108261 97.6639 0.0571977L97.6465 0.0310727ZM140.422 63.2362C140.909 63.4809 141.342 63.8203 141.697 64.2345C142.051 64.6487 142.319 65.1293 142.486 65.6484C142.651 66.1796 142.686 77.5352 142.651 103.129L142.59 139.861L136.111 129.933L129.615 120.006V93.306C129.615 76.0461 129.693 66.345 129.815 65.8748C129.963 65.3321 130.218 64.8244 130.565 64.3817C130.912 63.939 131.344 63.5702 131.835 63.2971C132.671 62.8704 132.976 62.8269 136.19 62.8269C139.211 62.8269 139.743 62.8704 140.422 63.2362Z" fill="black"/>
</svg>
