<svg width="411" height="394" viewBox="0 0 411 394" fill="none" xmlns="http://www.w3.org/2000/svg">
<path fill-rule="evenodd" clip-rule="evenodd" d="M233.963 222.089C185.897 306.322 158.154 290.394 73.1625 386.525C102.226 330.142 150.817 273.923 160.583 252.689C168.798 236.558 181.539 219.913 197.168 205.348C209.17 193.454 217.31 172.64 230.197 163.218C221.827 190.017 249.137 194.404 233.963 222.089Z" fill="#E73900"/>
<path fill-rule="evenodd" clip-rule="evenodd" d="M225.929 175.424C213.157 187.987 214.094 199.917 206.789 212.398C203.518 224.242 193.112 237.362 181.623 249.041C163.446 267.915 46.0524 371.447 6.28865 391.016C55.7136 349.33 106.79 279.041 120.93 253.031C132.512 233.417 148.961 213.948 168.079 197.724C182.888 184.336 196.262 180.766 211.558 170.773C221.826 165.81 226.157 168.698 225.929 175.424Z" fill="#E73900"/>
<path fill-rule="evenodd" clip-rule="evenodd" d="M228.461 165.562C215.916 175.028 201.517 195.519 192.269 206.686C185.68 218.479 174.33 229.326 162.898 238.251C144.656 252.803 66.9706 329.879 0.858643 336.443C77.9316 305.553 106.47 246.349 125.095 222.725C139.689 205.21 157.168 189.224 174.899 178.079C199.378 162.693 222.503 163.846 228.461 165.562Z" fill="#E73900"/>
<path fill-rule="evenodd" clip-rule="evenodd" d="M226.916 176.919C216.495 187.182 216.875 196.534 210.755 206.569C207.827 215.98 199.251 226.61 189.866 236.139C175.005 251.527 88.5751 325.022 48.9513 354.272C130.552 279.75 130.118 261.976 142.018 241.098C151.715 225.326 165.234 209.523 180.755 196.19C192.802 185.218 205.61 177.045 217.939 168.727C226.163 164.516 227.297 171.623 226.916 176.919Z" fill="#E7E100"/>
<path fill-rule="evenodd" clip-rule="evenodd" d="M230.754 210.398C203.89 274.414 180.485 257.339 123.231 324.897C146.527 289.364 163.551 262.193 182.21 239.079C186.288 228.407 219.919 171.993 228.764 164.513C226.205 181.43 238.49 191.965 230.754 210.398Z" fill="#E7E100"/>
<path fill-rule="evenodd" clip-rule="evenodd" d="M203.06 194.95C198.116 203.799 189.601 211.937 181.024 218.633C167.336 229.552 92.8698 291.855 69.3074 298.04C103.694 276.203 138.686 224.71 152.66 206.984C163.61 193.843 177.551 179.289 190.028 173.487C208.876 164.722 223.281 163.045 228.775 164.683C234.832 163.16 209.999 186.572 203.06 194.95Z" fill="#E7E100"/>
<path fill-rule="evenodd" clip-rule="evenodd" d="M406.083 3.84872C383.535 2.01353 202.884 -4.88458 103.168 232.644L172.952 303.704C412.248 208.313 408.614 27.5799 407.189 5.00162L406.083 3.84872Z" fill="#ECECEC"/>
<path fill-rule="evenodd" clip-rule="evenodd" d="M407.551 0.759515L410.307 3.63232L410.38 4.80004C411.114 16.4177 412.366 67.8452 383.223 128.434C354.039 189.11 294.504 258.692 174.136 306.675L172.16 307.463L99.3962 233.367L100.22 231.406C150.377 111.927 221.032 53.6604 282.23 25.5782C343.34 -2.46416 394.74 -0.283206 406.342 0.661111L407.551 0.759515ZM404.091 6.90974C390.295 6.00795 341.961 5.20646 284.897 31.3916C225.535 58.6317 156.446 115.2 106.943 231.924L173.74 299.943C291.341 252.566 349.15 184.517 377.459 125.662C404.69 69.0469 404.744 20.6818 404.091 6.90974Z" fill="black"/>
<path d="M299.229 114.562C284.711 99.7778 259.817 100.603 243.745 116.386C227.673 132.17 226.41 157.031 240.928 171.815C255.447 186.599 280.339 185.799 296.411 170.016C312.483 154.233 313.748 129.346 299.229 114.562ZM295.781 117.948C308.615 131.016 307.503 152.894 293.297 166.845C279.09 180.796 257.209 181.498 244.376 168.429C231.543 155.361 232.653 133.509 246.859 119.558C261.066 105.607 282.948 104.879 295.781 117.948Z" fill="#CCCCCC"/>
<path fill-rule="evenodd" clip-rule="evenodd" d="M290.026 24.8744L341.327 8.32064L394.526 3.27726L406.871 4.52737L402.872 58.7999L387.273 113.451L381.445 122.321L287.891 26.184" fill="#FF0000"/>
<path fill-rule="evenodd" clip-rule="evenodd" d="M410.289 1.659L406.037 59.3622L390.214 114.799L381.931 127.406L285.599 28.4144L289.837 24.2901L289.044 21.8307L340.678 5.16974L394.536 0.063797L410.289 1.659ZM293.316 27.1731L380.959 117.236L384.331 112.103L399.706 58.2377L403.452 7.39573L394.516 6.49073L341.977 11.4715L293.316 27.1731Z" fill="black"/>
<path fill-rule="evenodd" clip-rule="evenodd" d="M149.552 143.944C149.552 143.944 108.441 100.932 16.3648 241.698C16.3648 241.698 116.621 147.964 126.574 182.242" fill="#FF0000"/>
<path fill-rule="evenodd" clip-rule="evenodd" d="M151.857 141.728C151.86 141.731 151.864 141.735 149.552 143.944C147.24 146.154 147.242 146.157 147.245 146.16L147.25 146.165L147.256 146.171C147.258 146.174 147.259 146.175 147.259 146.175L147.258 146.174C147.255 146.171 147.242 146.158 147.22 146.136C147.176 146.094 147.093 146.017 146.972 145.912C146.73 145.702 146.335 145.381 145.787 145.002C144.69 144.244 142.982 143.255 140.643 142.445C136.011 140.841 128.698 139.865 118.445 143.085C99.9905 148.881 71.9253 168.311 33.4898 222.254C42.6255 214.464 54.1081 205.08 65.855 196.53C79.0429 186.931 92.8099 178.199 104.052 174.069C109.628 172.02 115.032 170.93 119.591 171.815C121.937 172.271 124.097 173.258 125.879 174.923C127.656 176.582 128.894 178.762 129.646 181.35L123.503 183.133C123.01 181.437 122.299 180.331 121.514 179.598C120.734 178.87 119.719 178.356 118.371 178.094C115.542 177.545 111.481 178.154 106.258 180.073C95.9029 183.877 82.7395 192.152 69.6191 201.701C56.5644 211.204 43.7954 221.786 34.2757 230.008C29.5196 234.116 25.5828 237.627 22.8369 240.11C21.464 241.351 20.3893 242.335 19.659 243.007C19.2939 243.343 19.015 243.601 18.828 243.775C18.7345 243.862 18.664 243.927 18.6173 243.971L18.5495 244.034C18.549 244.034 18.549 244.034 16.3648 241.698L18.5495 244.034L13.6883 239.948C59.8314 169.403 93.6471 144.169 116.528 136.983C128.062 133.36 136.782 134.339 142.736 136.401C145.689 137.424 147.912 138.696 149.424 139.74C150.179 140.262 150.758 140.729 151.163 141.08C151.365 141.255 151.525 141.403 151.641 141.514C151.7 141.57 151.747 141.617 151.784 141.654C151.803 141.672 151.819 141.688 151.832 141.702L151.85 141.72L151.857 141.728Z" fill="black"/>
<path fill-rule="evenodd" clip-rule="evenodd" d="M262.598 259.06C262.598 259.06 304.858 300.944 162.445 390.452C162.445 390.452 257.982 291.912 223.891 281.339" fill="#FF0000"/>
<path fill-rule="evenodd" clip-rule="evenodd" d="M260.341 261.326C260.344 261.328 260.347 261.331 262.598 259.06C264.849 256.788 264.853 256.791 264.856 256.795L264.864 256.802L264.882 256.82C264.895 256.834 264.911 256.85 264.929 256.869C264.965 256.907 265.011 256.955 265.066 257.014C265.175 257.133 265.32 257.295 265.492 257.501C265.835 257.912 266.291 258.499 266.799 259.264C267.816 260.794 269.048 263.04 270.017 266.011C271.97 272.001 272.791 280.737 268.96 292.204C261.36 314.951 235.516 348.303 164.147 393.16L160.149 388.226L162.445 390.452C160.149 388.226 160.149 388.226 160.149 388.226L160.214 388.159C160.258 388.113 160.325 388.043 160.414 387.951C160.591 387.768 160.854 387.493 161.196 387.134C161.882 386.417 162.885 385.36 164.151 384.01C166.683 381.309 170.265 377.437 174.458 372.756C182.851 363.387 193.664 350.812 203.401 337.932C213.187 324.987 221.699 311.975 225.691 301.691C227.704 296.504 228.387 292.454 227.889 289.615C227.651 288.263 227.156 287.239 226.442 286.447C225.723 285.648 224.631 284.917 222.943 284.393L224.838 278.284C227.412 279.082 229.568 280.36 231.195 282.166C232.827 283.979 233.776 286.156 234.189 288.51C234.991 293.084 233.803 298.467 231.654 304.005C227.32 315.171 218.34 328.777 208.504 341.789C199.742 353.379 190.151 364.689 182.197 373.682C236.828 336.231 256.764 308.523 262.893 290.177C266.299 279.984 265.455 272.654 263.936 267.994C263.168 265.641 262.21 263.915 261.472 262.805C261.103 262.249 260.79 261.849 260.585 261.603C260.482 261.48 260.406 261.396 260.364 261.351C260.343 261.328 260.331 261.315 260.328 261.312C260.326 261.31 260.327 261.311 260.33 261.314L260.337 261.321L260.341 261.326Z" fill="black"/>
<path fill-rule="evenodd" clip-rule="evenodd" d="M116.987 198.736L103.269 232.661L173.704 303.515L205.471 288.839L116.987 198.736Z" fill="#B3B3B3"/>
<path fill-rule="evenodd" clip-rule="evenodd" d="M115.851 193.015L210.934 289.838L173.014 307.357L99.5123 233.419L115.851 193.015ZM118.123 204.458L107.025 231.904L174.395 299.673L200.007 287.84L118.123 204.458Z" fill="black"/>
<path fill-rule="evenodd" clip-rule="evenodd" d="M260.495 280.43L230.863 293.796L230.497 284.716L222.379 281.674L262.501 257.22L268.471 278.103C268.471 278.103 273.825 319.258 166.927 388.049C269.4 308.657 260.101 280.029 260.495 280.43Z" fill="#D20000"/>
<path fill-rule="evenodd" clip-rule="evenodd" d="M16.4909 239.214C16.4909 239.214 107.544 141.963 134.638 168.816C137.628 171.779 126.943 181.879 126.943 181.879L113.713 173.632L76.7226 193.438L16.4909 239.214Z" fill="#D20000"/>
<path fill-rule="evenodd" clip-rule="evenodd" d="M179.822 262.725C176.137 269.499 169.727 277.659 158.808 287.473C159.012 287.944 159.184 288.486 159.341 289.067L173.706 303.506L199.296 291.688C200.645 289.825 201.779 288.092 202.985 286.312L179.822 262.725Z" fill="#999999"/>
<path fill-rule="evenodd" clip-rule="evenodd" d="M218.775 207.271C216.339 204.354 214.202 203.099 214.202 203.099L178.71 234.01C178.71 234.01 190.255 241.624 180.451 260.19L203.664 283.827C235.044 237.93 225.774 215.649 218.775 207.271Z" fill="#CCCCCC"/>
<path fill-rule="evenodd" clip-rule="evenodd" d="M116.145 201.778L102.383 230.867L112.421 242.814L133.872 215.519L116.145 201.778Z" fill="#CCCCCC"/>
<path fill-rule="evenodd" clip-rule="evenodd" d="M379.289 122.078L286.873 27.9703L291.437 23.4886L383.853 117.596L379.289 122.078Z" fill="black"/>
<path d="M295.106 163.51C287.832 170.653 278.246 174.845 268.456 175.165C258.666 175.485 249.475 171.905 242.904 165.214C236.334 158.523 232.921 149.268 233.418 139.486C233.916 129.704 238.281 120.195 245.555 113.052C252.829 105.909 262.415 101.716 272.205 101.397C281.995 101.077 291.186 104.656 297.757 111.348C304.327 118.039 307.74 127.293 307.243 137.076C306.745 146.858 302.38 156.366 295.106 163.51Z" fill="#B3B3B3"/>
<path fill-rule="evenodd" clip-rule="evenodd" d="M295.475 113.588C289.561 107.567 281.25 104.301 272.309 104.593C263.356 104.885 254.523 108.727 247.796 115.334C241.069 121.94 237.067 130.702 236.612 139.648C236.158 148.582 239.273 156.952 245.186 162.973C251.099 168.995 259.411 172.26 268.352 171.968C277.304 171.676 286.138 167.834 292.865 161.228C299.592 154.621 303.594 145.859 304.048 136.913C304.502 127.979 301.388 119.61 295.475 113.588ZM272.1 98.2002C282.739 97.8528 292.81 101.746 300.038 109.107C307.267 116.467 310.977 126.607 310.437 137.238C309.897 147.856 305.167 158.112 297.347 165.791C289.526 173.471 279.187 178.014 268.56 178.361C257.922 178.709 247.851 174.816 240.622 167.455C233.394 160.094 229.684 149.954 230.224 139.324C230.764 128.705 235.494 118.45 243.314 110.77C251.135 103.09 261.474 98.5472 272.1 98.2002Z" fill="black"/>
<path d="M286.454 154.699C284.11 157.003 281.372 158.859 278.396 160.162C275.42 161.464 272.264 162.188 269.108 162.292C265.953 162.396 262.859 161.877 260.005 160.766C257.151 159.655 254.592 157.973 252.474 155.816C250.356 153.66 248.721 151.07 247.662 148.196C246.602 145.323 246.14 142.221 246.301 139.067C246.462 135.914 247.243 132.772 248.599 129.82C249.956 126.868 251.861 124.163 254.207 121.862C256.55 119.559 259.289 117.703 262.265 116.4C265.241 115.097 268.397 114.373 271.553 114.269C274.708 114.166 277.802 114.684 280.656 115.795C283.51 116.906 286.069 118.588 288.187 120.745C290.305 122.902 291.94 125.491 292.999 128.365C294.059 131.239 294.521 134.341 294.36 137.494C294.199 140.647 293.418 143.79 292.062 146.742C290.705 149.694 288.8 152.398 286.454 154.699Z" fill="#80E5FF"/>
<path fill-rule="evenodd" clip-rule="evenodd" d="M285.905 122.986C284.109 121.157 281.933 119.725 279.495 118.776C277.057 117.826 274.395 117.376 271.658 117.466C268.92 117.556 266.163 118.185 263.547 119.33C260.932 120.474 258.518 122.109 256.449 124.143L256.447 124.145C254.376 126.177 252.698 128.561 251.505 131.155C250.313 133.749 249.634 136.495 249.495 139.23C249.355 141.965 249.757 144.635 250.662 147.09C251.567 149.545 252.959 151.746 254.756 153.575C256.552 155.405 258.728 156.837 261.166 157.786C263.604 158.735 266.266 159.186 269.003 159.096C271.741 159.006 274.498 158.377 277.114 157.232C279.729 156.087 282.143 154.452 284.212 152.419L284.214 152.417C286.285 150.385 287.963 148.001 289.156 145.406C290.348 142.812 291.026 140.067 291.166 137.331C291.306 134.596 290.904 131.927 289.999 129.471C289.094 127.016 287.701 124.815 285.905 122.986ZM281.816 112.815C285.086 114.088 288.029 116.02 290.469 118.504C292.908 120.989 294.787 123.966 296 127.259C297.214 130.551 297.736 134.086 297.554 137.657C297.372 141.228 296.489 144.767 294.968 148.077C293.447 151.387 291.315 154.411 288.695 156.981C286.077 159.554 283.015 161.631 279.678 163.091C276.341 164.552 272.786 165.371 269.213 165.489C265.639 165.606 262.115 165.019 258.845 163.746C255.575 162.473 252.632 160.541 250.192 158.057C247.753 155.573 245.874 152.595 244.661 149.303C243.447 146.01 242.925 142.476 243.107 138.904C243.289 135.334 244.172 131.795 245.693 128.484C247.214 125.175 249.346 122.151 251.966 119.58C254.584 117.007 257.646 114.93 260.983 113.47C264.32 112.009 267.875 111.19 271.448 111.073C275.022 110.955 278.546 111.542 281.816 112.815ZM251.966 119.58C251.966 119.58 251.967 119.58 251.967 119.579L254.207 121.862L251.965 119.581C251.965 119.581 251.966 119.58 251.966 119.58ZM288.695 156.981C288.695 156.982 288.694 156.982 288.694 156.982L286.454 154.699L288.696 156.98C288.696 156.981 288.695 156.981 288.695 156.981Z" fill="black"/>
<path fill-rule="evenodd" clip-rule="evenodd" d="M204.753 292.55L117.45 203.648L122.013 199.167L209.317 288.068L204.753 292.55Z" fill="black"/>
<path d="M203.346 196.982L210.425 204.19L92.8841 319.618L85.8054 312.41L203.346 196.982Z" fill="#FF0000"/>
<path fill-rule="evenodd" clip-rule="evenodd" d="M203.387 192.459L214.947 204.231L92.8431 324.141L81.2828 312.369L203.387 192.459ZM203.305 201.504L90.3281 312.451L92.9252 315.095L205.902 204.149L203.305 201.504Z" fill="black"/>
<path fill-rule="evenodd" clip-rule="evenodd" d="M205.72 283.353C205.72 283.353 317.282 236.727 369.168 135.428C233.653 270.868 179.371 256.522 179.371 256.522L205.72 283.353Z" fill="#CCCCCC"/>
<path d="M294.406 147.166L295.511 127.185L246.946 128.99L245.84 148.971L294.406 147.166Z" fill="white"/>
<path fill-rule="evenodd" clip-rule="evenodd" d="M285.905 122.986C284.109 121.157 281.933 119.725 279.495 118.776C277.057 117.826 274.395 117.376 271.658 117.466C268.92 117.556 266.163 118.185 263.547 119.33C260.932 120.474 258.518 122.109 256.449 124.143L256.447 124.145C254.376 126.177 252.698 128.561 251.505 131.155C250.313 133.749 249.634 136.495 249.495 139.23C249.355 141.965 249.757 144.635 250.662 147.09C251.567 149.545 252.959 151.746 254.756 153.575C256.552 155.405 258.728 156.837 261.166 157.786C263.604 158.735 266.266 159.186 269.003 159.096C271.741 159.006 274.498 158.377 277.114 157.232C279.729 156.087 282.143 154.452 284.212 152.419L284.214 152.417C286.285 150.385 287.963 148.001 289.156 145.406C290.348 142.812 291.026 140.067 291.166 137.331C291.306 134.596 290.904 131.927 289.999 129.471C289.094 127.016 287.701 124.815 285.905 122.986ZM281.816 112.815C285.086 114.088 288.029 116.02 290.469 118.504C292.908 120.989 294.787 123.966 296 127.259C297.214 130.551 297.736 134.086 297.554 137.657C297.372 141.228 296.489 144.767 294.968 148.077C293.447 151.387 291.315 154.411 288.695 156.981C286.077 159.554 283.015 161.631 279.678 163.091C276.341 164.552 272.786 165.371 269.213 165.489C265.639 165.606 262.115 165.019 258.845 163.746C255.575 162.473 252.632 160.541 250.192 158.057C247.753 155.573 245.874 152.595 244.661 149.303C243.447 146.01 242.925 142.476 243.107 138.904C243.289 135.334 244.172 131.795 245.693 128.484C247.214 125.175 249.346 122.151 251.966 119.58C254.584 117.007 257.646 114.93 260.983 113.47C264.32 112.009 267.875 111.19 271.448 111.073C275.022 110.955 278.546 111.542 281.816 112.815ZM251.966 119.58C251.966 119.58 251.967 119.58 251.967 119.579L254.207 121.862L251.965 119.581C251.965 119.581 251.966 119.58 251.966 119.58ZM288.695 156.981C288.695 156.982 288.694 156.982 288.694 156.982L286.454 154.699L288.696 156.98C288.696 156.981 288.695 156.981 288.695 156.981Z" fill="black"/>
<path fill-rule="evenodd" clip-rule="evenodd" d="M378.663 103.813C378.663 103.813 401.734 56.7705 397.251 14.7606C373.212 80.8464 353.494 78.1839 353.494 78.1839L378.663 103.813Z" fill="#D20000"/>
<path fill-rule="evenodd" clip-rule="evenodd" d="M260.341 261.326C260.344 261.328 260.347 261.331 262.598 259.06C264.849 256.788 264.853 256.791 264.856 256.795L264.864 256.802L264.882 256.82C264.895 256.834 264.911 256.85 264.929 256.869C264.965 256.907 265.011 256.955 265.066 257.014C265.175 257.133 265.32 257.295 265.492 257.501C265.835 257.912 266.291 258.499 266.799 259.264C267.816 260.794 269.048 263.04 270.017 266.011C271.97 272.001 272.791 280.737 268.96 292.204C261.36 314.951 235.516 348.303 164.147 393.16L160.149 388.226L162.445 390.452C160.149 388.226 160.149 388.226 160.149 388.226L160.214 388.159C160.258 388.113 160.325 388.043 160.414 387.951C160.591 387.768 160.854 387.493 161.196 387.134C161.882 386.417 162.885 385.36 164.151 384.01C166.683 381.309 170.265 377.437 174.458 372.756C182.851 363.387 193.664 350.812 203.401 337.932C213.187 324.987 221.699 311.975 225.691 301.691C227.704 296.504 228.387 292.454 227.889 289.615C227.651 288.263 227.156 287.239 226.442 286.447C225.723 285.648 224.631 284.917 222.943 284.393L224.838 278.284C227.412 279.082 229.568 280.36 231.195 282.166C232.827 283.979 233.776 286.156 234.189 288.51C234.991 293.084 233.803 298.467 231.654 304.005C227.32 315.171 218.34 328.777 208.504 341.789C199.742 353.379 190.151 364.689 182.197 373.682C236.828 336.231 256.764 308.523 262.893 290.177C266.299 279.984 265.455 272.654 263.936 267.994C263.168 265.641 262.21 263.915 261.472 262.805C261.103 262.249 260.79 261.849 260.585 261.603C260.482 261.48 260.406 261.396 260.364 261.351C260.343 261.328 260.331 261.315 260.328 261.312C260.326 261.31 260.327 261.311 260.33 261.314L260.337 261.321L260.341 261.326Z" fill="black"/>
<path fill-rule="evenodd" clip-rule="evenodd" d="M151.857 141.728C151.86 141.731 151.864 141.735 149.552 143.944C147.24 146.154 147.242 146.157 147.245 146.16L147.25 146.165L147.256 146.171C147.258 146.174 147.259 146.175 147.259 146.175L147.258 146.174C147.255 146.171 147.242 146.158 147.22 146.136C147.176 146.094 147.093 146.017 146.972 145.912C146.73 145.702 146.335 145.381 145.787 145.002C144.69 144.244 142.982 143.255 140.643 142.445C136.011 140.841 128.698 139.865 118.445 143.085C99.9905 148.881 71.9253 168.311 33.4898 222.254C42.6255 214.464 54.1081 205.08 65.855 196.53C79.0429 186.931 92.8099 178.199 104.052 174.069C109.628 172.02 115.032 170.93 119.591 171.815C121.937 172.271 124.097 173.258 125.879 174.923C127.656 176.582 128.894 178.762 129.646 181.35L123.503 183.133C123.01 181.437 122.299 180.331 121.514 179.598C120.734 178.87 119.719 178.356 118.371 178.094C115.542 177.545 111.481 178.154 106.258 180.073C95.9029 183.877 82.7395 192.152 69.6191 201.701C56.5644 211.204 43.7954 221.786 34.2757 230.008C29.5196 234.116 25.5828 237.627 22.8369 240.11C21.464 241.351 20.3893 242.335 19.659 243.007C19.2939 243.343 19.015 243.601 18.828 243.775C18.7345 243.862 18.664 243.927 18.6173 243.971L18.5495 244.034C18.549 244.034 18.549 244.034 16.3648 241.698L18.5495 244.034L13.6883 239.948C59.8314 169.403 93.6471 144.169 116.528 136.983C128.062 133.36 136.782 134.339 142.736 136.401C145.689 137.424 147.912 138.696 149.424 139.74C150.179 140.262 150.758 140.729 151.163 141.08C151.365 141.255 151.525 141.403 151.641 141.514C151.7 141.57 151.747 141.617 151.784 141.654C151.803 141.672 151.819 141.688 151.832 141.702L151.85 141.72L151.857 141.728Z" fill="black"/>
<path fill-rule="evenodd" clip-rule="evenodd" d="M302.497 23.6406C302.497 23.6406 368.179 0.831135 397.237 6.90837C426.294 12.9857 302.019 24.8961 302.497 23.6406Z" fill="white"/>
<path fill-rule="evenodd" clip-rule="evenodd" d="M171.068 128.15C170.593 126.153 225.124 57.369 282.662 38.5865C304.649 40.2529 315.021 61.7126 309.973 65.1658C266.247 95.0797 173.891 140.031 171.068 128.15Z" fill="white"/>
<path fill-rule="evenodd" clip-rule="evenodd" d="M407.551 0.759515L410.307 3.63232L410.38 4.80004C411.114 16.4177 412.366 67.8452 383.223 128.434C354.039 189.11 294.504 258.692 174.136 306.675L172.16 307.463L99.3962 233.367L100.22 231.406C150.377 111.927 221.032 53.6604 282.23 25.5782C343.34 -2.46416 394.74 -0.283206 406.342 0.661111L407.551 0.759515ZM404.091 6.90974C390.295 6.00795 341.961 5.20646 284.897 31.3916C225.535 58.6317 156.446 115.2 106.943 231.924L173.74 299.943C291.341 252.566 349.15 184.517 377.459 125.662C404.69 69.0469 404.744 20.6818 404.091 6.90974Z" fill="black"/>
</svg>
