<svg width="198" height="177" viewBox="0 0 198 177" fill="none" xmlns="http://www.w3.org/2000/svg">
<path fill-rule="evenodd" clip-rule="evenodd" d="M184.103 129.094C127.259 129.094 70.4156 129.094 13.5717 129.094C13.5053 87.9216 13.5717 46.7499 13.771 5.57814C14.2276 2.87115 15.755 1.07818 18.353 0.199229C72.0094 -0.0664096 125.665 -0.0664096 179.322 0.199229C181.92 1.07818 183.447 2.87115 183.904 5.57814C184.103 46.7499 184.17 87.9216 184.103 129.094Z" fill="#1F5A74"/>
<path fill-rule="evenodd" clip-rule="evenodd" d="M29.9077 13.5469C76.1587 13.3493 122.377 13.5485 168.564 14.1446C169.029 14.6094 169.493 15.0742 169.958 15.5391C170.354 48.509 170.222 81.4466 169.56 114.352C169.2 114.83 168.736 115.162 168.165 115.348C121.649 115.745 75.1646 115.612 28.7124 114.949C28.2337 114.589 27.9016 114.125 27.7163 113.555C27.4506 80.8828 27.4506 48.211 27.7163 15.5391C28.4055 14.7813 29.1359 14.1172 29.9077 13.5469Z" fill="#114559"/>
<path fill-rule="evenodd" clip-rule="evenodd" d="M46.2435 27.4922C50.8498 27.3822 52.1117 29.3744 50.0287 33.4688C48.6943 34.7366 47.4324 36.0646 46.2435 37.4531C47.8448 39.1206 49.3724 40.847 50.8255 42.6328C51.667 45.4689 50.6709 47.1953 47.8373 47.8125C46.9966 47.5918 46.1997 47.2595 45.4466 46.8164C43.1226 44.4923 40.7981 42.1678 38.474 39.8438C37.146 38.25 37.146 36.6563 38.474 35.0625C41.022 32.4476 43.6118 29.9239 46.2435 27.4922Z" fill="#F7F8F9"/>
<path fill-rule="evenodd" clip-rule="evenodd" d="M66.564 27.4922C69.9727 26.8228 71.6325 28.1508 71.5445 31.4766C69.0212 36.5236 66.4975 41.5702 63.9742 46.6172C61.8505 48.3456 59.991 48.0799 58.3961 45.8203C58.1303 44.7577 58.1303 43.6955 58.3961 42.6328C60.8197 37.3846 63.5423 32.3376 66.564 27.4922Z" fill="#FBFCFC"/>
<path fill-rule="evenodd" clip-rule="evenodd" d="M80.1107 27.4922C81.4965 27.3663 82.8249 27.5655 84.0951 28.0899C86.5522 30.547 89.009 33.0038 91.4662 35.461C92.263 36.789 92.263 38.1173 91.4662 39.4453C89.009 41.9025 86.5522 44.3593 84.0951 46.8164C80.0964 48.2636 78.3034 46.869 78.7162 42.6328C80.449 40.9666 82.1089 39.2401 83.6966 37.4531C81.9626 35.653 80.3023 33.7939 78.7162 31.875C78.2707 30.1127 78.7357 28.6517 80.1107 27.4922Z" fill="#FBFCFC"/>
<path fill-rule="evenodd" clip-rule="evenodd" d="M43.056 54.5859C47.4408 54.5194 51.8237 54.5859 56.2045 54.7852C58.9672 57.283 58.7015 59.4078 55.4076 61.1602C51.4232 61.4259 47.4389 61.4259 43.4545 61.1602C40.4411 59.099 40.3084 56.9076 43.056 54.5859Z" fill="#E0B834"/>
<path fill-rule="evenodd" clip-rule="evenodd" d="M66.9623 54.5859C76.9241 54.5194 86.885 54.5859 96.8452 54.7852C98.8513 55.9856 99.3163 57.6459 98.2397 59.7656C97.7141 60.5573 96.9838 61.0223 96.0483 61.1602C86.4858 61.4259 76.9233 61.4259 67.3608 61.1602C64.9526 59.9919 64.355 58.199 65.5678 55.7812C66.024 55.3286 66.489 54.9302 66.9623 54.5859Z" fill="#E76273"/>
<path fill-rule="evenodd" clip-rule="evenodd" d="M49.8295 68.1328C59.7912 68.0663 69.7521 68.1328 79.7123 68.332C81.7479 69.6732 82.2129 71.4661 81.1068 73.7109C80.5414 74.0934 79.9438 74.4253 79.3139 74.707C69.6187 74.9728 59.9231 74.9728 50.2279 74.707C47.2145 72.6459 47.0819 70.4545 49.8295 68.1328Z" fill="#E2B933"/>
<path fill-rule="evenodd" clip-rule="evenodd" d="M49.8296 81.6797C56.3389 81.6131 62.8466 81.6797 69.3531 81.8789C72.5406 84.0038 72.5406 86.129 69.3531 88.2539C62.8454 88.5197 56.3373 88.5197 49.8296 88.2539C47.1824 86.0127 47.1824 83.8213 49.8296 81.6797Z" fill="#E3BA33"/>
<path fill-rule="evenodd" clip-rule="evenodd" d="M80.5093 81.6797C94.8539 81.6131 109.198 81.6797 123.541 81.8789C125.2 82.2714 125.997 83.334 125.931 85.0664C126.003 86.7837 125.206 87.8459 123.541 88.2539C109.197 88.5197 94.8531 88.5197 80.5093 88.2539C77.8761 86.0442 77.8761 83.8528 80.5093 81.6797Z" fill="#EA6273"/>
<path fill-rule="evenodd" clip-rule="evenodd" d="M134.697 81.6797C138.949 81.6131 143.199 81.6797 147.447 81.8789C149.406 82.6403 150.137 84.0348 149.638 86.0625C149.173 87.0586 148.443 87.7889 147.447 88.2539C143.33 88.5197 139.212 88.5197 135.095 88.2539C132.056 86.2653 131.924 84.0739 134.697 81.6797Z" fill="#80E9FC"/>
<path fill-rule="evenodd" clip-rule="evenodd" d="M49.8295 95.2266C52.8871 95.1604 55.9419 95.2266 58.9935 95.4258C61.1467 96.2557 61.877 97.7829 61.1849 100.008C60.853 100.871 60.2554 101.469 59.392 101.801C56.2045 102.067 53.017 102.067 49.8295 101.801C47.1922 99.5978 47.1922 97.4064 49.8295 95.2266Z" fill="#E1B933"/>
<path fill-rule="evenodd" clip-rule="evenodd" d="M70.5483 95.2266C79.182 95.16 87.815 95.2266 96.4467 95.4258C99.6282 97.571 99.6282 99.6962 96.4467 101.801C87.6811 102.067 78.9155 102.067 70.1498 101.801C67.4289 99.4113 67.5616 97.2199 70.5483 95.2266Z" fill="#E96273"/>
<path fill-rule="evenodd" clip-rule="evenodd" d="M107.603 95.2266C120.885 95.16 134.166 95.2266 147.447 95.4258C150.497 97.3331 150.63 99.4584 147.845 101.801C134.431 102.067 121.017 102.067 107.603 101.801C104.966 99.5978 104.966 97.4064 107.603 95.2266Z" fill="#81EAFD"/>
<path fill-rule="evenodd" clip-rule="evenodd" d="M13.5717 129.094C70.4156 129.094 127.259 129.094 184.103 129.094C188.618 140.516 193.134 151.937 197.65 163.359C177.197 163.359 156.743 163.359 136.29 163.359C134.214 158.01 132.023 152.697 129.716 147.422C129.356 146.943 128.892 146.611 128.322 146.426C108.666 146.16 89.0091 146.16 69.353 146.426C68.6414 146.739 68.0437 147.203 67.56 147.82C65.4961 153.008 63.4378 158.188 61.3842 163.359C40.9312 163.359 20.478 163.359 0.0248617 163.359C4.54047 151.937 9.05613 140.516 13.5717 129.094Z" fill="#C9DAE9"/>
<path fill-rule="evenodd" clip-rule="evenodd" d="M136.29 163.359C111.322 163.359 86.3531 163.359 61.3842 163.359C63.4378 158.188 65.4961 153.008 67.56 147.82C68.0437 147.203 68.6414 146.739 69.353 146.426C89.0091 146.16 108.666 146.16 128.322 146.426C128.892 146.611 129.356 146.943 129.716 147.422C132.023 152.697 134.214 158.01 136.29 163.359Z" fill="#E0E9F3"/>
<path fill-rule="evenodd" clip-rule="evenodd" d="M0.0248617 163.359C20.478 163.359 40.9312 163.359 61.3842 163.359C86.3531 163.359 111.322 163.359 136.29 163.359C156.743 163.359 177.197 163.359 197.65 163.359C197.716 167.08 197.65 170.799 197.451 174.516C197.292 175.604 196.694 176.334 195.658 176.707C131.111 176.973 66.5639 176.973 2.017 176.707C0.980291 176.334 0.382634 175.604 0.224032 174.516C0.0248972 170.799 -0.0414582 167.08 0.0248617 163.359Z" fill="#ABBBCC"/>
</svg>
