<?xml version="1.0" encoding="UTF-8"?>
<!DOCTYPE svg PUBLIC "-//W3C//DTD SVG 1.1//EN" "http://www.w3.org/Graphics/SVG/1.1/DTD/svg11.dtd">
<svg xmlns="http://www.w3.org/2000/svg" version="1.1" width="512px" height="512px" style="shape-rendering:geometricPrecision; text-rendering:geometricPrecision; image-rendering:optimizeQuality; fill-rule:evenodd; clip-rule:evenodd" xmlns:xlink="http://www.w3.org/1999/xlink">
<g><path style="opacity:0.986" fill="#030101" d="M 120.5,-0.5 C 173.167,-0.5 225.833,-0.5 278.5,-0.5C 304.329,6.66711 317.995,23.6671 319.5,50.5C 318.823,71.7014 309.157,87.2014 290.5,97C 311.696,134.204 315.196,173.037 301,213.5C 299.9,220.774 295.733,224.107 288.5,223.5C 287.542,222.038 286.376,220.705 285,219.5C 284.833,218.167 284.667,216.833 284.5,215.5C 286.155,208.033 288.322,200.7 291,193.5C 298.519,160.937 293.352,130.604 275.5,102.5C 213.335,101.168 151.335,101.168 89.5,102.5C 77.6526,106.179 69.4859,113.846 65,125.5C 51.786,167.685 58.4527,206.352 85,241.5C 90.4242,247.431 96.2575,252.764 102.5,257.5C 132.23,281.513 165.897,289.347 203.5,281C 231.924,273.461 254.924,257.961 272.5,234.5C 275.83,233.261 279.163,233.261 282.5,234.5C 284.964,238.278 285.13,242.278 283,246.5C 273.956,257.045 264.123,266.711 253.5,275.5C 264.323,285.988 273.656,297.655 281.5,310.5C 285.764,296.207 289.931,281.874 294,267.5C 296.263,260.903 300.763,256.736 307.5,255C 367.167,254.333 426.833,254.333 486.5,255C 497.596,259.346 502.429,267.513 501,279.5C 492.06,312.428 482.894,345.262 473.5,378C 492.076,376.102 504.743,383.602 511.5,400.5C 511.5,411.167 511.5,421.833 511.5,432.5C 509.546,437.065 507.046,441.398 504,445.5C 499.968,448.681 495.635,451.348 491,453.5C 490.667,471.5 490.333,489.5 490,507.5C 489.31,509.35 488.144,510.684 486.5,511.5C 332.5,511.5 178.5,511.5 24.5,511.5C 22.8564,510.684 21.6897,509.35 21,507.5C 20.6667,489.5 20.3333,471.5 20,453.5C 15.3649,451.348 11.0316,448.681 7,445.5C 3.9539,441.398 1.4539,437.065 -0.5,432.5C -0.5,421.833 -0.5,411.167 -0.5,400.5C 3.19897,388.639 11.199,381.472 23.5,379C 31.4124,378.817 39.2457,378.317 47,377.5C 53.4512,337.763 70.6179,303.597 98.5,275C 82.6575,263.162 69.6575,248.828 59.5,232C 25.754,235.286 6.42063,220.119 1.5,186.5C 2.04748,174.347 6.21415,163.681 14,154.5C 14.3333,138.833 14.6667,123.167 15,107.5C 18.213,78.9104 30.0463,54.7437 50.5,35C 53.5547,34.3658 56.5547,34.5325 59.5,35.5C 61.0971,38.3188 61.5971,41.3188 61,44.5C 35.2655,72.5465 25.0988,105.546 30.5,143.5C 35.2231,141.118 40.2231,140.118 45.5,140.5C 47.9005,124.77 54.2338,110.937 64.5,99C 71.1687,93.165 78.8354,89.165 87.5,87C 149.668,86.8329 211.668,86.3329 273.5,85.5C 290.854,82.312 301.021,71.9787 304,54.5C 304.68,34.0382 295.18,20.8715 275.5,15C 230.168,14.5 184.835,14.3333 139.5,14.5C 118.279,13.8882 98.6123,19.0548 80.5,30C 76.673,30.9761 73.3396,30.1428 70.5,27.5C 68.6745,22.9692 69.6745,19.1359 73.5,16C 88.3416,7.777 104.008,2.277 120.5,-0.5 Z"/></g>
<g><path style="opacity:1" fill="#de956b" d="M 139.5,14.5 C 121.033,35.501 106.366,59.001 95.5,85C 154.832,85.5 214.166,85.6667 273.5,85.5C 211.668,86.3329 149.668,86.8329 87.5,87C 78.8354,89.165 71.1687,93.165 64.5,99C 54.2338,110.937 47.9005,124.77 45.5,140.5C 40.2231,140.118 35.2231,141.118 30.5,143.5C 25.0988,105.546 35.2655,72.5465 61,44.5C 61.5971,41.3188 61.0971,38.3188 59.5,35.5C 62.9895,32.5887 66.6562,29.922 70.5,27.5C 73.3396,30.1428 76.673,30.9761 80.5,30C 98.6123,19.0548 118.279,13.8882 139.5,14.5 Z"/></g>
<g><path style="opacity:1" fill="#e7a781" d="M 139.5,14.5 C 184.835,14.3333 230.168,14.5 275.5,15C 295.18,20.8715 304.68,34.0382 304,54.5C 301.021,71.9787 290.854,82.312 273.5,85.5C 214.166,85.6667 154.832,85.5 95.5,85C 106.366,59.001 121.033,35.501 139.5,14.5 Z"/></g>
<g><path style="opacity:1" fill="#fed2bb" d="M 288.5,223.5 C 286.234,227.034 284.234,230.7 282.5,234.5C 279.163,233.261 275.83,233.261 272.5,234.5C 254.924,257.961 231.924,273.461 203.5,281C 165.897,289.347 132.23,281.513 102.5,257.5C 79.6878,207.42 75.3544,155.754 89.5,102.5C 151.335,101.168 213.335,101.168 275.5,102.5C 293.352,130.604 298.519,160.937 291,193.5C 288.322,200.7 286.155,208.033 284.5,215.5C 284.667,216.833 284.833,218.167 285,219.5C 286.376,220.705 287.542,222.038 288.5,223.5 Z"/></g>
<g><path style="opacity:1" fill="#fcbc9a" d="M 89.5,102.5 C 75.3544,155.754 79.6878,207.42 102.5,257.5C 96.2575,252.764 90.4242,247.431 85,241.5C 58.4527,206.352 51.786,167.685 65,125.5C 69.4859,113.846 77.6526,106.179 89.5,102.5 Z"/></g>
<g><path style="opacity:1" fill="#f9b998" d="M 39.5,155.5 C 40.8333,155.5 42.1667,155.5 43.5,155.5C 43.1963,165.878 43.6963,176.211 45,186.5C 46.4095,197.137 48.9095,207.47 52.5,217.5C 27.7395,216.239 16.2395,203.239 18,178.5C 21.6208,167.383 28.7874,159.717 39.5,155.5 Z"/></g>
<g><path style="opacity:1" fill="#060504" d="M 128.5,159.5 C 133.28,158.641 136.78,160.308 139,164.5C 139.667,170.167 139.667,175.833 139,181.5C 136.928,186.143 133.428,187.643 128.5,186C 126.667,185.5 125.5,184.333 125,182.5C 124.333,176.167 124.333,169.833 125,163.5C 126.376,162.295 127.542,160.962 128.5,159.5 Z"/></g>
<g><path style="opacity:1" fill="#060504" d="M 260.5,159.5 C 264.426,159.047 267.592,160.38 270,163.5C 270.667,169.833 270.667,176.167 270,182.5C 267.487,186.212 263.987,187.378 259.5,186C 257.951,184.786 256.785,183.286 256,181.5C 255.333,175.833 255.333,170.167 256,164.5C 257.025,162.313 258.525,160.646 260.5,159.5 Z"/></g>
<g><path style="opacity:1" fill="#070605" d="M 177.5,171.5 C 179.199,171.34 180.866,171.506 182.5,172C 185.557,174.723 188.89,177.056 192.5,179C 199.858,180.984 205.858,178.984 210.5,173C 216.673,170.485 220.673,172.485 222.5,179C 220.216,185.284 215.883,189.618 209.5,192C 195.706,197.403 183.873,194.57 174,183.5C 172.627,181.305 172.294,178.971 173,176.5C 174.366,174.638 175.866,172.972 177.5,171.5 Z"/></g>
<g><path style="opacity:1" fill="#7f7c95" d="M 311.5,269.5 C 317.842,269.334 324.175,269.5 330.5,270C 331.416,270.374 332.25,270.874 333,271.5C 333.667,273.833 333.667,276.167 333,278.5C 324,311.167 315,343.833 306,376.5C 305.167,377.333 304.333,378.167 303.5,379C 297.167,379.667 290.833,379.667 284.5,379C 280.896,377.666 279.729,375.166 281,371.5C 290,338.833 299,306.167 308,273.5C 309.032,271.973 310.199,270.64 311.5,269.5 Z"/></g>
<g><path style="opacity:1" fill="#756f8a" d="M 348.5,269.5 C 393.168,269.333 437.835,269.5 482.5,270C 484.594,271.255 485.594,273.088 485.5,275.5C 476.543,309.871 466.876,344.038 456.5,378C 411.585,379.49 366.585,379.99 321.5,379.5C 329.858,346.404 338.691,313.404 348,280.5C 348.499,276.848 348.665,273.182 348.5,269.5 Z"/></g>
<g><path style="opacity:1" fill="#3a3744" d="M 121.5,287.5 C 120.502,317.662 120.169,347.995 120.5,378.5C 127.5,378.5 134.5,378.5 141.5,378.5C 134.352,379.492 127.019,379.825 119.5,379.5C 119.167,348.493 119.5,317.493 120.5,286.5C 121.107,286.624 121.44,286.957 121.5,287.5 Z"/></g>
<g><path style="opacity:1" fill="#76708b" d="M 121.5,287.5 C 129.438,291.368 137.771,294.035 146.5,295.5C 145.026,306.118 147.026,315.951 152.5,325C 149.001,343 145.334,360.833 141.5,378.5C 134.5,378.5 127.5,378.5 120.5,378.5C 120.169,347.995 120.502,317.662 121.5,287.5 Z"/></g>
<g><path style="opacity:1" fill="#75708a" d="M 230.5,287.5 C 231.498,317.995 231.831,348.662 231.5,379.5C 224.245,379.813 217.079,379.48 210,378.5C 206.87,360.59 203.37,342.757 199.5,325C 204.425,315.801 206.758,305.967 206.5,295.5C 214.723,293.426 222.723,290.759 230.5,287.5 Z"/></g>
<g><path style="opacity:1" fill="#27252e" d="M 230.5,287.5 C 230.56,286.957 230.893,286.624 231.5,286.5C 232.83,317.664 232.83,348.664 231.5,379.5C 231.831,348.662 231.498,317.995 230.5,287.5 Z"/></g>
<g><path style="opacity:1" fill="#7d7d7d" d="M 103.5,292.5 C 103.56,291.957 103.893,291.624 104.5,291.5C 105.826,306.661 105.826,321.661 104.5,336.5C 104.829,321.657 104.496,306.99 103.5,292.5 Z"/></g>
<g><path style="opacity:1" fill="#e7e7e7" d="M 103.5,292.5 C 104.496,306.99 104.829,321.657 104.5,336.5C 94.8104,336.832 85.1437,336.498 75.5,335.5C 82.4675,319.551 91.8009,305.217 103.5,292.5 Z"/></g>
<g><path style="opacity:1" fill="#e3e3e3" d="M 246.5,291.5 C 259.795,304.135 269.461,319.135 275.5,336.5C 265.833,336.5 256.167,336.5 246.5,336.5C 246.5,321.5 246.5,306.5 246.5,291.5 Z"/></g>
<g><path style="opacity:1" fill="#020203" d="M 391.5,297.5 C 413.833,296.714 424.666,307.381 424,329.5C 419.204,345.814 408.37,352.98 391.5,351C 375.641,345.462 368.808,334.296 371,317.5C 374.419,307.247 381.252,300.58 391.5,297.5 Z"/></g>
<g><path style="opacity:1" fill="#33c892" d="M 161.5,298.5 C 171.167,298.5 180.833,298.5 190.5,298.5C 192.679,310.843 187.846,318.51 176,321.5C 168.899,320.948 164.232,317.281 162,310.5C 161.501,306.514 161.334,302.514 161.5,298.5 Z"/></g>
<g><path style="opacity:1" fill="#7f7c94" d="M 393.5,312.5 C 404.162,311.997 409.329,316.997 409,327.5C 405.421,335.375 399.588,337.875 391.5,335C 383.011,326.608 383.677,319.108 393.5,312.5 Z"/></g>
<g><path style="opacity:1" fill="#00c788" d="M 165.5,334.5 C 172.513,337.164 179.513,337.164 186.5,334.5C 189.683,349.414 192.35,364.414 194.5,379.5C 182.167,379.5 169.833,379.5 157.5,379.5C 159.653,364.403 162.32,349.403 165.5,334.5 Z"/></g>
<g><path style="opacity:1" fill="#fdd2bb" d="M 104.5,351.5 C 104.5,360.5 104.5,369.5 104.5,378.5C 90.8333,378.5 77.1667,378.5 63.5,378.5C 63.5,377.167 63.5,375.833 63.5,374.5C 64.6954,366.72 66.362,359.053 68.5,351.5C 80.5,351.5 92.5,351.5 104.5,351.5 Z"/></g>
<g><path style="opacity:1" fill="#fed2bb" d="M 247.5,351.5 C 255.167,351.5 262.833,351.5 270.5,351.5C 268.513,359.794 266.846,368.127 265.5,376.5C 259.926,378.453 253.926,379.12 247.5,378.5C 247.5,369.5 247.5,360.5 247.5,351.5 Z"/></g>
<g><path style="opacity:1" fill="#9f8475" d="M 104.5,351.5 C 105.494,360.652 105.827,369.985 105.5,379.5C 91.1667,379.5 76.8333,379.5 62.5,379.5C 62.2155,377.585 62.5489,375.919 63.5,374.5C 63.5,375.833 63.5,377.167 63.5,378.5C 77.1667,378.5 90.8333,378.5 104.5,378.5C 104.5,369.5 104.5,360.5 104.5,351.5 Z"/></g>
<g><path style="opacity:1" fill="#a68a7a" d="M 247.5,351.5 C 247.5,360.5 247.5,369.5 247.5,378.5C 253.926,379.12 259.926,378.453 265.5,376.5C 266.404,377.209 266.737,378.209 266.5,379.5C 259.833,379.5 253.167,379.5 246.5,379.5C 246.173,369.985 246.506,360.652 247.5,351.5 Z"/></g>
<g><path style="opacity:1" fill="#fb5b6f" d="M 84.5,394.5 C 83.73,409.382 85.0634,424.049 88.5,438.5C 66.8308,438.667 45.1641,438.5 23.5,438C 19.4067,435.993 16.5733,432.827 15,428.5C 14.3333,420.5 14.3333,412.5 15,404.5C 16.1045,399.794 18.9378,396.627 23.5,395C 43.8306,394.5 64.1639,394.333 84.5,394.5 Z"/></g>
<g><path style="opacity:1" fill="#fe6e7e" d="M 84.5,394.5 C 218.5,394.333 352.5,394.5 486.5,395C 491.667,396.167 494.833,399.333 496,404.5C 496.667,412.5 496.667,420.5 496,428.5C 494.474,433.36 491.307,436.526 486.5,438C 353.834,438.5 221.167,438.667 88.5,438.5C 85.0634,424.049 83.73,409.382 84.5,394.5 Z"/></g>
<g><path style="opacity:1" fill="#c6bc76" d="M 474.5,496.5 C 474.5,482.5 474.5,468.5 474.5,454.5C 347.5,454.5 220.5,454.5 93.5,454.5C 74.5,454.5 55.5,454.5 36.5,454.5C 36.5,468.5 36.5,482.5 36.5,496.5C 35.5041,482.343 35.1707,468.01 35.5,453.5C 182.167,453.5 328.833,453.5 475.5,453.5C 475.829,468.01 475.496,482.343 474.5,496.5 Z"/></g>
<g><path style="opacity:1" fill="#f9d888" d="M 93.5,454.5 C 98.0351,469.568 104.702,483.568 113.5,496.5C 87.8333,496.5 62.1667,496.5 36.5,496.5C 36.5,482.5 36.5,468.5 36.5,454.5C 55.5,454.5 74.5,454.5 93.5,454.5 Z"/></g>
<g><path style="opacity:1" fill="#f9ef96" d="M 93.5,454.5 C 220.5,454.5 347.5,454.5 474.5,454.5C 474.5,468.5 474.5,482.5 474.5,496.5C 354.167,496.5 233.833,496.5 113.5,496.5C 104.702,483.568 98.0351,469.568 93.5,454.5 Z"/></g>
</svg>
