<svg width="42" height="42" viewBox="0 0 42 42" fill="none" xmlns="http://www.w3.org/2000/svg">
<path d="M0 2C0 0.89543 0.895431 0 2 0H40C41.1046 0 42 0.895431 42 2V40C42 41.1046 41.1046 42 40 42H2C0.89543 42 0 41.1046 0 40V2Z" fill="#007ACC"/>
<path d="M10.7718 20.9203C10.7641 20.9177 10.7561 20.9235 10.7561 20.9316V21.9122C10.7561 22.3082 11.0771 22.6293 11.4732 22.6293H14.1866C15.2911 22.6293 16.1866 23.5247 16.1866 24.6293V36.2673C16.1866 37.3315 17.0492 38.1941 18.1133 38.1941V38.1941C19.1775 38.1941 20.0401 37.3315 20.0401 36.2673V24.6293C20.0401 23.5247 20.9355 22.6293 22.0401 22.6293H23.7879C24.7172 22.6293 25.4706 21.8759 25.4706 20.9466V20.9466C25.4706 20.7702 25.4706 20.6001 25.4703 20.4398C25.469 19.6843 24.9538 19.1907 24.1983 19.1844C22.8789 19.1735 20.629 19.1693 18.0977 19.1693L11.5071 19.1977C11.1091 19.1994 10.7874 19.5225 10.7874 19.9205V20.9091C10.7874 20.9172 10.7795 20.9229 10.7718 20.9203V20.9203ZM35.1724 19.1481C35.1678 19.1528 35.1701 19.1607 35.1765 19.1623C36.2346 19.4156 37.045 19.8985 37.7727 20.6627C38.0743 20.991 38.4904 21.5116 38.6784 21.8143C38.7548 21.9374 38.7263 22.0622 38.6104 22.1492C38.1403 22.5022 36.7687 23.4269 35.872 23.986C35.8302 24.0175 35.6631 23.8387 35.496 23.5653C34.953 22.7871 34.3995 22.4505 33.5327 22.3874C32.2795 22.3033 31.4441 22.9658 31.4441 24.0701C31.4441 24.4066 31.5067 24.5959 31.6321 24.8694C31.914 25.4478 32.4362 25.7948 34.0549 26.51C37.0416 27.8035 38.3366 28.6554 39.1198 29.8754C40.0075 31.2425 40.2059 33.388 39.6107 34.997C38.9423 36.7533 37.3132 37.9417 34.9843 38.3308C34.2533 38.457 32.5824 38.436 31.7991 38.2993C30.1282 37.9838 28.5304 37.1424 27.5488 36.0592C27.3034 35.7921 26.9148 35.2407 26.6745 34.855C26.5112 34.5929 26.5989 34.353 26.8595 34.1872V34.1872L28.426 33.2723L29.2118 32.8101C29.4359 32.6783 29.7233 32.7371 29.8776 32.9462V32.9462C30.2222 33.4931 30.995 34.2293 31.4441 34.4817C32.8017 35.1863 34.6188 35.0917 35.5169 34.2714C35.9033 33.9138 36.0704 33.5352 36.0704 33.0094C36.0704 32.5256 35.9973 32.3047 35.7571 31.9366C35.4229 31.4739 34.7546 31.0953 32.8748 30.254C30.7131 29.3285 29.7941 28.7395 28.9377 27.8351C28.4469 27.2882 27.9978 26.4364 27.789 25.7317C27.6323 25.1218 27.5801 23.6284 27.7263 23.0289C28.1754 20.9256 29.7523 19.4532 32.008 19.0326C32.7344 18.8863 34.4405 18.9476 35.169 19.1342C35.1753 19.1358 35.177 19.1435 35.1724 19.1481V19.1481Z" fill="white"/>
</svg>
