<svg width="50" height="50" viewBox="0 0 50 50" fill="none" xmlns="http://www.w3.org/2000/svg">
<path d="M41.6667 50H8.33333C3.75 50 0 46.25 0 41.6667V8.33333C0 3.75 3.75 0 8.33333 0H41.6667C46.25 0 50 3.75 50 8.33333V41.6667C50 46.25 46.25 50 41.6667 50ZM8.33333 4.16667C6.04167 4.16667 4.16667 6.04167 4.16667 8.33333V41.6667C4.16667 43.9583 6.04167 45.8333 8.33333 45.8333H41.6667C43.9583 45.8333 45.8333 43.9583 45.8333 41.6667V8.33333C45.8333 6.04167 43.9583 4.16667 41.6667 4.16667H8.33333Z" fill="url(#paint0_linear_157_89)"/>
<path d="M18.75 35.4167C18.3333 35.4167 18.125 35.4167 17.7083 35.2084C17.0833 34.7917 16.6667 34.1667 16.6667 33.3334V16.6667C16.6667 15.8334 17.0833 15.2084 17.7083 14.7917C18.3333 14.375 19.1667 14.375 19.7917 14.7917L34.375 23.125C35 23.5417 35.4167 24.1667 35.4167 25C35.4167 25.8334 35 26.4583 34.375 26.875L19.7917 35.2084C19.375 35.4167 19.1667 35.4167 18.75 35.4167ZM20.8333 20.2084V29.7917L29.1667 25L20.8333 20.2084Z" fill="url(#paint1_linear_157_89)"/>
<defs>
<linearGradient id="paint0_linear_157_89" x1="1.03448e-06" y1="25.1773" x2="50" y2="25.1773" gradientUnits="userSpaceOnUse">
<stop stop-color="#FF884B"/>
<stop offset="0.359375" stop-color="#FF634C"/>
<stop offset="0.630208" stop-color="#FE4A4F"/>
<stop offset="1" stop-color="#FE4840"/>
</linearGradient>
<linearGradient id="paint1_linear_157_89" x1="16.6667" y1="24.8227" x2="35.461" y2="24.8227" gradientUnits="userSpaceOnUse">
<stop stop-color="#FF634C"/>
<stop offset="1" stop-color="#FE4A4F"/>
</linearGradient>
</defs>
</svg>
