<svg width="57" height="57" viewBox="0 0 57 57" fill="none" xmlns="http://www.w3.org/2000/svg">
<path d="M48.617 8.28281C43.2398 2.93906 36.0814 0 28.4777 0C20.874 0 13.7268 2.93906 8.34961 8.28281C2.96133 13.6266 0 20.7293 0 28.2885C0 35.8477 2.96133 42.9504 8.34961 48.2941C13.7268 53.6268 20.874 56.577 28.4777 56.577C36.0814 56.577 43.2287 53.6379 48.6059 48.2941C53.9941 42.9504 56.9555 35.8477 56.9555 28.2885C56.9555 20.7293 53.9941 13.6266 48.617 8.28281ZM50.6988 19.2041H40.1338C40.1227 19.1707 40.1227 19.1373 40.1115 19.1039C39.0873 13.5709 37.5844 8.91738 36.4154 5.78906C42.8836 8.03789 48.0938 12.9586 50.6988 19.2041ZM25.2604 4.67578C26.318 4.53105 27.3867 4.46426 28.4777 4.46426C29.3795 4.46426 30.259 4.51992 31.1273 4.60898C32.0848 6.82441 34.2334 12.2795 35.5916 19.2041H21.8092C22.967 11.5002 24.893 5.74453 25.2604 4.67578ZM4.45312 28.2885C4.45312 26.7076 4.60898 25.1602 4.90957 23.6572H16.7883C16.3764 28.1215 16.343 32.4188 16.6881 36.46H5.91152C4.96523 33.9105 4.45312 31.1607 4.45312 28.2885ZM8.11582 40.9131H17.2447C17.8014 44.3086 18.6363 47.5148 19.7719 50.4873C14.9291 48.617 10.8434 45.2215 8.11582 40.9131ZM17.3115 19.2041H6.26777C8.82832 13.0699 13.8938 8.22715 20.1838 5.92266C19.3488 8.77266 18.1242 13.4818 17.3115 19.2041ZM31.684 51.9012C30.6375 52.0348 29.5688 52.1127 28.4889 52.1127C27.3756 52.1127 26.2846 52.0348 25.2047 51.89C23.5125 48.3721 22.4215 44.6426 21.7758 40.9131H35.8143C35.0238 44.6203 33.7102 48.3498 31.684 51.9012ZM36.5045 36.46H21.1746C20.7627 31.9066 20.8963 27.5092 21.2637 23.6572H36.3152C36.8051 27.5203 36.9943 31.9178 36.5045 36.46ZM37.4174 50.4094C38.7311 47.4369 39.7219 44.2641 40.3564 40.9131H48.8508C46.1678 45.1658 42.16 48.5168 37.4174 50.4094ZM41.0021 36.46L41.0355 36.0592C41.3918 32.1182 41.3139 27.9545 40.8018 23.6572H52.057C52.3576 25.1602 52.5135 26.7076 52.5135 28.2885C52.5135 31.1607 52.0014 33.9105 51.0551 36.46H41.0021Z" fill="url(#paint0_linear_157_69)"/>
<defs>
<linearGradient id="paint0_linear_157_69" x1="0" y1="28.2885" x2="56.9555" y2="28.2885" gradientUnits="userSpaceOnUse">
<stop stop-color="#FF884B"/>
<stop offset="0.35" stop-color="#FF634C"/>
<stop offset="0.655" stop-color="#FE4A4F"/>
<stop offset="1" stop-color="#FE4840"/>
</linearGradient>
</defs>
</svg>
