<svg xmlns="http://www.w3.org/2000/svg" viewBox="0 0 64 64" id="questionnaire"><path fill="#78b9eb" d="M48 42H36v5l-2-1.5V49l1 7H60V54A12 12 0 0 0 48 42zM28 47V42H16A12 12 0 0 0 4 54v2H29l1-7V45.5z"></path><polygon fill="#78b9eb" points="32 44 30.67 45 33.33 45 32 44"></polygon><path fill="#1e81ce" d="M48 41H40V36a1 1 0 0 0-1-1H25a1 1 0 0 0-1 1v5H16A13.015 13.015 0 0 0 3 54v2a1 1 0 0 0 1 1H60a1 1 0 0 0 1-1V54A13.015 13.015 0 0 0 48 41zM26 37H38v4H26zm8.6 7.7h0l-.037-.027L32.6 43.2a1 1 0 0 0-1.2 0l-1.96 1.47L29.4 44.7h0L29 45V43h6v2zM31 46h2l0 2H31zM5 54A11.013 11.013 0 0 1 16 43H27v4a1 1 0 0 0 1.6.8l.4-.3v1.427L28.132 55H15V50H13v5H5zm25.153 1l.714-5h2.266l.714 5zM59 55H51V50H49v5H35.868L35 48.927V47.5l.4.3A1 1 0 0 0 37 47V43H48A11.013 11.013 0 0 1 59 54zM27.551 9.6a7.062 7.062 0 0 1 5.863-1.458A7 7 0 0 1 33.4 21.86 3 3 0 0 0 31 24.793V29h2V24.793a.994.994 0 0 1 .793-.972 9.064 9.064 0 0 0 7.032-10.616 8.962 8.962 0 0 0-7.03-7.03A9.008 9.008 0 0 0 23 15h2A6.98 6.98 0 0 1 27.551 9.6z"></path><rect width="2" height="2" x="31" y="31" fill="#1e81ce"></rect><rect width="2" height="2" x="48" y="27" fill="#1e81ce"></rect><rect width="2" height="2" x="50" y="29" fill="#1e81ce"></rect><rect width="2" height="2" x="48" y="31" fill="#1e81ce"></rect><rect width="2" height="2" x="46" y="29" fill="#1e81ce"></rect><path fill="#1e81ce" d="M52,15a3,3,0,1,0-3-3A3,3,0,0,0,52,15Zm0-4a1,1,0,1,1-1,1A1,1,0,0,1,52,11Z"></path><rect width="2" height="2" x="8" y="6" fill="#1e81ce"></rect><rect width="2" height="2" x="10" y="8" fill="#1e81ce"></rect><rect width="2" height="2" x="8" y="10" fill="#1e81ce"></rect><rect width="2" height="2" x="6" y="8" fill="#1e81ce"></rect><rect width="2" height="2" x="14" y="20" fill="#1e81ce"></rect><rect width="2" height="2" x="16" y="22" fill="#1e81ce"></rect><rect width="2" height="2" x="14" y="24" fill="#1e81ce"></rect><rect width="2" height="2" x="12" y="22" fill="#1e81ce"></rect></svg>